<?xml version="1.0" encoding="utf-8"?>
<svg version="1.1" id="TankObjects" xmlns="http://www.w3.org/2000/svg" xmlns:xlink="http://www.w3.org/1999/xlink" x="0px" y="0px" width="820px" height="300px" viewBox="24 30 620.17 144.53" enable-background="new 24 30 620.17 144.53" xml:space="preserve">

<g>
	<g id="LWPOLYLINE_00000054988375383081110270000000288635494245471411_">
		<line style="fill:none;stroke:#555555;stroke-width:0.7087;stroke-linecap:round;stroke-linejoin:round;stroke-miterlimit:10;" x1="114.82" y1="29.57" x2="114.82" y2="90.08"></line>
	</g>
	<g id="LWPOLYLINE_00000136369068100435387280000008691639548753272239_">
		<path style="fill:none;stroke:#555555;stroke-width:0.7087;stroke-linecap:round;stroke-linejoin:round;stroke-miterlimit:10;" d="M164.25,24.9l0.78,17.65h62.46l-0.78-20.58C205.88,22.79,185.06,23.76,164.25,24.9z"></path>
	</g>
	<g id="LWPOLYLINE_00000016060365830187671180000013716357519110679204_">
		<rect x="186.92" y="76.02" style="fill:none;stroke:#555555;stroke-width:0.7087;stroke-linecap:round;stroke-linejoin:round;stroke-miterlimit:10;" width="40.53" height="13.55"></rect>
	</g>
	<g id="LWPOLYLINE_00000095302170962130392990000012935984226253544615_">
		<line style="fill:none;stroke:#555555;stroke-width:0.7087;stroke-linecap:round;stroke-linejoin:round;stroke-miterlimit:10;" x1="227.49" y1="42.55" x2="164.25" y2="24.9"></line>
	</g>
	<g id="LWPOLYLINE_00000175322064759898426160000012326208209152280220_">
		<line style="fill:none;stroke:#555555;stroke-width:0.7087;stroke-linecap:round;stroke-linejoin:round;stroke-miterlimit:10;" x1="165.03" y1="42.55" x2="226.71" y2="21.97"></line>
	</g>
	<g id="LWPOLYLINE_00000062175950379244507000000003108299712835290796_">
		<line style="fill:none;stroke:#555555;stroke-width:0.7087;stroke-linecap:round;stroke-linejoin:round;stroke-miterlimit:10;" x1="563.17" y1="42.02" x2="563.17" y2="90.08"></line>
	</g>
	<g id="LWPOLYLINE_00000004530184506673696600000013462077623808595366_">
		<polyline style="fill:none;stroke:#555555;stroke-width:0.7087;stroke-linecap:round;stroke-linejoin:round;stroke-miterlimit:10;" points="555.77,90.08 555.77,73.4 563.17,77.95 		"></polyline>
	</g>
	<g id="LWPOLYLINE_00000168820467045135569300000002136818666179385248_">
		<path style="fill:none;stroke:#555555;stroke-width:0.7087;stroke-linecap:round;stroke-linejoin:round;stroke-miterlimit:10;" d="M277.59,76.76V37.07c-10.19,0.4-20.39,0.84-30.58,1.32"></path>
	</g>
	<g id="LWPOLYLINE_00000090281619810993857730000010123434138150651029_">
		<path style="fill:none;stroke:#555555;stroke-width:0.7087;stroke-linecap:round;stroke-linejoin:round;stroke-miterlimit:10;" d="M287.81,89.57l0.89-52.05c9.64,0.56,19.28,1.16,28.92,1.81v50.24L288.7,38.89
			c9.64,0.56,19.28,1.16,28.92,1.81L287.81,89.57z"></path>
	</g>
	<g id="LWPOLYLINE_00000054248494685781544240000013380554457143377298_">
		<path style="fill:none;stroke:#555555;stroke-width:0.7087;stroke-linecap:round;stroke-linejoin:round;stroke-miterlimit:10;" d="M329.13,138.63l-0.96-49.06l0.96-49.06c34.78,5.99,69.51,12.33,104.16,19.01v30.05l-85.2-44.39l-19.96,44.39
			l19.96,44.39l85.2-44.39v30.05C398.64,126.3,363.91,132.64,329.13,138.63z"></path>
	</g>
	<g id="LWPOLYLINE_00000000938307254555949580000001338291685642998461_">
		<polyline style="fill:none;stroke:#555555;stroke-width:0.7087;stroke-linecap:round;stroke-linejoin:round;stroke-miterlimit:10;" points="82.93,90.08 82.93,60.25 114.82,60.25 98.88,90.08 82.93,60.25 		"></polyline>
	</g>
	<g id="LWPOLYLINE_00000130631178451159596490000016499921939861765521_">
		<path style="fill:none;stroke:#555555;stroke-width:0.7087;stroke-linecap:round;stroke-linejoin:round;stroke-miterlimit:10;" d="M137.4,159.34c-18.03-1.33-35.86-4.6-53.19-9.73c-10.69-3.17-20.83-8-30.03-14.3
			C37.95,125.22,27,108.48,24.26,89.57C27,70.65,37.95,53.91,54.18,43.83c9.2-6.31,19.33-11.13,30.03-14.3
			c17.33-5.14,35.16-8.4,53.19-9.73"></path>
	</g>
	<g id="LWPOLYLINE_00000060717606343015123210000015805859323060790954_">
		<path style="fill:none;stroke:#555555;stroke-width:0.7087;stroke-linecap:round;stroke-linejoin:round;stroke-miterlimit:10;" d="M424.38,18.63c55,0.09,109.44,11.14,160.12,32.52c16.83,7.9,32.43,18.19,46.32,30.54
			c2.16,2.04,3.35,4.9,3.28,7.87c0.07,2.97-1.12,5.83-3.28,7.87c-13.89,12.35-29.49,22.64-46.32,30.54
			c-50.68,21.38-105.11,32.43-160.12,32.52"></path>
	</g>
	<g id="LWPOLYLINE_00000093898450523631801310000013134345292107812492_">
		<path style="fill:none;stroke:#555555;stroke-width:0.7087;stroke-linecap:round;stroke-linejoin:round;stroke-miterlimit:10;" d="M29.81,89.57c4.55-16.99,14.34-32.12,27.98-43.23c8.13-6.66,17.45-11.71,27.47-14.89
			c17-5.43,34.44-9.33,52.13-11.66c107-2.67,214.04-2.84,321.04-0.5c22.09,1.14,44.16,2.59,66.21,4.33
			c21.49,1.35,42.53,6.77,61.99,15.99c17.45,8.1,33.48,18.96,47.48,32.15c5.62,4.28,9.12,10.77,9.62,17.81
			c-0.5,7.04-4,13.53-9.62,17.81c-14,13.19-30.03,24.05-47.48,32.15c-19.46,9.21-40.5,14.64-61.99,15.99
			c-22.05,1.74-44.12,3.18-66.21,4.33c-107,2.34-214.05,2.17-321.04-0.5c-17.69-2.33-35.14-6.23-52.13-11.66
			c-10.02-3.18-19.34-8.23-27.47-14.89C44.15,121.69,34.36,106.56,29.81,89.57z"></path>
	</g>
	<g id="LWPOLYLINE_00000018212972803359303560000004975701206750481807_">
		<line style="fill:none;stroke:#555555;stroke-width:0.7087;stroke-linecap:round;stroke-linejoin:round;stroke-miterlimit:10;" x1="114.82" y1="149.57" x2="114.82" y2="89.05"></line>
	</g>
	<g id="LWPOLYLINE_00000032615689085872608040000009799083290029689254_">
		<polyline style="fill:none;stroke:#555555;stroke-width:0.7087;stroke-linecap:round;stroke-linejoin:round;stroke-miterlimit:10;" points="247.01,159.81 247.01,89.57 247.01,19.33 		"></polyline>
	</g>
	<g id="LWPOLYLINE_00000015343651984043757210000001250641127778594454_">
		<path style="fill:none;stroke:#555555;stroke-width:0.7087;stroke-linecap:round;stroke-linejoin:round;stroke-miterlimit:10;" d="M164.25,154.24l0.78-17.65h62.46l-0.78,20.58C205.88,156.35,185.06,155.37,164.25,154.24z"></path>
	</g>
	<g id="LWPOLYLINE_00000108989838568397359960000008322143105318207618_">
		<line style="fill:none;stroke:#555555;stroke-width:0.7087;stroke-linecap:round;stroke-linejoin:round;stroke-miterlimit:10;" x1="227.49" y1="136.59" x2="164.25" y2="154.24"></line>
	</g>
	<g id="LWPOLYLINE_00000038398480463987002860000005706810623606889639_">
		<line style="fill:none;stroke:#555555;stroke-width:0.7087;stroke-linecap:round;stroke-linejoin:round;stroke-miterlimit:10;" x1="165.03" y1="136.59" x2="226.71" y2="157.16"></line>
	</g>
	<g id="LWPOLYLINE_00000088855075280276827730000010258349721576779439_">
		<line style="fill:none;stroke:#555555;stroke-width:0.7087;stroke-linecap:round;stroke-linejoin:round;stroke-miterlimit:10;" x1="563.17" y1="137.12" x2="563.17" y2="89.05"></line>
	</g>
	<g id="LWPOLYLINE_00000027605220590771619760000018144086359170286490_">
		<polyline style="fill:none;stroke:#555555;stroke-width:0.7087;stroke-linecap:round;stroke-linejoin:round;stroke-miterlimit:10;" points="555.77,89.05 555.77,105.73 563.17,101.18 		"></polyline>
	</g>
	<g id="LWPOLYLINE_00000176721433816304426410000014229786491884740503_">
		<path style="fill:none;stroke:#555555;stroke-width:0.7087;stroke-linecap:round;stroke-linejoin:round;stroke-miterlimit:10;" d="M442.81,50.72v38.84v38.84c15.77-3.99,31.43-8.42,46.96-13.28V89.57V64.01
			C474.24,59.15,458.58,54.72,442.81,50.72z"></path>
	</g>
	<g id="LWPOLYLINE_00000055684342356443430200000013288402741575796612_">
		<polyline style="fill:none;stroke:#555555;stroke-width:0.7087;stroke-linecap:round;stroke-linejoin:round;stroke-miterlimit:10;" points="247.01,102.38 277.59,102.38 277.59,89.57 277.59,76.76 247.01,76.76 		"></polyline>
	</g>
	<g id="LWPOLYLINE_00000060725636101543684030000000843233534695353266_">
		<path style="fill:none;stroke:#555555;stroke-width:0.7087;stroke-linecap:round;stroke-linejoin:round;stroke-miterlimit:10;" d="M277.59,102.38v39.69c-10.19-0.4-20.39-0.84-30.58-1.32"></path>
	</g>
	
	<g id="LWPOLYLINE_00000152977476820884805820000016839104873085516701_" 
	   onclick="tanks.tankHighlight('#waterTanks', 0, $(this))" 
	   style="fill: transparent; cursor: pointer;">
	  <path style="fill: rgba(255, 255, 255, 0.1); stroke: #555555; stroke-width: 0.7087; stroke-linecap: round; stroke-linejoin: round; stroke-miterlimit: 10;" 
	        d="M287.81,89.57l0.89,52.05c9.64-0.56,19.28-1.16,28.92-1.81V89.57l-28.92,50.67
	           c9.64-0.56,19.28-1.16,28.92-1.81L287.81,89.57z">
	  </path>
	</g>

	<g id="LWPOLYLINE_00000154410335137727792670000007644485208542125708_">
		<path style="fill:none;stroke:#555555;stroke-width:0.7087;stroke-linecap:round;stroke-linejoin:round;stroke-miterlimit:10;" d="M348.1,133.95l-0.03-44.39l85.22-28.67c-34.66-6.69-69.38-13.03-104.16-19.02l18.94,47.69l0.03-44.39"></path>
	</g>
	<g id="LWPOLYLINE_00000080186926003479516240000015275514931467143606_">
		<path style="fill:none;stroke:#555555;stroke-width:0.7087;stroke-linecap:round;stroke-linejoin:round;stroke-miterlimit:10;" d="M329.13,137.26c34.78-5.99,69.51-12.33,104.16-19.02l-85.22-28.67L329.13,137.26z"></path>
	</g>
	<g id="LWPOLYLINE_00000167386266763045130880000014721568535805360037_">
		<polyline style="fill:none;stroke:#555555;stroke-width:0.7087;stroke-linecap:round;stroke-linejoin:round;stroke-miterlimit:10;" points="82.93,89.05 82.93,118.89 114.82,118.89 98.88,89.05 82.93,118.89 		"></polyline>
	</g>
	<g id="LWPOLYLINE_00000129177521787554331400000009970646831571097276_">
		<path style="fill:none;stroke:#555555;stroke-width:0.7087;stroke-linecap:round;stroke-linejoin:round;stroke-miterlimit:10;" d="M442.81,52.12c15.77,4,31.43,8.43,46.96,13.3l-23.48,24.15L442.81,52.12z"></path>
	</g>
	<g id="LWPOLYLINE_00000045587042601707835220000006783529451864861337_">
		<path style="fill:none;stroke:#555555;stroke-width:0.7087;stroke-linecap:round;stroke-linejoin:round;stroke-miterlimit:10;" d="M442.81,127.02c15.77-4,31.43-8.43,46.96-13.3l-23.48-24.15L442.81,127.02z"></path>
	</g>
	<g id="LWPOLYLINE_00000080183937809092024720000007803390132302502589_">
		<path style="fill:none;stroke:#555555;stroke-width:0.7087;stroke-linecap:round;stroke-linejoin:round;stroke-miterlimit:10;" d="M247.01,39.76l30.58,37L262.3,89.57l-15.29-12.81l30.58-38.31C267.4,38.84,257.21,39.28,247.01,39.76z"></path>
	</g>
	<g id="LWPOLYLINE_00000078743430705352172510000013596858990898624392_">
		<path style="fill:none;stroke:#555555;stroke-width:0.7087;stroke-linecap:round;stroke-linejoin:round;stroke-miterlimit:10;" d="M247.01,139.38l30.58-37L262.3,89.57l-15.29,12.81l30.58,38.31C267.4,140.29,257.21,139.85,247.01,139.38z"></path>
	</g>
	<g id="LWPOLYLINE_00000029026635190869680450000016738087965582256318_">
		<rect x="186.92" y="89.57" style="fill:none;stroke:#555555;stroke-width:0.7087;stroke-linecap:round;stroke-linejoin:round;stroke-miterlimit:10;" width="40.53" height="13.55"></rect>
	</g>
	<g id="LWPOLYLINE_00000146493123333248378020000002881661785105585080_">
		<polyline style="fill:none;stroke:#555555;stroke-width:0.7087;stroke-linecap:round;stroke-linejoin:round;stroke-miterlimit:10;" points="227.45,103.11 186.92,89.57 227.45,76.02 		"></polyline>
	</g>
	<g id="LWPOLYLINE_00000031195060308032588520000000481724161899245190_">
		<polyline style="fill:none;stroke:#555555;stroke-width:0.7087;stroke-linecap:round;stroke-linejoin:round;stroke-miterlimit:10;" points="186.92,103.11 227.45,89.57 186.92,76.02 		"></polyline>
	</g>
</g>
<line onclick="tanks.tankHighlight('#waterTanks',0, $(this))" style="fill:none;stroke:#555555;stroke-width:0.7087;stroke-linecap:round;stroke-linejoin:round;stroke-miterlimit:10;" x1="287.81" y1="89.57" x2="317.62" y2="89.57"></line>
<line style="fill:none;stroke:#555555;stroke-width:0.7087;stroke-linecap:round;stroke-linejoin:round;stroke-miterlimit:10;" x1="328.17" y1="89.57" x2="348.07" y2="89.57"></line>
<line style="fill:none;stroke:#555555;stroke-width:0.7087;stroke-linecap:round;stroke-linejoin:round;stroke-miterlimit:10;" x1="433.29" y1="89.57" x2="348.07" y2="89.57"></line>
</svg>