<?xml version="1.0" encoding="UTF-8"?>
<svg id="_0" data-name="0" xmlns="http://www.w3.org/2000/svg" viewBox="0 0 620.89 145.4">
  <defs>
    <style>
      .cls-1 {
        fill: none;
        stroke: #000;
        stroke-linecap: round;
        stroke-linejoin: round;
        stroke-width: .71px;
      }
    </style>
  </defs>
  <g id="LWPOLYLINE">
    <path class="cls-1" d="M252.42,23.67c35.38,.01,70.76,.44,106.12,1.28,1.1,.03,2.17,.34,3.12,.9,.3,.18,.58,.4,.83,.66,.83,.86,1.6,1.76,2.3,2.72,1.88,2.27,3.36,4.85,4.36,7.63,.68,1.71,1.21,3.47,1.6,5.27,.32,.93,.62,1.86,.91,2.79,1.07,3.46,2.13,6.93,3.18,10.39,.2,.67,.39,1.34,.57,2.01,.26,.98,.46,1.97,.6,2.97,.41,2.97,.75,5.95,1.02,8.93,.02,.23,.03,.46,.03,.69,0,.9-.01,1.8-.04,2.7"/>
  </g>
  <g id="LWPOLYLINE-2" data-name="LWPOLYLINE">
    <path class="cls-1" d="M359.01,24.98c3.47,3.67,6.22,7.96,8.11,12.65,.65,1.65,1.17,3.34,1.53,5.08,.32,.95,.63,1.9,.93,2.85,1.07,3.46,2.13,6.92,3.17,10.38,.19,.64,.38,1.29,.55,1.94,.24,.89,.42,1.79,.54,2.7,.4,2.94,.74,5.88,1,8.83,.01,.17,.02,.33,.02,.5,0,.88-.01,1.75-.04,2.63"/>
  </g>
  <g id="LWPOLYLINE-3" data-name="LWPOLYLINE">
    <path class="cls-1" d="M113.55,8.22c-18.02,1.46-35.84,4.76-53.18,9.86-10.69,3.17-20.83,8-30.03,14.3C15.86,41.81,5.22,56.11,.35,72.7c4.87,16.59,15.51,30.89,29.99,40.32,9.2,6.31,19.33,11.13,30.03,14.3,17.34,5.1,35.16,8.4,53.18,9.86"/>
  </g>
  <g id="LWPOLYLINE-4" data-name="LWPOLYLINE">
    <path class="cls-1" d="M337.93,21.15c-4.02-9-12.51-15.2-22.3-16.28-67.24-1.03-134.5,1.33-201.5,7.07-17.27,1.96-34.35,5.36-51.05,10.17-10.53,2.78-20.17,8.21-28.02,15.76-10.66,8.52-17.19,21.19-17.93,34.83,.74,13.63,7.26,26.3,17.93,34.83,7.84,7.55,17.49,12.98,28.02,15.76,16.7,4.81,33.78,8.21,51.05,10.17,67.01,5.74,134.26,8.1,201.5,7.07,9.8-1.08,18.28-7.28,22.3-16.28"/>
  </g>
  <g id="LWPOLYLINE-5" data-name="LWPOLYLINE">
    <path class="cls-1" d="M620.54,72.7c-.5-7.04-4-13.53-9.62-17.81-13.82-12.66-29.94-22.55-47.48-29.14-24.78-9.4-50.6-15.78-76.9-19-39.82-3.43-79.75-5.39-119.72-5.89-84.49-1.67-169.01,.78-253.27,7.35-17.68,2.45-35.12,6.39-52.13,11.79-10.31,3.62-20.07,8.63-29.02,14.89-12.78,9.66-22.53,22.78-28.09,37.81,5.56,15.03,15.3,28.15,28.09,37.81,8.95,6.26,18.71,11.27,29.02,14.89,17.01,5.39,34.45,9.33,52.13,11.79,84.25,6.57,168.78,9.03,253.27,7.35,39.96-.5,79.9-2.46,119.72-5.89,26.3-3.21,52.13-9.59,76.9-19,17.54-6.59,33.66-16.48,47.48-29.14,5.62-4.28,9.12-10.77,9.62-17.81Z"/>
  </g>
  <g id="LWPOLYLINE-6" data-name="LWPOLYLINE">
    <path class="cls-1" d="M326.16,21.12l69.92,.19c1.77,.19,3.49,.67,5.1,1.42,.93,.43,1.71,1.13,2.26,2,.8,1.29,1.57,2.58,2.33,3.89,.43,.74,.84,1.5,1.22,2.26,.7,1.39,1.4,2.79,2.09,4.19,.34,.7,.68,1.39,1,2.1,.64,1.36,1.21,2.75,1.73,4.16,.82,2.25,1.59,4.53,2.29,6.83,.32,1.03,.57,2.09,.77,3.15,.67,3.59,1.28,7.18,1.83,10.79,.18,1.2,.27,2.41,.27,3.63,0,2.32-.09,4.65-.27,6.97,.18,2.32,.27,4.64,.27,6.97,0,1.21-.09,2.43-.27,3.63-.55,3.61-1.16,7.2-1.83,10.79-.2,1.06-.46,2.12-.77,3.15-.7,2.3-1.47,4.57-2.29,6.83-.52,1.41-1.09,2.8-1.73,4.16-.33,.7-.66,1.4-1,2.1-.69,1.4-1.38,2.79-2.09,4.19-.39,.77-.79,1.52-1.22,2.26-.76,1.31-1.53,2.61-2.33,3.89-.54,.87-1.33,1.57-2.26,2-1.61,.75-3.34,1.23-5.1,1.42l-69.92,.19"/>
  </g>
  <g id="LWPOLYLINE-7" data-name="LWPOLYLINE">
    <path class="cls-1" d="M252.36,121.74c-4.63,.11-9.27,.17-13.9,.17-3.84,0-7.67-.06-11.51-.17s-7.67-.24-11.5-.38c-.03,0-.05,0-.08,0-.17-.03-.34-.09-.5-.18-1.39-.8-2.74-1.68-4.04-2.63-.9-.66-1.78-1.33-2.65-2.03-.25-.2-.49-.42-.71-.65-.44-.45-.84-.94-1.19-1.46-.61-.89-1.18-1.82-1.69-2.78s-.97-1.9-1.42-2.87c-.81-1.76-1.59-3.54-2.33-5.33-.39-.93-.74-1.86-1.07-2.81-1.01-2.93-1.99-5.87-2.94-8.82-.37-1.15-.61-2.33-.72-3.53-.23-2.51-.31-5.03-.25-7.55h-3.17c-.07,2.62,.02,5.23,.26,7.84,.13,1.43,.42,2.84,.86,4.21,.95,2.97,1.94,5.94,2.96,8.89,.35,1.01,.73,2.01,1.14,3,.76,1.82,1.55,3.63,2.38,5.43,.47,1.03,.97,2.04,1.5,3.03,.57,1.06,1.19,2.09,1.87,3.09,.46,.67,.97,1.29,1.53,1.87,.31,.32,.65,.63,1,.91,.9,.73,1.83,1.44,2.76,2.12,1.39,1.02,2.84,1.96,4.33,2.82,.47,.27,.98,.46,1.52,.56,.17,.03,.35,.05,.53,.06,3.84,.14,7.68,.27,11.52,.38s7.73,.17,11.6,.17c4.66,0,9.32-.06,13.98-.17,35.4-.02,70.8-.44,106.19-1.28,1.65-.04,3.26-.5,4.67-1.35,.54-.32,1.04-.72,1.48-1.18,.9-.93,1.75-1.93,2.52-2.97,2.08-2.53,3.71-5.39,4.83-8.46,.71-1.8,1.28-3.65,1.7-5.54,.3-.9,.6-1.8,.88-2.7,1.07-3.47,2.13-6.94,3.18-10.41,.21-.7,.41-1.4,.6-2.11,.29-1.1,.52-2.22,.68-3.35,.41-3.02,.76-6.04,1.03-9.08,.03-.33,.04-.65,.04-.98,0-.93-.01-1.86-.04-2.8,.03-.93,.04-1.86,.04-2.8,0-.33-.01-.65-.04-.98-.27-3.03-.62-6.06-1.03-9.08-.16-1.13-.38-2.25-.68-3.35-.19-.71-.39-1.41-.6-2.11-1.05-3.47-2.11-6.95-3.18-10.41-.28-.91-.57-1.81-.88-2.7-.42-1.89-.98-3.74-1.7-5.54-1.12-3.07-2.75-5.93-4.83-8.46-.78-1.04-1.62-2.03-2.52-2.97-.44-.46-.94-.85-1.48-1.18-1.41-.84-3.02-1.31-4.67-1.35-35.39-.84-70.79-1.27-106.19-1.28-4.66-.11-9.32-.17-13.98-.17-3.87,0-7.73,.06-11.6,.17s-7.68,.24-11.52,.38c-.18,0-.35,.03-.53,.06-.53,.1-1.05,.28-1.52,.56-1.49,.86-2.94,1.8-4.33,2.82-.94,.69-1.86,1.39-2.76,2.12-.35,.28-.68,.59-1,.91-.56,.58-1.08,1.2-1.53,1.87-.68,.99-1.31,2.02-1.87,3.09-.53,1-1.03,2.01-1.5,3.03-.82,1.8-1.62,3.61-2.38,5.43-.41,.99-.79,1.99-1.14,3-1.02,2.95-2,5.91-2.96,8.89-.44,1.37-.73,2.78-.86,4.21-.24,2.61-.33,5.22-.26,7.84h3.17c-.07-2.52,.02-5.04,.25-7.55,.11-1.2,.35-2.38,.72-3.53,.95-2.95,1.93-5.89,2.94-8.82,.33-.95,.68-1.89,1.07-2.81,.75-1.79,1.53-3.57,2.33-5.33,.44-.97,.92-1.92,1.42-2.87s1.07-1.89,1.69-2.78c.36-.52,.76-1.01,1.19-1.46,.22-.23,.46-.45,.71-.65,.87-.7,1.75-1.37,2.65-2.03,1.3-.95,2.65-1.83,4.04-2.63,.15-.09,.32-.15,.5-.18,.03,0,.05,0,.08,0,3.83-.14,7.67-.26,11.5-.38s7.67-.17,11.51-.17c4.63,0,9.27,.06,13.9,.17"/>
  </g>
  <g id="LWPOLYLINE-8" data-name="LWPOLYLINE">
    <path class="cls-1" d="M252.42,121.73c35.38-.01,70.76-.44,106.12-1.28,1.1-.03,2.17-.34,3.12-.9,.3-.18,.58-.4,.83-.66,.83-.86,1.6-1.76,2.3-2.72,1.88-2.27,3.36-4.85,4.36-7.63,.68-1.71,1.21-3.47,1.6-5.27,.32-.93,.62-1.86,.91-2.79,1.07-3.46,2.13-6.93,3.18-10.39,.2-.67,.39-1.34,.57-2.01,.26-.98,.46-1.97,.6-2.97,.41-2.97,.75-5.95,1.02-8.93,.02-.23,.03-.46,.03-.69,0-.9-.01-1.8-.04-2.7"/>
  </g>
  <g id="LWPOLYLINE-9" data-name="LWPOLYLINE">
    <path class="cls-1" d="M359.01,120.43c3.47-3.67,6.22-7.96,8.11-12.65,.65-1.65,1.17-3.34,1.53-5.08,.32-.95,.63-1.9,.93-2.85,1.07-3.46,2.13-6.92,3.17-10.38,.19-.64,.38-1.29,.55-1.94,.24-.89,.42-1.79,.54-2.7,.4-2.94,.74-5.88,1-8.83,.01-.17,.02-.33,.02-.5,0-.88-.01-1.75-.04-2.63"/>
  </g>
  <g id="LWPOLYLINE-10" data-name="LWPOLYLINE">
    <polyline class="cls-1" points="214.81 124.47 209.62 133.5 205.67 135.78 184.73 135.06 135.86 131.88 100.1 127.66 76.5 123.07 61.04 118.92 54.88 114.02 47.84 98.7 46.46 91.29 91.59 91.29 104.41 87.52 113.69 82.16 121.38 76.46 125.9 72.7 121.38 68.94 113.69 63.24 104.41 57.88 91.59 54.11 46.46 54.11 47.84 46.7 54.88 31.38 61.04 26.48 76.5 22.33 100.1 17.74 135.86 13.52 184.73 10.34 205.67 9.62 209.62 11.91 214.81 20.93"/>
  </g>
</svg>