<svg version="1.2" xmlns="http://www.w3.org/2000/svg" viewBox="-180 305 2200 500">
	<path id="Forma 199" style="fill: #6d92ab" d="m622.5 456.5v-3h19v3z"/>
	<path id="Forma 200" style="fill: #6d92ab" d="m640 453.8h3v179.5h-3z"/>
	<path id="Forma 201" style="fill: #6d92ab" d="m620.5 453.1h3v180.7h-3z"/>
	<path id="Forma 202" style="fill: #6d92ab" d="m620.8 635.3v-3h21.9v3z"/>
	<path id="Forma 203" style="fill: #6d92ab" d="m418.7 725.7h-3v-39.5h3z"/>
	<path id="Forma 204" style="fill: #6d92ab" d="m415.5 687.5v-3h177.7v3z"/>
	<path id="Forma 205" style="fill: #6d92ab" d="m591.4 684.3h3v53.1h-3z"/>
	<path id="Forma 206" style="fill: #6d92ab" d="m416 357.9h3v40.9h-3z"/>
	<path id="Forma 207" style="fill: #6d92ab" d="m416.3 400.3v-3h177.5v3z"/>
	<path id="Forma 208" style="fill: #6d92ab" d="m595.2 400.5h-3v-53.9h3z"/>
	<path id="Forma 209" style="fill: #6d92ab" d="m282.9 641.2v-3h103.8v3z"/>
	<path id="Forma 210" style="fill: #6d92ab" d="m385.5 638.6h3v52.4h-3z"/>
	<path id="Forma 211" style="fill: #6d92ab" d="m389 690.1v3h-105.5v-3z"/>
	<path id="Forma 212" style="fill: #6d92ab" d="m285 690.7h-3v-50.8h3z"/>
	<path id="Forma 213" style="fill: #6d92ab" d="m282.9 397.2v-3h104.9v3z"/>
	<path id="Forma 214" style="fill: #6d92ab" d="m386.3 394.3h3v55h-3z"/>
	<path id="Forma 215" style="fill: #6d92ab" d="m389.2 447.8v3h-105.5v-3z"/>
	<path id="Forma 216" style="fill: #6d92ab" d="m285.3 450.7h-3v-55.8h3z"/>
	<path id="Forma 217" style="fill: #6d92ab" d="m473.5 462.7l0.1-3 30.2 0.9-0.1 3z"/>
	<path id="Forma 218" style="fill: #6d92ab" d="m505.3 462.1h-3v-21.4h3z"/>
	<path id="Forma 219" style="fill: #6d92ab" d="m502.5 442.2v-3h31.3v3z"/>
	<path id="Forma 220" style="fill: #6d92ab" d="m532.3 439.5h3v14.5h-3z"/>
	<path id="Forma 221" style="fill: #6d92ab" d="m532.4 455.5v-3h60.3v3z"/>
	<path id="Forma 222" style="fill: #6d92ab" d="m591 452.6h3v7.7h-3z"/>
	<path id="Forma 223" style="fill: #6d92ab" d="m591 461.6v-3h19v3z"/>
	<path id="Forma 224" style="fill: #6d92ab" d="m608.5 458.6h3v46.9h-3z"/>
	<path id="Forma 225" style="fill: #6d92ab" d="m612.1 503.7v3h-19.4v-3z"/>
	<path id="Forma 226" style="fill: #6d92ab" d="m590.9 503.2h3v9.1h-3z"/>
	<path id="Forma 227" style="fill: #6d92ab" d="m593.3 510.7v3h-89.9v-3z"/>
	<path id="Forma 228" style="fill: #6d92ab" d="m504.9 511.6l-3 0.2-0.7-9.2 3-0.2z"/>ยบ
	<path id="Forma 229" style="fill: #6d92ab" d="m502.7 501v3l-28.8-0.3v-3z"/>
	<path id="Forma 230" style="fill: #6d92ab" d="m475.4 502.2h-3v-41.8h3z"/>
	<path id="Forma 231" style="fill: #6d92ab" d="m608.8 581.1h3v46.7h-3z"/>
	<path id="Forma 232" style="fill: #6d92ab" d="m611.7 579.8v3h-20.7v-3z"/>
	<path id="Forma 233" style="fill: #6d92ab" d="m592.5 582.8h-3v-7.6h3z"/>
	<path id="Forma 234" style="fill: #6d92ab" d="m592.7 573.9v3l-60.7 0.1-0.1-3z"/>
	<path id="Forma 235" style="fill: #6d92ab" d="m533.4 576.9h-3v-13h3z"/>
	<path id="Forma 236" style="fill: #6d92ab" d="m533.6 563.1v3h-30.3v-3z"/>
	<path id="Forma 237" style="fill: #6d92ab" d="m502.8 562.7h3v22.3h-3z"/>
	<path id="Forma 238" style="fill: #6d92ab" d="m505.9 583.4v3h-31.8v-3z"/>
	<path id="Forma 239" style="fill: #6d92ab" d="m472.7 582.6h3v44.1h-3z"/>
	<path id="Forma 240" style="fill: #6d92ab" d="m473 627.3v-3h32.3v3z"/>
	<path id="Forma 241" style="fill: #6d92ab" d="m502.3 624.3h3v11.6h-3z"/>
	<path id="Forma 242" style="fill: #6d92ab" d="m502.5 635.9v-3h89.8v3z"/>
	<path id="Forma 243" style="fill: #6d92ab" d="m592.9 635.3h-3v-8.6h3z"/>
	<path id="Forma 244" style="fill: #6d92ab" d="m590 628.4v-3h22.1v3z"/>
	<path id="Forma 245" style="fill: #6d92ab" d="m650.9 332.8h3v417.4h-3z"/>
	<path id="Forma 246" style="fill: #6d92ab" d="m681.6 333.7h3v9.6h-3z"/>
	<path id="Forma 247" style="fill: #6d92ab" d="m683.1 341.8v3h-25.7v-3z"/>
	<path id="Forma 248" style="fill: #6d92ab" d="m655.9 343.3h3v395.1h-3z"/>
	<path id="Forma 249" style="fill: #6d92ab" d="m656.9 740.6v-3h28.8v3z"/>
	<path id="Forma 250" style="fill: #6d92ab" d="m656 740.8v-3h5.3v3z"/>
	<path id="Forma 251" style="fill: #6d92ab" d="m684.6 344.3h-3v-5.7h3z"/>
	<path id="Forma 252" style="fill: #6d92ab" d="m683.1 738.7h3v9.5h-3z"/>
	<path id="Forma 253" style="fill: #6d92ab" d="m652.8 749.2v-3l69 2.1-0.1 3z"/>
	<path id="Forma 254" style="fill: #6d92ab" d="m720.8 751.1v-3l47.3 0.7-0.1 3z"/>
	<path id="Forma 255" style="fill: #6d92ab" d="m768 751.8l0.1-3 43.5 0.6v3z"/>
	<path id="Forma 256" style="fill: #6d92ab" d="m811.3 752.4l-0.1-3 47.4-0.1v3z"/>
	<path id="Forma 257" style="fill: #6d92ab" d="m857.9 752.4l-0.1-3 56.4-1.1 0.1 3z"/>
	<path id="Forma 258" style="fill: #6d92ab" d="m913.9 751.2v-3l39.5-0.7 0.1 3z"/>
	<path id="Forma 259" style="fill: #6d92ab" d="m953.4 750.7l-0.2-3 42.5-2.1 0.2 2.9z"/>
	<path id="Forma 260" style="fill: #6d92ab" d="m1023.8 746.3l-0.1-3 33-2.1 0.2 3z"/>
	<path id="Forma 261" style="fill: #6d92ab" d="m1083.6 742.2l-0.4-3 58.1-6.7 0.3 3z"/>
	<path id="Forma 262" style="fill: #6d92ab" d="m1142.8 734l-3 0.1-0.1-5.7 3-0.1z"/>
	<path id="Forma 263" style="fill: #6d92ab" d="m1085.8 740.3l-2.9 0.8-1.2-4.8 2.9-0.8z"/>
	<path id="Forma 264" style="fill: #6d92ab" d="m1056.7 742.7l-3 0.2-0.3-4.3 3-0.2z"/>
	<path id="Forma 265" style="fill: #6d92ab" d="m1025.4 745.6h-3v-4.7h3z"/>
	<path id="Forma 266" style="fill: #6d92ab" d="m997 747.2l-2.9 0.8-1.2-4.3 2.8-0.8z"/>
	<path id="Forma 267" style="fill: #6d92ab" d="m727.8 748.7h-3v-9.1h3z"/>
	<path id="Forma 268" style="fill: #6d92ab" d="m725.1 742.2v-3h21v3z"/>
	<path id="Forma 269" style="fill: #6d92ab" d="m743.5 739.5h3v9.8h-3z"/>
	<path id="Forma 270" style="fill: #6d92ab" d="m787.4 749.8h-3v-8.6h3z"/>
	<path id="Forma 271" style="fill: #6d92ab" d="m784.2 743.2v-3h20.1v3z"/>
	<path id="Forma 272" style="fill: #6d92ab" d="m801.9 740.4h3v9.7h-3z"/>
	<path id="Forma 273" style="fill: #6d92ab" d="m843.6 750.3h-3v-9.4h3z"/>
	<path id="Forma 274" style="fill: #6d92ab" d="m842.2 743.3v-3l70.6 0.1v3z"/>
	<path id="Forma 275" style="fill: #6d92ab" d="m912.9 743.3l-0.1-3 48.3-1.4 0.1 3z"/>
	<path id="Forma 276" style="fill: #6d92ab" d="m961.2 741.9l-0.1-3 27.9-1.7 0.2 3z"/>
	<path id="Forma 277" style="fill: #6d92ab" d="m986.3 738.1h3v8.8h-3z"/>
	<path id="Forma 278" style="fill: #6d92ab" d="m1031.3 744.5h-3v-10.2h3z"/>
	<path id="Forma 279" style="fill: #6d92ab" d="m1028 736l-0.2-3 20.9-1.2 0.1 3z"/>
	<path id="Forma 280" style="fill: #6d92ab" d="m1047 732.2h3v10.7h-3z"/>
	<path id="Forma 281" style="fill: #6d92ab" d="m1091 739.6l-2.9 0.2-0.8-10.1 3-0.2z"/>
	<path id="Forma 282" style="fill: #6d92ab" d="m1087.7 731.2l-0.3-3 48.1-5.3 0.3 3z"/>
	<path id="Forma 283" style="fill: #6d92ab" d="m1132.8 723.8l3-0.2 0.6 9.6-3 0.2z"/>
	<path id="Forma 284" style="fill: #6d92ab" d="m731.5 739.6h-3v-84.8h3z"/>
	<path id="Forma 285" style="fill: #6d92ab" d="m730.4 614.2h-3v-144.9h3z"/>
	<path id="Forma 286" style="fill: #6d92ab" d="m658 597.1v-3h33.1v3z"/>
	<path id="Forma 287" style="fill: #6d92ab" d="m658.6 544.8v-3h193.6v3z"/>
	<path id="Forma 288" style="fill: #6d92ab" d="m658 493.3v-3h31.4v3z"/>
	<path id="Forma 289" style="fill: #6d92ab" d="m727.4 342.3h3v92.2h-3z"/>
	<path id="Forma 290" style="fill: #6d92ab" d="m720.6 331.9h3v11.6h-3z"/>
	<path id="Forma 291" style="fill: #6d92ab" d="m721 344.3v-3h22.2v3z"/>
	<path id="Forma 292" style="fill: #6d92ab" d="m744 343.2h-3v-10.9h3z"/>
	<path id="Forma 293" style="fill: #6d92ab" d="m780.1 331.6h3v11.4h-3z"/>
	<path id="Forma 294" style="fill: #6d92ab" d="m780.7 343.4v-3h19.6v3z"/>
	<path id="Forma 295" style="fill: #6d92ab" d="m801.4 343.1h-3v-12.9h3z"/>
	<path id="Forma 296" style="fill: #6d92ab" d="m837 330.6h3v11.5h-3z"/>
	<path id="Forma 297" style="fill: #6d92ab" d="m837.2 343.4l0.1-3 86.2 1.4v3z"/>
	<path id="Forma 298" style="fill: #6d92ab" d="m923.4 344.8l0.2-3 63.1 4.1-0.1 2.9z"/>
	<path id="Forma 299" style="fill: #6d92ab" d="m987.3 347.5h-3l0.1-10.1h3z"/>
	<path id="Forma 300" style="fill: #6d92ab" d="m839.6 335.2l0.1-3 103.9 1.9-0.1 3z"/>
	<path id="Forma 301" style="fill: #6d92ab" d="m942.1 337.1l0.2-3 50.5 2.4-0.1 3z"/>
	<path id="Forma 302" style="fill: #6d92ab" d="m991.1 337.8l3-0.2 0.3 6.6-3 0.1z"/>
	<path id="Forma 303" style="fill: #6d92ab" d="m1021 345.4l-2.7-1.1 2-5.2 2.8 1.1z"/>
	<path id="Forma 304" style="fill: #6d92ab" d="m1021 341.3l0.2-3 29.2 1.9-0.2 3z"/>
	<path id="Forma 305" style="fill: #6d92ab" d="m1048.8 342.1l2.9-0.8 1.4 5.1-2.9 0.7z"/>
	<path id="Forma 306" style="fill: #6d92ab" d="m1079.9 349.5l-2.2-1.9 3.8-4.5 2.3 2z"/>
	<path id="Forma 307" style="fill: #6d92ab" d="m1081.2 345.3l0.3-3 52.6 5.9-0.3 3z"/>
	<path id="Forma 308" style="fill: #6d92ab" d="m1132.7 350.9l0.4-3 81.4 9.9-0.3 2.9z"/>
	<path id="Forma 309" style="fill: #6d92ab" d="m1216.3 360.5l-3-0.1 0.5-17.8h3z"/>
	<path id="Forma 310" style="fill: #6d92ab" d="m1215.4 344.2l0.3-2.9 94.6 11.5-0.4 3z"/>
	<path id="Forma 311" style="fill: #6d92ab" d="m1308.4 355.5l0.4-2.9 8.8 1.3-0.5 3z"/>
	<path id="Forma 312" style="fill: #6d92ab" d="m1315.9 355.1l2.9 0.5-0.8 5.1-3-0.5z"/>
	<path id="Forma 313" style="fill: #6d92ab" d="m1336.3 361.1l-3-0.2 0.3-3.7 3 0.2z"/>
	<path id="Forma 314" style="fill: #6d92ab" d="m1334.9 358.6l0.6-2.9 20.2 3.7-0.6 3z"/>
	<path id="Forma 315" style="fill: #6d92ab" d="m1353.9 360.5l3 0.4-0.6 4.1-3-0.5z"/>
	<path id="Forma 316" style="fill: #6d92ab" d="m1372.8 365.5l0.6-3 98.5 19.6-0.5 3z"/>
	<path id="Forma 317" style="fill: #6d92ab" d="m1486.2 389.4l0.9-2.9 73.7 22.1-0.8 2.9z"/>
	<path id="Forma 318" style="fill: #6d92ab" d="m1575.4 417.4l1.2-2.8 45 18.5-1.1 2.7z"/>
	<path id="Forma 319" style="fill: #6d92ab" d="m851.7 482.8h3v118.8h-3z"/>
	<path id="Forma 320" style="fill: #6d92ab" d="m854.5 484.3l-2.5-1.6 3.3-5.1 2.6 1.6z"/>
	<path id="Forma 321" style="fill: #6d92ab" d="m855.9 479.9v-3h48v3z"/>
	<path id="Forma 322" style="fill: #6d92ab" d="m902.4 477.5h3v8.7h-3z"/>
	<path id="Forma 323" style="fill: #6d92ab" d="m903.7 484.7v3h-18.1v-3z"/>
	<path id="Forma 324" style="fill: #6d92ab" d="m884.5 484.7l2.2 2.1-28.2 28.1-2.1-2.1z"/>
	<path id="Forma 325" style="fill: #6d92ab" d="m856.9 514.7h3v87.5h-3z"/>
	<path id="Forma 326" style="fill: #6d92ab" d="m852 600.1l3 0.2-0.3 5.8-2.9-0.2z"/>
	<path id="Forma 327" style="fill: #6d92ab" d="m851.6 605.4l2.1-2.1 3.1 3.1-2.1 2.1z"/>
	<path id="Forma 328" style="fill: #6d92ab" d="m854.8 608.4v-3h20.6v3z"/>
	<path id="Forma 329" style="fill: #6d92ab" d="m875.1 608.3l-2.2-2.1 5.5-5.5 2.1 2.2z"/>
	<path id="Forma 330" style="fill: #6d92ab" d="m880.7 602.9h-3v-7.1h3z"/>
	<path id="Forma 331" style="fill: #6d92ab" d="m857.2 603.9v-3h16.7v3z"/>
	<path id="Forma 332" style="fill: #6d92ab" d="m873.8 604.1l-1.9-2.3 16.5-14.4 2 2.2z"/>
	<path id="Forma 333" style="fill: #6d92ab" d="m889.2 591l-2.2-2.1 13.5-14.3 2.2 2.1z"/>
	<path id="Forma 334" style="fill: #6d92ab" d="m902.5 576.6h-3v-19.7h3z"/>
	<path id="Forma 335" style="fill: #6d92ab" d="m902.6 558h-3v-26.8h3z"/>
	<path id="Forma 336" style="fill: #6d92ab" d="m902.4 485.5h3v42.7h-3z"/>
	<path id="Forma 337" style="fill: #6d92ab" d="m903 533.2l-2.8-1.2 2.3-5.6 2.8 1.2z"/>
	<path id="Forma 338" style="fill: #6d92ab" d="m904.6 519.6l-2.7 1.3-15.4-33.6 2.7-1.3z"/>
	<path id="Forma 339" style="fill: #6d92ab" d="m904.8 525.9l-2.1 2.2-29.2-28.3 2.1-2.2z"/>
	<path id="Forma 340" style="fill: #6d92ab" d="m903 529l-1.2 2.8-42.4-18.5 1.2-2.7z"/>
	<path id="Forma 341" style="fill: #6d92ab" d="m901.3 528.3l-0.1 3-42.7-1.1 0.1-3z"/>
	<path id="Forma 342" style="fill: #6d92ab" d="m901.6 539.3v3h-42.6v-3z"/>
	<path id="Forma 343" style="fill: #6d92ab" d="m900.3 552.1v3h-40.9v-3z"/>
	<path id="Forma 344" style="fill: #6d92ab" d="m859.6 556.7l1.2-2.7 40.3 18.7-1.2 2.7z"/>
	<path id="Forma 345" style="fill: #6d92ab" d="m858.3 556.6l2.2-2.1 30.3 31.2-2.1 2.1z"/>
	<path id="Forma 346" style="fill: #6d92ab" d="m858 564.1l2.8-1.2 14.6 35.7-2.7 1.1z"/>
	<path id="Forma 347" style="fill: #6d92ab" d="m876.3 599.7l-2.6 1.5-2.1-3.7 2.6-1.5z"/>
	<path id="Forma 348" style="fill: #6d92ab" d="m852 358.5h-3v-16.7h3z"/>
	<path id="Forma 349" style="fill: #6d92ab" d="m850.2 351.2v-3h51.7v3z"/>
	<path id="Forma 350" style="fill: #6d92ab" d="m898.7 343.1h3v90.1h-3z"/>
	<path id="Forma 351" style="fill: #6d92ab" d="m945.2 344.2h3v176.9h-3z"/>
	<path id="Forma 352" style="fill: #6d92ab" d="m946 563.8h3v35.9h-3z"/>
	<path id="Forma 353" style="fill: #6d92ab" d="m947 598.2h3v27.1h-3z"/>
	<path id="Forma 354" style="fill: #6d92ab" d="m947.2 626.1v-3h6.9v3z"/>
	<path id="Forma 355" style="fill: #6d92ab" d="m950.9 623.9h3v8.1h-3z"/>
	<path id="Forma 356" style="fill: #6d92ab" d="m952.2 630.4l2.1 2.1-9.6 9.7-2.2-2.1z"/>
	<path id="Forma 357" style="fill: #6d92ab" d="m945.9 639.3l-2.2 2.1-11.4-11.5 2.1-2.1z"/>
	<path id="Forma 358" style="fill: #6d92ab" d="m934.6 627.4v3h-18.7v-3z"/>
	<path id="Forma 359" style="fill: #6d92ab" d="m916.1 626.6l2.2 2.1-13.4 13.6-2.2-2.1z"/>
	<path id="Forma 360" style="fill: #6d92ab" d="m902.9 639.9h3v87.5h-3z"/>
	<path id="Forma 361" style="fill: #6d92ab" d="m902.8 726.7h3v15.3h-3z"/>
	<path id="Forma 362" style="fill: #6d92ab" d="m855.7 741.4h-3v-56.8h3z"/>
	<path id="Forma 363" style="fill: #6d92ab" d="m854 728.1v-3h51.6v3z"/>
	<path id="Forma 364" style="fill: #6d92ab" d="m919.8 665.2l-2.1 2.1-14.6-14.6 2.1-2.1z"/>
	<path id="Forma 365" style="fill: #6d92ab" d="m918.6 664.2l2.1 2.1-15.3 15.3-2.1-2.1z"/>
	<path id="Forma 366" style="fill: #6d92ab" d="m903.7 686.3l2.1-2.1 43.8 43.8-2.1 2.1z"/>
	<path id="Forma 367" style="fill: #6d92ab" d="m948.7 729.7l-2.1-2.1 18.2-18.2 2.1 2.1z"/>
	<path id="Forma 368" style="fill: #6d92ab" d="m932.4 712.9l-2.1-2.1 17-16.9 2.1 2.1z"/>
	<path id="Forma 369" style="fill: #6d92ab" d="m963.4 713.6v-3h15.9v3z"/>
	<path id="Forma 370" style="fill: #6d92ab" d="m976.4 710.7h3v28.6h-3z"/>
	<path id="Forma 371" style="fill: #6d92ab" d="m1098.4 728.4h-3v-14.7h3z"/>
	<path id="Forma 372" style="fill: #6d92ab" d="m973.5 346.3h3v26.2h-3z"/>
	<path id="Forma 373" style="fill: #6d92ab" d="m1025.2 340.3h3v9.2h-3z"/>
	<path id="Forma 374" style="fill: #6d92ab" d="m1025.8 351.3l0.3-3 18.9 1.7-0.2 3z"/>
	<path id="Forma 375" style="fill: #6d92ab" d="m1046.3 352.1h-3v-10.6h3z"/>
	<path id="Forma 376" style="fill: #6d92ab" d="m1084.8 344.7h3v11.8h-3z"/>
	<path id="Forma 377" style="fill: #6d92ab" d="m1085 356.1l0.4-2.9 40.8 5.8-0.4 3z"/>
	<path id="Forma 378" style="fill: #6d92ab" d="m1092.7 355.9h3v16.1h-3z"/>
	<path id="Forma 379" style="fill: #6d92ab" d="m1122.3 349h3v57.1h-3z"/>
	<path id="Forma 380" style="fill: #6d92ab" d="m1124.4 361.1l0.5-3 92.1 13.6-0.5 2.9z"/>
	<path id="Forma 381" style="fill: #6d92ab" d="m1213.4 373.4h3v340.2h-3z"/>
	<path id="Forma 382" style="fill: #6d92ab" d="m1215.9 709.8l0.5 2.9-40.2 7-0.5-3zm-41.1 6.9h3l-0.2 9.4-3-0.1z"/>
	<path id="Forma 383" style="fill: #6d92ab" d="m1169.4 726.6l2.5-1.7 3.1 4.5-2.4 1.7z"/>
	<path id="Forma 384" style="fill: #6d92ab" d="m1173.4 731.9l-0.6-3 39.4-7.6 0.6 2.9z"/>
	<path id="Forma 385" style="fill: #6d92ab" d="m1129.8 724.7h-3v-47.5h3z"/>
	<path id="Forma 386" style="fill: #6d92ab" d="m1128.1 635.2l-2.1-2.1 14.1-14.1 2.1 2.1z"/>
	<path id="Forma 387" style="fill: #6d92ab" d="m1141.5 621h-3v-158.6h3z"/>
	<path id="Forma 388" style="fill: #6d92ab" d="m1141.7 462.3l-2.2 2.1-11.1-11.1 2.1-2.2z"/>
	<path id="Forma 389" style="fill: #6d92ab" d="m1120 453.5v-3h10.6v3z"/>
	<path id="Forma 390" style="fill: #6d92ab" d="m1122.4 634.1v-3h6.8v3z"/>
	<path id="Forma 391" style="fill: #6d92ab" d="m1124.3 633.2h-3v-10.8h3z"/>
	<path id="Forma 392" style="fill: #6d92ab" d="m1118.7 450.6h3v10h-3z"/>
	<path id="Forma 393" style="fill: #6d92ab" d="m1139.7 492.5v-3h75.4v3z"/>
	<path id="Forma 394" style="fill: #6d92ab" d="m1189.7 461.2v-3h24.8v3z"/>
	<path id="Forma 395" style="fill: #6d92ab" d="m1188.3 400.6v-3h26.8v3z"/>
	<path id="Forma 396" style="fill: #6d92ab" d="m1217.5 352.2h3v49.1h-3z"/>
	<path id="Forma 397" style="fill: #6d92ab" d="m1218.7 401.1v-3h27.7v3z"/>
	<path id="Forma 398" style="fill: #6d92ab" d="m1244.4 401l1.1-2.8 18.4 7.7-1.2 2.7z"/>
	<path id="Forma 399" style="fill: #6d92ab" d="m1261.3 407.4l2.2-2 17 18.6-2.3 2z"/>
	<path id="Forma 400" style="fill: #6d92ab" d="m1251.5 456.3h-3v-5.3h3z"/>
	<path id="Forma 401" style="fill: #6d92ab" d="m1251.4 449.9l-2.2 2.1-10.4-10.4 2.1-2.1z"/>
	<path id="Forma 402" style="fill: #6d92ab" d="m1239.6 439.3v3h-21.2v-3z"/>
	<path id="Forma 403" style="fill: #6d92ab" d="m1217 439h3v291.5h-3z"/>
	<path id="Forma 404" style="fill: #6d92ab" d="m1219.3 353.8l0.4-3 86.3 10.7-0.3 3z"/>
	<path id="Forma 405" style="fill: #6d92ab" d="m1303.5 354.3h3v35.3h-3z"/>
	<path id="Forma 406" style="fill: #6d92ab" d="m1304.9 387.3l1.9 2.3-3.7 3.2-1.9-2.2z"/>
	<path id="Forma 407" style="fill: #6d92ab" d="m1250.2 457.4h3v61.5h-3z"/>
	<path id="Forma 408" style="fill: #6d92ab" d="m1256.1 520.3h3v32.4h-3z"/>
	<path id="Forma 409" style="fill: #6d92ab" d="m1218.4 554.7v-3h40v3z"/>
	<path id="Forma 410" style="fill: #6d92ab" d="m1252.6 479.8v-3h35.3v3z"/>
	<path id="Forma 411" style="fill: #6d92ab" d="m1252.2 469.3v-3h34.8v3z"/>
	<path id="Forma 412" style="fill: #6d92ab" d="m1251.5 458.2v-3h35.2v3z"/>
	<path id="Forma 413" style="fill: #6d92ab" d="m1252.2 456.2l-1-2.8 34.2-13.1 1 2.8z"/>
	<path id="Forma 414" style="fill: #6d92ab" d="m1252.2 452.9l-2.1-2.1 26.2-25.9 2.2 2.1z"/>
	<path id="Forma 415" style="fill: #6d92ab" d="m1244.2 444.2l-2.1-2.1 27.2-26.6 2.1 2.1z"/>
	<path id="Forma 416" style="fill: #6d92ab" d="m1243.5 442.2l-2.8-1.1 14-35.7 2.8 1.1z"/>
	<path id="Forma 417" style="fill: #6d92ab" d="m1242.5 441.7h-3v-41.5h3z"/>
	<path id="Forma 418" style="fill: #6d92ab" d="m1231 440.8h-3v-40.4h3z"/>
	<path id="Forma 419" style="fill: #6d92ab" d="m1222.7 440h-3v-39.6h3z"/>
	<path id="Forma 420" style="fill: #6d92ab" d="m1276.5 427.2l2.4-1.8 5.8 8.3-2.5 1.7z"/>
	<path id="Forma 421" style="fill: #6d92ab" d="m1282.1 435.1l2.7-1.2 2.7 6.2-2.8 1.2z"/>
	<path id="Forma 422" style="fill: #6d92ab" d="m1284.6 440l2.9-0.5 1.8 10.9-2.9 0.5z"/>
	<path id="Forma 423" style="fill: #6d92ab" d="m1286.1 449.8h3v41.4h-3z"/>
	<path id="Forma 424" style="fill: #6d92ab" d="m1286.4 491.5l2.4-1.8 2.2 2.8-2.4 1.8z"/>
	<path id="Forma 425" style="fill: #6d92ab" d="m1288.5 494.1l1.6-2.5 2.8 1.8-1.6 2.5z"/>
	<path id="Forma 426" style="fill: #6d92ab" d="m1291.3 495.9v-3l2.9 0.1-0.1 3z"/>
	<path id="Forma 427" style="fill: #6d92ab" d="m1293.9 496.3l-0.4-3 2.6-0.4 0.4 3z"/>
	<path id="Forma 428" style="fill: #6d92ab" d="m1296.7 495.9l-1.3-2.7 2.8-1.3 1.2 2.7z"/>
	<path id="Forma 429" style="fill: #6d92ab" d="m1300.1 493.8h-3v-3.1h3z"/>
	<path id="Forma 430" style="fill: #6d92ab" d="m1382.7 397.4h-3v-26h3z"/>
	<path id="Forma 431" style="fill: #6d92ab" d="m1380.8 375.6l0.7-2.9 32.1 7.8-0.7 3z"/>
	<path id="Forma 432" style="fill: #6d92ab" d="m1411.3 372.1h3v144.9h-3z"/>
	<path id="Forma 433" style="fill: #6d92ab" d="m1416.3 522.5v-3h44.3v3z"/>
	<path id="Forma 434" style="fill: #6d92ab" d="m1410.3 517.2l2.2-2 2.3 2.5-2.2 2z"/>
	<path id="Forma 435" style="fill: #6d92ab" d="m1412.3 519.7l1.7-2.5 2.8 2-1.7 2.5z"/>
	<path id="Forma 436" style="fill: #6d92ab" d="m1413.6 521.5l1.1-2.8 4.4 1.6-1 2.9z"/>
	<path id="Forma 437" style="fill: #6d92ab" d="m1415.6 374.4h3v143.1h-3z"/>
	<path id="Forma 438" style="fill: #6d92ab" d="m1417.6 518v-3h42.5v3z"/>
	<path id="Forma 439" style="fill: #6d92ab" d="m1417.6 482.3v-3h40.4v3z"/>
	<path id="Forma 440" style="fill: #6d92ab" d="m1416.8 431.3v-3h19.2v3z"/>
	<path id="Forma 441" style="fill: #6d92ab" d="m1418 382.2l0.7-2.9 42 10.1-0.7 2.9z"/>
	<path id="Forma 442" style="fill: #6d92ab" d="m1458.6 381h3v26h-3z"/>
	<path id="Forma 443" style="fill: #6d92ab" d="m1497.5 392.1h3v27.6h-3z"/>
	<path id="Forma 444" style="fill: #6d92ab" d="m1498.5 401.4l0.9-2.9 42.8 13.7-0.9 2.8z"/>
	<path id="Forma 445" style="fill: #6d92ab" d="m1539 404h3v88.8h-3z"/>
	<path id="Forma 446" style="fill: #6d92ab" d="m1541.2 490v3h-40.9v-3z"/>
	<path id="Forma 447" style="fill: #6d92ab" d="m1499.8 489.1l1.9 2.2-3.7 3.3-2-2.2z"/>
	<path id="Forma 448" style="fill: #6d92ab" d="m1496.5 491.7h3v30.1h-3z"/>
	<path id="Forma 449" style="fill: #6d92ab" d="m1495.9 521.4l2.6-1.5 11 18.6-2.6 1.5z"/>
	<path id="Forma 450" style="fill: #6d92ab" d="m1506.7 539.5v-3h35.8v3z"/>
	<path id="Forma 451" style="fill: #6d92ab" d="m1543.4 538.7h-3v-10.4h3z"/>
	<path id="Forma 452" style="fill: #6d92ab" d="m1540.7 414.6l1.2-2.8 10.1 4.3-1.2 2.8zm9.1-7l3-0.1 0.2 11.4h-3z"/>
	<path id="Forma 453" style="fill: #6d92ab" d="m1584.1 420.2h3v10.1h-3z"/>
	<path id="Forma 454" style="fill: #6d92ab" d="m1583.5 429.3l1.3-2.7 32.4 14.4-1.2 2.7z"/>
	<path id="Forma 455" style="fill: #6d92ab" d="m1590.5 427.9h3v43.5h-3z"/>
	<path id="Forma 456" style="fill: #6d92ab" d="m1615.5 490.2v3h-6.6v-3z"/>
	<path id="Forma 457" style="fill: #6d92ab" d="m1614.2 441.1h3v52.4h-3z"/>
	<path id="Forma 458" style="fill: #6d92ab" d="m1616.2 527.3v3h-34.6v-3z"/>
	<path id="Forma 460" style="fill: #6d92ab" d="m1293.7 535.2h3v35.4h-3z"/>
	<path id="Forma 556" style="fill: #6d92ab" d="m168.7 573.7v-3h75.9v3z"/>
	<path id="Forma 557" style="fill: #6d92ab" d="m167 570.7h3v46.2h-3z"/>
	<path id="Forma 558" style="fill: #6d92ab" d="m167.1 618.3v-3h106.3v3z"/>
	<path id="Forma 559" style="fill: #6d92ab" d="m242.4 543.1h3v74.2h-3z"/>
	<path id="Forma 560" style="fill: #6d92ab" d="m243 544.7v-3h30v3z"/>
	<path id="Forma 461" style="fill: #6d92ab" d="m1296.4 573.1v-3h72.6v3z"/>
	<path id="Forma 462" style="fill: #6d92ab" d="m1370.5 572.2h-3v-37h3z"/>
	<path id="Forma 463" style="fill: #6d92ab" d="m1293.5 570.4l1.8-2.4 3.6 2.6-1.8 2.4z"/>
	<path id="Forma 464" style="fill: #6d92ab" d="m1335.7 570.8h-3v-33.4h3z"/>
	<path id="Forma 465" style="fill: #6d92ab" d="m1369 560.8v-3h103.9v3z"/>
	<path id="Forma 466" style="fill: #6d92ab" d="m1369.3 536.5l2-2.2 20.5 18-1.9 2.2z"/>
	<path id="Forma 467" style="fill: #6d92ab" d="m1388.1 550.8h3v8.5h-3z"/>
	<path id="Forma 468" style="fill: #6d92ab" d="m1386 559h3v46.5h-3z"/>
	<path id="Forma 469" style="fill: #6d92ab" d="m1386.1 607.1v-3h9.9v3z"/>
	<path id="Forma 470" style="fill: #6d92ab" d="m1386.8 599.6v3h-15.9v-3z"/>
	<path id="Forma 471" style="fill: #6d92ab" d="m1372.7 601l-2.3 1.9-3.6-4.6 2.4-1.8z"/>
	<path id="Forma 472" style="fill: #6d92ab" d="m1433.7 560h3v46.4h-3z"/>
	<path id="Forma 473" style="fill: #6d92ab" d="m1433.5 607.9v-3h36.7v3z"/>
	<path id="Forma 474" style="fill: #6d92ab" d="m1468.6 604.6h3v86.9h-3z"/>
	<path id="Forma 475" style="fill: #6d92ab" d="m1503 605.5h3v72.6h-3z"/>
	<path id="Forma 476" style="fill: #6d92ab" d="m1385.4 644.2h3v65.3h-3z"/>
	<path id="Forma 477" style="fill: #6d92ab" d="m1334 668h3v46.3h-3z"/>
	<path id="Forma 478" style="fill: #6d92ab" d="m1220.1 728.6l-0.5-2.9 23.7-3.6 0.4 3z"/>
	<path id="Forma 479" style="fill: #6d92ab" d="m1241.8 721.6h3v12.6h-3z"/>
	<path id="Forma 480" style="fill: #6d92ab" d="m1215.9 739.5l-0.4-3 36.4-4.7 0.4 3z"/>
	<path id="Forma 481" style="fill: #6d92ab" d="m1254 733.6l-2.9 0.6-0.8-3.8 2.9-0.6z"/>
	<path id="Forma 482" style="fill: #6d92ab" d="m1270.4 731.8l-3 0.5-0.6-4 3-0.5z"/>
	<path id="Forma 483" style="fill: #6d92ab" d="m1269.3 733.2l-0.4-2.9 27.7-4.3 0.5 2.9z"/>
	<path id="Forma 484" style="fill: #6d92ab" d="m1297.3 727.6l-3 0.4-0.6-4.3 2.9-0.4z"/>
	<path id="Forma 485" style="fill: #6d92ab" d="m1311.4 723.1l2.2-2 4 4.3-2.2 2z"/>
	<path id="Forma 486" style="fill: #6d92ab" d="m1316 727.4l-0.6-3 88.2-15.6 0.5 3z"/>
	<path id="Forma 487" style="fill: #6d92ab" d="m1406.2 710l-2.8 1.2-1.8-4 2.7-1.2z"/>
	<path id="Forma 488" style="fill: #6d92ab" d="m1424.7 706l-3 0.6-0.7-4.3 2.9-0.6z"/>
	<path id="Forma 489" style="fill: #6d92ab" d="m1422.9 708.2l-0.7-2.9 44.5-10.7 0.7 2.9z"/>
	<path id="Forma 490" style="fill: #6d92ab" d="m1467.5 697.5l-0.9-2.9 53.7-15.8 0.8 2.9z"/>
	<path id="Forma 491" style="fill: #6d92ab" d="m1521.2 681.6l-1-2.8 6.6-2.3 1 2.8z"/>
	<path id="Forma 492" style="fill: #6d92ab" d="m1529.4 678.4l-2.9 0.9-1.2-4.3 2.8-0.9z"/>
	<path id="Forma 493" style="fill: #6d92ab" d="m1547.1 672.8l-3 0.4-0.6-3.9 2.9-0.5z"/>
	<path id="Forma 494" style="fill: #6d92ab" d="m1546.3 674.4l-1.1-2.8 38.3-15.2 1.1 2.8z"/>
	<path id="Forma 495" style="fill: #6d92ab" d="m1586.1 657.3l-2.3 2-2.9-3.6 2.3-1.9z"/>
	<path id="Forma 496" style="fill: #6d92ab" d="m1603.4 650.5l-2.8 1.2-1.7-4 2.8-1.2z"/>
	<path id="Forma 497" style="fill: #6d92ab" d="m1602 652.6l-1.3-2.7 19.4-9.2 1.3 2.7z"/>
	<path id="Forma 498" style="fill: #6d92ab" d="m1277.2 729.4h-3v-10.6h3z"/>
	<path id="Forma 499" style="fill: #6d92ab" d="m1275.1 721.1l-0.5-3 12-1.9 0.5 3z"/>
	<path id="Forma 500" style="fill: #6d92ab" d="m1285.1 716.4h3v12h-3z"/>
	<path id="Forma 501" style="fill: #6d92ab" d="m1321.1 715.2l-0.5-2.9 52.9-8.7 0.5 3z"/>
	<path id="Forma 502" style="fill: #6d92ab" d="m1373.7 706.6l-0.5-3 22.9-4.2 0.5 3z"/>
	<path id="Forma 503" style="fill: #6d92ab" d="m1394.3 700l3 0.1-0.3 11.2-3-0.1z"/>
	<path id="Forma 504" style="fill: #6d92ab" d="m1319.3 712.3l3-0.2 0.7 13.3-3 0.1z"/>
	<path id="Forma 505" style="fill: #6d92ab" d="m1432.4 704.7l-3-0.1 0.2-12.7 3 0.1z"/>
	<path id="Forma 506" style="fill: #6d92ab" d="m1431.4 695l-0.6-3 29.5-6 0.6 3z"/>
	<path id="Forma 507" style="fill: #6d92ab" d="m1460 689.3l-0.8-2.8 28.5-8.3 0.8 2.9z"/>
	<path id="Forma 508" style="fill: #6d92ab" d="m1488.1 681.1l-0.9-2.9 31.7-9.9 0.9 2.9z"/>
	<path id="Forma 509" style="fill: #6d92ab" d="m1517.3 669.1h3v11.4h-3z"/>
	<path id="Forma 510" style="fill: #6d92ab" d="m1556.3 669.5h-3v-12.2h3z"/>
	<path id="Forma 511" style="fill: #6d92ab" d="m1555.6 659.7l-1.2-2.8 20.6-9.2 1.3 2.8z"/>
	<path id="Forma 512" style="fill: #6d92ab" d="m1574.1 648.7h3v11.4h-3z"/>
	<path id="Forma 513" style="fill: #6d92ab" d="m1609.6 647.7h-3v-11.7h3z"/>
	<path id="Forma 514" style="fill: #6d92ab" d="m1608.5 638.2l-1.6-2.6 8.8-5.5 1.6 2.5z"/>
	<path id="Forma 515" style="fill: #6d92ab" d="m1617.6 632.3h-3v-140.1h3z"/>
	<path id="Forma 516" style="fill: #6d92ab" d="m1619 398.4h3v281.5h-3z"/>
	<path id="Forma 517" style="fill: #6d92ab" d="m1166.3 334.9l0.2-3 159.8 9.2-0.2 3z"/>
	<path id="Forma 518" style="fill: #6d92ab" d="m1324.9 344.1l0.2-3 86.8 8.6-0.2 3z"/>
	<path id="Forma 519" style="fill: #6d92ab" d="m1409.8 352.9l0.4-3 37 5.2-0.4 3z"/>
	<path id="Forma 520" style="fill: #6d92ab" d="m1446.7 358.1l0.6-3 53.8 9.6-0.6 3z"/>
	<path id="Forma 521" style="fill: #6d92ab" d="m1500.5 367.6l0.6-2.9 32.4 7-0.6 2.9z"/>
	<path id="Forma 522" style="fill: #6d92ab" d="m1532.8 374.6l0.8-2.9 31.8 8.2-0.8 2.9z"/>
	<path id="Forma 523" style="fill: #6d92ab" d="m1564.6 382.8l0.8-2.9 41.6 12.4-0.8 2.9z"/>
	<path id="Forma 524" style="fill: #6d92ab" d="m1604.7 394.6l1-2.8 52.6 20.6-1 2.8z"/>
	<path id="Forma 525" style="fill: #6d92ab" d="m1657.2 415.2l1.2-2.8 38.8 16.8-1.2 2.8z"/>
	<path id="Forma 526" style="fill: #6d92ab" d="m1695.9 431.9l1.4-2.6 29.4 15.4-1.4 2.6z"/>
	<path id="Forma 527" style="fill: #6d92ab" d="m1725.3 447.3l1.4-2.6 30.4 17.4-1.4 2.6z"/>
	<path id="Forma 528" style="fill: #6d92ab" d="m1755 464l1.6-2.5 31.2 21.2-1.6 2.5z"/>
	<path id="Forma 529" style="fill: #6d92ab" d="m1786.1 485.2l1.8-2.4 39 29-1.8 2.4z"/>
	<path id="Forma 530" style="fill: #6d92ab" d="m1824.9 514l2.2-2.1 11 11.6-2.2 2.1z"/>
	<path id="Forma 531" style="fill: #6d92ab" d="m1834.1 523.3l2.7-1.2 3 6.2-2.8 1.3z"/>
	<path id="Forma 532" style="fill: #6d92ab" d="m1836.9 529.3l3-0.6 1.2 6.8-2.9 0.6z"/>
	<path id="Forma 533" style="fill: #6d92ab" d="m1837.9 534.9h3l0.1 8h-3z"/>
	<path id="Forma 534" style="fill: #6d92ab" d="m1838.8 541.9l2.8 1.1-2.1 5.5-2.8-1z"/>
	<path id="Forma 535" style="fill: #6d92ab" d="m1837.2 547l2.5 1.6-3.4 5.3-2.5-1.7z"/>
	<path id="Forma 536" style="fill: #6d92ab" d="m1834.7 551.6l2.3 1.9-5.6 6.8-2.3-1.9z"/>
	<path id="Forma 537" style="fill: #6d92ab" d="m1830.3 557.5l1.8 2.4-6.9 5.2-1.8-2.4z"/>
	<path id="Forma 538" style="fill: #6d92ab" d="m1824.3 561.9l1.9 2.4-14 11-1.9-2.3z"/>
	<path id="Forma 539" style="fill: #6d92ab" d="m1810.6 572.4l1.9 2.4-14.4 11.5-1.9-2.4z"/>
	<path id="Forma 540" style="fill: #6d92ab" d="m1796.9 583.6l1.7 2.4-19.3 13.8-1.7-2.5z"/>
	<path id="Forma 541" style="fill: #6d92ab" d="m1778.2 596.6l1.7 2.5-23.9 16.7-1.7-2.5z"/>
	<path id="Forma 542" style="fill: #6d92ab" d="m1754.9 612.7l1.5 2.6-24.7 14.4-1.5-2.6z"/>
	<path id="Forma 543" style="fill: #6d92ab" d="m1730.6 626.6l1.5 2.6-29.2 16.3-1.5-2.6z"/>
	<path id="Forma 544" style="fill: #6d92ab" d="m1702 642.5l1.3 2.7-33 16.1-1.3-2.7z"/>
	<path id="Forma 545" style="fill: #6d92ab" d="m1669.9 658.1l1.1 2.8-32.8 13.3-1.1-2.8z"/>
	<path id="Forma 546" style="fill: #6d92ab" d="m1638.1 671.5l1.1 2.8-21.4 8-1-2.8z"/>
	<path id="Forma 547" style="fill: #6d92ab" d="m1617.8 679l0.9 2.9-26.9 8.9-1-2.9z"/>
	<path id="Forma 548" style="fill: #6d92ab" d="m1594.2 687.2l0.9 2.8-40.5 12.3-0.9-2.9z"/>
	<path id="Forma 549" style="fill: #6d92ab" d="m1554.7 699.1l0.7 2.9-35.7 9.2-0.7-2.9z"/>
	<path id="Forma 550" style="fill: #6d92ab" d="m1519.9 708.1l0.7 2.9-25.6 6.1-0.7-2.9z"/>
	<path id="Forma 551" style="fill: #6d92ab" d="m1495.3 713.9l0.6 3-36.4 7.2-0.5-3z"/>
	<path id="Forma 552" style="fill: #6d92ab" d="m1460.3 721.1l0.4 2.9-29.1 4.4-0.4-2.9z"/>
	<path id="Forma 553" style="fill: #6d92ab" d="m1432.1 724.8l0.4 3-46.4 6.7-0.4-3z"/>
	<path id="Forma 554" style="fill: #6d92ab" d="m1386.8 731.2l0.4 2.9-42.8 5.3-0.4-2.9z"/>
	<path id="Forma 555" style="fill: #6d92ab" d="m1344.8 736.3l0.2 3-41.1 3.5-0.3-3z"/>
	<path id="Forma 1" style="fill: #6d92ab" d="m31.8 544.7l-2.8-1.1 5.9-15.2 2.8 1z"/>
	<path id="Forma 2" style="fill: #6d92ab" d="m37.6 529.5l-2.7-1.2 9.4-20.4 2.8 1.3z"/>
	<path id="Forma 3" style="fill: #6d92ab" d="m47 509.3l-2.6-1.5 10.5-18.1 2.6 1.5z"/>
	<path id="Forma 4" style="fill: #6d92ab" d="m57.4 491.3l-2.5-1.7 10.2-14.6 2.5 1.7z"/>
	<path id="Forma 5" style="fill: #6d92ab" d="m67 476.8l-2.3-1.9 8.3-10 2.3 2z"/>
	<path id="Forma 6" style="fill: #6d92ab" d="m75.3 466.9l-2.2-2 11.7-12.8 2.2 2.1z"/>
	<path id="Forma 7" style="fill: #6d92ab" d="m86.9 454.2l-2.1-2.1 11.9-12.2 2.2 2.1z"/>
	<path id="Forma 8" style="fill: #6d92ab" d="m98.7 442.2l-1.9-2.4 14.3-11.6 1.9 2.3z"/>
	<path id="Forma 9" style="fill: #6d92ab" d="m112.6 430.9l-1.8-2.4 13.6-10.5 1.9 2.4z"/>
	<path id="Forma 10" style="fill: #6d92ab" d="m126.1 420.5l-1.6-2.6 18.5-11.5 1.6 2.5z"/>
	<path id="Forma 11" style="fill: #6d92ab" d="m144.5 409l-1.4-2.7 19.3-9.8 1.4 2.6z"/>
	<path id="Forma 12" style="fill: #6d92ab" d="m163.6 399.4l-1.3-2.7 19.6-9.2 1.2 2.7z"/>
	<path id="Forma 13" style="fill: #6d92ab" d="m182.3 390.4l-1-2.8 23.2-7.9 1 2.8z"/>
	<path id="Forma 14" style="fill: #6d92ab" d="m205.4 382.5l-0.9-2.8 28.9-8.6 0.8 2.9z"/>
	<path id="Forma 15" style="fill: #6d92ab" d="m234.1 374l-0.6-3 19.9-4.4 0.6 3z"/>
	<path id="Forma 16" style="fill: #6d92ab" d="m253.7 369.9l-0.6-3 33-6.4 0.5 2.9z"/>
	<path id="Forma 17" style="fill: #6d92ab" d="m285.9 363.4l-0.6-2.9 36.9-6.5 0.6 2.9z"/>
	<path id="Forma 18" style="fill: #6d92ab" d="m322.6 357l-0.4-3 35.9-4.2 0.3 2.9z"/>
	<path id="Forma 19" style="fill: #6d92ab" d="m357.9 353.4l-0.3-3 36.9-3.8 0.3 3z"/>
	<path id="Forma 20" style="fill: #6d92ab" d="m394.1 349.5l-0.2-3 25.6-1.9 0.2 3z"/>
	<path id="Forma 21" style="fill: #6d92ab" d="m419.1 347.5l-0.3-3 42.7-3.8 0.3 2.9z"/>
	<path id="Forma 22" style="fill: #6d92ab" d="m461.6 343.8l-0.2-3 39.9-2.4 0.2 3z"/>
	<path id="Forma 23" style="fill: #6d92ab" d="m501 341.4l-0.2-3 56.1-2.2 0.1 3z"/>
	<path id="Forma 24" style="fill: #6d92ab" d="m556.6 339.4l-0.1-3 59.8-3 0.1 3z"/>
	<path id="Forma 25" style="fill: #6d92ab" d="m616 336.4l-0.1-3 45.7-1.6 0.1 3z"/>
	<path id="Forma 26" style="fill: #6d92ab" d="m660.7 335v-3l60.4-1.7 0.1 3z"/>
	<path id="Forma 27" style="fill: #6d92ab" d="m721 333.3l-0.1-3 50.4-1.3 0.1 3z"/>
	<path id="Forma 28" style="fill: #6d92ab" d="m770.7 332.3v-3h47.8v3z"/>
	<path id="Forma 29" style="fill: #6d92ab" d="m817.9 332.5v-3l50.5-0.8v3z"/>
	<path id="Forma 30" style="fill: #6d92ab" d="m867.9 331.9l-0.1-3 41.4-0.7 0.1 3z"/>
	<path id="Forma 31" style="fill: #6d92ab" d="m908.8 331.3v-3h115.6v3z"/>
	<path id="Forma 32" style="fill: #6d92ab" d="m1024.1 331.5v-3l71.3 0.8v3z"/>
	<path id="Forma 33" style="fill: #6d92ab" d="m1094.6 332.1l0.1-3 91.8 2.3v3z"/>
	<path id="Forma 34" style="fill: #6d92ab" d="m1186.2 334.3l0.1-3 81 1.7-0.1 3z"/>
	<path id="Forma 35" style="fill: #6d92ab" d="m1266.2 335.9l0.1-3 75.9 3-0.1 3z"/>
	<path id="Forma 36" style="fill: #6d92ab" d="m1341.7 338.9l0.1-3 68.4 3.9-0.1 3z"/>
	<path id="Forma 37" style="fill: #6d92ab" d="m1409.6 342.9l0.3-3 46.8 4-0.2 3z"/>
	<path id="Forma 38" style="fill: #6d92ab" d="m1456 346.8l0.3-3 63.3 8.3-0.4 3z"/>
	<path id="Forma 39" style="fill: #6d92ab" d="m1518.3 355l0.5-2.9 46.9 8.5-0.5 2.9z"/>
	<path id="Forma 40" style="fill: #6d92ab" d="m1565.1 363.7l0.7-3 52.8 11.7-0.6 2.9z"/>
	<path id="Forma 41" style="fill: #6d92ab" d="m1617.3 375.5l0.9-2.8 52.7 15.8-0.9 2.8z"/>
	<path id="Forma 42" style="fill: #6d92ab" d="m1669.7 391.3l1-2.8 40.4 14.8-1 2.8z"/>
	<path id="Forma 43" style="fill: #6d92ab" d="m1710 406.1l1.2-2.8 27 11.9-1.2 2.7z"/>
	<path id="Forma 44" style="fill: #6d92ab" d="m1736.9 417.9l1.4-2.7 34 17.7-1.3 2.7z"/>
	<path id="Forma 45" style="fill: #6d92ab" d="m1770.8 435.3l1.7-2.5 26.4 16.9-1.6 2.5z"/>
	<path id="Forma 46" style="fill: #6d92ab" d="m1797.1 452.2l1.7-2.4 23.8 16.4-1.7 2.4z"/>
	<path id="Forma 47" style="fill: #6d92ab" d="m1820.8 468.5l1.9-2.2 24.6 21.1-1.9 2.3z"/>
	<path id="Forma 48" style="fill: #6d92ab" d="m1845.4 489.6l2-2.2 16 14.5-2 2.2z"/>
	<path id="Forma 49" style="fill: #6d92ab" d="m1861 503.8l2.3-1.9 7.2 8.6-2.3 1.9z"/>
	<path id="Forma 50" style="fill: #6d92ab" d="m1868 512.1l2.7-1.3 2.4 5-2.7 1.3z"/>
	<path id="Forma 51" style="fill: #6d92ab" d="m1870.4 516.9l2.8-0.9 1.4 3.9-2.9 1z"/>
	<path id="Forma 52" style="fill: #6d92ab" d="m1871.8 521l2.7-1.3 2 4.1-2.7 1.3z"/>
	<path id="Forma 53" style="fill: #6d92ab" d="m1873.7 525l2.8-1 1 2.7-2.9 0.9z"/>
	<path id="Forma 54" style="fill: #6d92ab" d="m1874.6 526.9l3-0.4 0.4 3.6-3 0.3z"/>
	<path id="Forma 55" style="fill: #6d92ab" d="m1878.3 548h-3v-19.7h3z"/>
	<path id="Forma 56" style="fill: #6d92ab" d="m1875.5 546.9l2.8 1.1-2.1 5.3-2.8-1.1z"/>
	<path id="Forma 57" style="fill: #6d92ab" d="m1873.7 551.8l2.7 1.2-3.5 8.4-2.8-1.2z"/>
	<path id="Forma 58" style="fill: #6d92ab" d="m1870.2 559.8l2.5 1.7-5.9 8.8-2.5-1.7z"/>
	<path id="Forma 59" style="fill: #6d92ab" d="m1864.7 568l2 2.3-15.1 13.5-2-2.3z"/>
	<path id="Forma 60" style="fill: #6d92ab" d="m1850.3 581.2l1.9 2.3-19.8 16.4-2-2.3z"/>
	<path id="Forma 61" style="fill: #6d92ab" d="m1830.6 597.5l1.9 2.4-21.9 16.6-1.8-2.4z"/>
	<path id="Forma 62" style="fill: #6d92ab" d="m1809.1 614l1.6 2.6-20.3 12.3-1.5-2.6z"/>
	<path id="Forma 63" style="fill: #6d92ab" d="m1789.7 626l1.5 2.6-19.5 11.3-1.5-2.6z"/>
	<path id="Forma 64" style="fill: #6d92ab" d="m1770.7 636.9l1.4 2.6-20.8 11.4-1.5-2.6z"/>
	<path id="Forma 65" style="fill: #6d92ab" d="m1750.1 648.3l1.3 2.7-22.5 10.9-1.3-2.7z"/>
	<path id="Forma 66" style="fill: #6d92ab" d="m1727.6 659.2l1.2 2.7-16.7 7.5-1.3-2.7z"/>
	<path id="Forma 67" style="fill: #6d92ab" d="m1711 666.7l1.1 2.8-28.5 11.3-1.1-2.8z"/>
	<path id="Forma 68" style="fill: #6d92ab" d="m1682.9 678l1 2.9-30.5 10.7-1-2.9z"/>
	<path id="Forma 69" style="fill: #6d92ab" d="m1652.9 688.7l0.8 2.9-25.5 6.7-0.8-2.9z"/>
	<path id="Forma 70" style="fill: #6d92ab" d="m1628 694.9l0.8 2.8-23.9 7.1-0.8-2.9z"/>
	<path id="Forma 71" style="fill: #6d92ab" d="m1604.7 701.8l0.7 2.9-16.3 3.8-0.7-2.9z"/>
	<path id="Forma 72" style="fill: #6d92ab" d="m1589.9 705.1l0.7 2.9-26.4 6.5-0.8-2.9z"/>
	<path id="Forma 73" style="fill: #6d92ab" d="m1563.5 711.6l0.6 2.9-15.5 3-0.6-2.9z"/>
	<path id="Forma 74" style="fill: #6d92ab" d="m1548.7 714.1l0.6 3-21.3 4.1-0.6-2.9z"/>
	<path id="Forma 75" style="fill: #6d92ab" d="m1528.7 718.1l0.5 3-20.7 3.9-0.6-2.9z"/>
	<path id="Forma 76" style="fill: #6d92ab" d="m1508.7 722.2l0.4 3-23.5 3-0.4-2.9z"/>
	<path id="Forma 77" style="fill: #6d92ab" d="m1485.9 724.9l0.4 2.9-21.4 3.1-0.4-3z"/>
	<path id="Forma 78" style="fill: #6d92ab" d="m1465.4 727.9l0.3 3-35.3 3.6-0.3-3z"/>
	<path id="Forma 79" style="fill: #6d92ab" d="m1431.5 731.6l0.3 3-44.9 3.9-0.3-3z"/>
	<path id="Forma 80" style="fill: #6d92ab" d="m1387.4 735.3l0.2 3-45.6 3.7-0.2-3z"/>
	<path id="Forma 81" style="fill: #6d92ab" d="m1343.1 739.1l0.1 3-41.3 1.2-0.1-3z"/>
	<path id="Forma 82" style="fill: #6d92ab" d="m1302.8 740.3l0.3 3-41.3 2.9-0.3-3z"/>
	<path id="Forma 83" style="fill: #6d92ab" d="m1262.2 743.1l0.2 3-54.8 3.5-0.2-3z"/>
	<path id="Forma 84" style="fill: #6d92ab" d="m1208.5 746.7l0.1 3-32.2 1.1-0.1-3z"/>
	<path id="Forma 85" style="fill: #6d92ab" d="m1177.8 747.6l0.1 3-51.6 2.4-0.2-3z"/>
	<path id="Forma 86" style="fill: #6d92ab" d="m1126.4 749.9l0.1 3-80.8 2.3-0.1-3z"/>
	<path id="Forma 87" style="fill: #6d92ab" d="m1046.3 752l0.1 3-66 1v-3z"/>
	<path id="Forma 88" style="fill: #6d92ab" d="m980.4 753v3l-22.9-0.1v-3z"/>
	<path id="Forma 89" style="fill: #6d92ab" d="m958.3 752.9v3l-69.2-0.1v-3z"/>
	<path id="Forma 90" style="fill: #6d92ab" d="m889.6 752.6v3l-54.9 0.1v-3z"/>
	<path id="Forma 91" style="fill: #6d92ab" d="m835.7 752.9v3l-68.3-0.3v-3z"/>
	<path id="Forma 92" style="fill: #6d92ab" d="m767.8 752.6v3l-77-1.2 0.1-3z"/>
	<path id="Forma 93" style="fill: #6d92ab" d="m691.3 751.5l-0.1 3-53-1.7 0.1-3z"/>
	<path id="Forma 94" style="fill: #6d92ab" d="m638.4 749.7l-0.1 3-45.7-1.7 0.1-3z"/>
	<path id="Forma 95" style="fill: #6d92ab" d="m593.8 748.1l-0.1 3-68.3-2.9 0.1-3z"/>
	<path id="Forma 96" style="fill: #6d92ab" d="m526.3 745.4l-0.1 3-45.1-2.9 0.2-2.9z"/>
	<path id="Forma 97" style="fill: #6d92ab" d="m482 742.9l-0.3 2.9-61.3-4.7 0.2-3z"/>
	<path id="Forma 98" style="fill: #6d92ab" d="m421.6 738.1l-0.3 3-50-5 0.3-3z"/>
	<path id="Forma 99" style="fill: #6d92ab" d="m372.3 733.2l-0.3 3-35.6-3.7 0.3-3z"/>
	<path id="Forma 100" style="fill: #6d92ab" d="m338.2 729.7l-0.4 2.9-34.1-4.2 0.4-3z"/>
	<path id="Forma 101" style="fill: #6d92ab" d="m305.3 725.6l-0.4 2.9-31-4.1 0.4-3z"/>
	<path id="Forma 102" style="fill: #6d92ab" d="m274.9 721.6l-0.6 2.9-24.5-5.3 0.6-2.9z"/>
	<path id="Forma 103" style="fill: #6d92ab" d="m251.2 716.3l-0.7 2.9-28.1-6.6 0.7-2.9z"/>
	<path id="Forma 104" style="fill: #6d92ab" d="m223.6 709.8l-0.9 2.9-25.5-7.6 0.9-2.9z"/>
	<path id="Forma 105" style="fill: #6d92ab" d="m198.8 702.5l-1 2.8-23.6-8.9 1.1-2.8z"/>
	<path id="Forma 106" style="fill: #6d92ab" d="m175.9 693.9l-1.2 2.7-17.8-7.7 1.1-2.7z"/>
	<path id="Forma 107" style="fill: #6d92ab" d="m159.2 686.7l-1.6 2.5-23.3-14.3 1.5-2.6z"/>
	<path id="Forma 108" style="fill: #6d92ab" d="m136.5 672.7l-1.6 2.5-12.7-8.2 1.6-2.5z"/>
	<path id="Forma 109" style="fill: #6d92ab" d="m124.5 664.9l-1.8 2.4-14-10.5 1.8-2.4z"/>
	<path id="Forma 110" style="fill: #6d92ab" d="m111.3 655.1l-1.9 2.3-12-9.7 1.9-2.3z"/>
	<path id="Forma 111" style="fill: #6d92ab" d="m99.7 645.8l-2.1 2.2-9.2-8.9 2-2.2z"/>
	<path id="Forma 112" style="fill: #6d92ab" d="m90.7 637.1l-2.2 2.1-8.9-9.4 2.2-2.1z"/>
	<path id="Forma 113" style="fill: #6d92ab" d="m82.3 628.2l-2.2 2.1-9-9.7 2.2-2z"/>
	<path id="Forma 114" style="fill: #6d92ab" d="m73.7 618.9l-2.4 1.8-10.9-14.5 2.4-1.8z"/>
	<path id="Forma 115" style="fill: #6d92ab" d="m63.3 605l-2.5 1.7-10.8-16.4 2.5-1.7z"/>
	<path id="Forma 116" style="fill: #6d92ab" d="m53.2 589.3l-2.7 1.5-9-16 2.6-1.5z"/>
	<path id="Forma 117" style="fill: #6d92ab" d="m44.7 574.3l-2.7 1.3-5.1-10.6 2.7-1.3z"/>
	<path id="Forma 118" style="fill: #6d92ab" d="m40.4 564.6l-2.8 1.2-6.6-15.2 2.7-1.2z"/>
	<path id="Forma 119" style="fill: #6d92ab" d="m34.4 550.6l-2.9 0.9-2.7-8.2 2.9-0.9z"/>
	<path id="Forma 120" style="fill: #6d92ab" d="m380.6 349.1l0.4 2.9-59.2 8.2-0.4-2.9z"/>
	<path id="Forma 121" style="fill: #6d92ab" d="m322.4 357.3l0.6 2.9-38.3 7.5-0.6-2.9z"/>
	<path id="Forma 122" style="fill: #6d92ab" d="m285 364.4l0.7 3-23.2 5.1-0.6-3z"/>
	<path id="Forma 123" style="fill: #6d92ab" d="m262.6 369.4l0.8 2.9-32 8.7-0.7-2.9z"/>
	<path id="Forma 124" style="fill: #6d92ab" d="m232.2 377.7l1 2.8-29 9.7-0.9-2.8z"/>
	<path id="Forma 125" style="fill: #6d92ab" d="m205 386.5l1.2 2.8-25.5 10.7-1.2-2.7z"/>
	<path id="Forma 126" style="fill: #6d92ab" d="m180 396.9l1.4 2.6-25.6 13-1.4-2.7z"/>
	<path id="Forma 127" style="fill: #6d92ab" d="m155 409.8l1.6 2.5-20.9 13.3-1.6-2.5z"/>
	<path id="Forma 128" style="fill: #6d92ab" d="m135 422.6l1.8 2.4-20.6 15.7-1.8-2.4z"/>
	<path id="Forma 129" style="fill: #6d92ab" d="m114.9 437.9l2 2.3-13.8 12.3-2-2.3z"/>
	<path id="Forma 130" style="fill: #6d92ab" d="m101.3 449.7l2.3 2.1-13.1 14.3-2.2-2z"/>
	<path id="Forma 131" style="fill: #6d92ab" d="m88.6 463.7l2.3 1.9-13.7 16.4-2.3-1.9z"/>
	<path id="Forma 132" style="fill: #6d92ab" d="m75.2 479.3l2.4 1.7-9.6 14.3-2.5-1.6z"/>
	<path id="Forma 133" style="fill: #6d92ab" d="m65.7 493.2l2.6 1.6-6 10.4-2.6-1.5z"/>
	<path id="Forma 134" style="fill: #6d92ab" d="m60 503.2l2.6 1.5-6.7 11.6-2.6-1.5z"/>
	<path id="Forma 135" style="fill: #6d92ab" d="m53.6 514.2l2.7 1.4-7.7 15.7-2.7-1.3z"/>
	<path id="Forma 136" style="fill: #6d92ab" d="m46.2 529.4l2.8 1.1-5.8 14.5-2.8-1.1z"/>
	<path id="Forma 137" style="fill: #6d92ab" d="m39.9 543.9l2.8-1.1 4 10-2.7 1.2z"/>
	<path id="Forma 138" style="fill: #6d92ab" d="m43.6 553.3l2.8-1.2 4.7 10.2-2.8 1.3z"/>
	<path id="Forma 139" style="fill: #6d92ab" d="m48 562.7l2.7-1.2 6.7 14.4-2.7 1.3z"/>
	<path id="Forma 140" style="fill: #6d92ab" d="m54.4 576.3l2.6-1.5 7.3 12.5-2.6 1.5z"/>
	<path id="Forma 141" style="fill: #6d92ab" d="m61.2 588l2.5-1.6 6.8 10.2-2.5 1.6z"/>
	<path id="Forma 142" style="fill: #6d92ab" d="m67.2 597.5l2.4-1.8 7 9-2.4 1.8z"/>
	<path id="Forma 143" style="fill: #6d92ab" d="m73.2 605.3l2.4-1.8 8.9 11.4-2.3 1.8z"/>
	<path id="Forma 144" style="fill: #6d92ab" d="m81.6 616.3l2.2-2 8.5 9.6-2.2 2z"/>
	<path id="Forma 145" style="fill: #6d92ab" d="m89.4 625.1l2.2-2.1 7.4 7.7-2.2 2.1z"/>
	<path id="Forma 146" style="fill: #6d92ab" d="m96.4 632.1l2.1-2.2 7.8 7.6-2.1 2.1z"/>
	<path id="Forma 147" style="fill: #6d92ab" d="m103.6 639l1.9-2.3 8.2 7-1.9 2.3z"/>
	<path id="Forma 148" style="fill: #6d92ab" d="m111 645.6l1.8-2.4 9.9 7.6-1.9 2.4z"/>
	<path id="Forma 149" style="fill: #6d92ab" d="m119.9 652.5l1.8-2.4 9.7 7.2-1.8 2.4z"/>
	<path id="Forma 150" style="fill: #6d92ab" d="m128.9 659.2l1.8-2.4 11.7 8.5-1.8 2.4z"/>
	<path id="Forma 151" style="fill: #6d92ab" d="m139.8 667.1l1.7-2.6 11.6 7.6-1.6 2.5z"/>
	<path id="Forma 152" style="fill: #6d92ab" d="m150.9 674.3l1.3-2.6 8.9 4.6-1.4 2.7z"/>
	<path id="Forma 153" style="fill: #6d92ab" d="m158.6 678.6l1.4-2.6 7.6 3.9-1.4 2.6z"/>
	<path id="Forma 154" style="fill: #6d92ab" d="m165.9 682.3l1.3-2.7 12.3 6.2-1.3 2.7z"/>
	<path id="Forma 155" style="fill: #6d92ab" d="m177.7 688l1.3-2.7 10.8 5.1-1.3 2.7z"/>
	<path id="Forma 156" style="fill: #6d92ab" d="m188.2 693l1.1-2.9 11.1 4.3-1 2.8z"/>
	<path id="Forma 157" style="fill: #6d92ab" d="m199.1 697.2l1-2.9 18.8 6.7-1 2.8z"/>
	<path id="Forma 158" style="fill: #6d92ab" d="m217.9 703.8l0.9-2.8 17.4 5.7-0.9 2.8z"/>
	<path id="Forma 159" style="fill: #6d92ab" d="m235 709.5l0.7-2.9 15.6 4-0.8 2.9z"/>
	<path id="Forma 160" style="fill: #6d92ab" d="m250.3 713.2l0.8-2.9 18.2 5.1-0.8 2.9z"/>
	<path id="Forma 161" style="fill: #6d92ab" d="m268.3 718.3l0.6-3 16.5 3.4-0.6 2.9z"/>
	<path id="Forma 162" style="fill: #6d92ab" d="m284.2 721.8l0.5-3 27.7 5-0.5 3z"/>
	<path id="Forma 163" style="fill: #6d92ab" d="m311.1 726.6l0.5-2.9 37.1 6.4-0.5 3z"/>
	<path id="Forma 164" style="fill: #6d92ab" d="m270.9 368.1h3v348.8h-3z"/>
	<path id="Forma 165" style="fill: #6d92ab" d="m277.1 377.5h3v327.7h-3z"/>
	<path id="Forma 166" style="fill: #6d92ab" d="m278.3 379.9l-0.6-2.9 26.4-5.1 0.6 3z"/>
	<path id="Forma 167" style="fill: #6d92ab" d="m304.7 374.9l-0.5-3 37.9-6.3 0.5 2.9z"/>
	<path id="Forma 168" style="fill: #6d92ab" d="m342.6 368.5l-0.4-2.9 42.1-5.9 0.4 3z"/>
	<path id="Forma 169" style="fill: #6d92ab" d="m384.6 362.7l-0.3-3 34.4-3.8 0.3 3z"/>
	<path id="Forma 170" style="fill: #6d92ab" d="m418.9 358.9l-0.2-3 41.9-3.6 0.3 3z"/>
	<path id="Forma 171" style="fill: #6d92ab" d="m460.8 355.3l-0.2-3 43.1-3 0.2 3z"/>
	<path id="Forma 172" style="fill: #6d92ab" d="m503.8 352.3l-0.1-3 47.2-2.1 0.1 3z"/>
	<path id="Forma 173" style="fill: #6d92ab" d="m549.7 349.9l-0.1-3 63-2.4 0.1 3z"/>
	<path id="Forma 174" style="fill: #6d92ab" d="m612.7 347.5l-0.1-3 33.4-0.9 0.1 3z"/>
	<path id="Forma 175" style="fill: #6d92ab" d="m642.8 344.4h3v395.1h-3z"/>
	<path id="Forma 176" style="fill: #6d92ab" d="m277.7 705.5l1.1-2.8 6.2 2.4-1.1 2.8z"/>
	<path id="Forma 177" style="fill: #6d92ab" d="m283.5 707.6l0.7-2.9 19.4 4.5-0.6 2.9z"/>
	<path id="Forma 178" style="fill: #6d92ab" d="m301.5 712.2l0.5-2.9 33.9 5.7-0.5 3z"/>
	<path id="Forma 179" style="fill: #6d92ab" d="m334.9 718.3l0.3-3 32.8 4.3-0.4 3z"/>
	<path id="Forma 180" style="fill: #6d92ab" d="m366.7 722.6l0.4-3 42.3 5.2-0.4 3z"/>
	<path id="Forma 181" style="fill: #6d92ab" d="m407.5 727.5l0.3-3 44.2 4-0.3 3z"/>
	<path id="Forma 182" style="fill: #6d92ab" d="m450.9 731.3l0.2-3 59.3 4.2-0.2 3z"/>
	<path id="Forma 183" style="fill: #6d92ab" d="m509.7 735.3l0.2-3 50.8 2.8-0.2 3z"/>
	<path id="Forma 184" style="fill: #6d92ab" d="m559.9 738.2l0.1-3 54.5 2-0.1 3z"/>
	<path id="Forma 185" style="fill: #6d92ab" d="m613.2 740v-3h32.5v3z"/>
	<path id="Forma 186" style="fill: #6d92ab" d="m393.9 647.4l0.1-3 36.8 0.8v3z"/>
	<path id="Forma 187" style="fill: #6d92ab" d="m392.8 644.4h3v6.1h-3z"/>
	<path id="Forma 188" style="fill: #6d92ab" d="m393 651.4v-3h37.6v3z"/>
	<path id="Forma 189" style="fill: #6d92ab" d="m432 650.6h-3v-4.9h3z"/>
	<path id="Forma 190" style="fill: #6d92ab" d="m395.2 676.5v-3h35v3z"/>
	<path id="Forma 191" style="fill: #6d92ab" d="m428.8 673.9h3v5.5h-3z"/>
	<path id="Forma 192" style="fill: #6d92ab" d="m431.9 677.9v3h-36.7v-3z"/>
	<path id="Forma 193" style="fill: #6d92ab" d="m396.7 680.9h-3v-7.2h3z"/>
	<path id="Forma 194" style="fill: #6d92ab" d="m398.7 673.5h-3v-23.9h3z"/>
	<path id="Forma 195" style="fill: #6d92ab" d="m405.5 674.8h-3v-25.2h3z"/>
	<path id="Forma 196" style="fill: #6d92ab" d="m413.4 674.5h-3v-24.6h3z"/>
	<path id="Forma 197" style="fill: #6d92ab" d="m420.9 674.7h-3v-24.4h3z"/>
	<path id="Forma 198" style="fill: #6d92ab" d="m428.4 674.8h-3v-25.3h3z"/>
</svg>