<svg version="1.2" xmlns="http://www.w3.org/2000/svg" viewBox="-180 305 2200 500">
	<path id="Forma 184"  style="fill: #6d92ab" d="m362.1 450v3h-36.1v-3z"/>
	<path id="Forma 185"  style="fill: #6d92ab" d="m327.4 450.7l-1.8 2.4-3.4-2.5 1.8-2.4z"/>
	<path id="Forma 186"  style="fill: #6d92ab" d="m324.7 449l-2.7 1.4-1.7-3.5 2.6-1.4z"/>
	<path id="Forma 187"  style="fill: #6d92ab" d="m323.2 446.1l-2.9 0.8-1.4-4.9 2.9-0.8z"/>
	<path id="Forma 188"  style="fill: #6d92ab" d="m321.8 441.7h-3v-2.7h3z"/>
	<path id="Forma 189"  style="fill: #6d92ab" d="m322 440.3l-1.9-2.4 2.5-2 1.9 2.3z"/>
	<path id="Forma 190"  style="fill: #6d92ab" d="m325.1 437l-3 0.1-0.2-4.2 3-0.1z"/>
	<path id="Forma 191"  style="fill: #6d92ab" d="m324.7 434.1l-2.1-2.1 19.7-19.8 2.2 2.1z"/>
	<path id="Forma 192"  style="fill: #6d92ab" d="m342.6 414.8v-3h56.2v3z"/>
	<path id="Forma 193"  style="fill: #6d92ab" d="m397.3 411.8h3v37.1h-3z"/>
	<path id="Forma 194"  style="fill: #6d92ab" d="m400.2 447.3v3h-38.9v-3z"/>
	<path id="Forma 195"  style="fill: #6d92ab" d="m360.9 447.7h3v7.3h-3z"/>
	<path id="Forma 196"  style="fill: #6d92ab" d="m361.1 455v-3h90.3v3z"/>
	<path id="Forma 197"  style="fill: #6d92ab" d="m451.3 454.6l-2.2-2.1 14.6-14.6 2.2 2.1z"/>
	<path id="Forma 198"  style="fill: #6d92ab" d="m362.6 448.1l-1.1 2.8-37.5-15.1 1.1-2.8z"/>
	<path id="Forma 199"  style="fill: #6d92ab" d="m362.2 447.4l-2.1 2.2-26.4-25.6 2.1-2.1z"/>
	<path id="Forma 200"  style="fill: #6d92ab" d="m346.8 414.4l2.8-1.1 13.9 35.8-2.8 1.1z"/>
	<path id="Forma 201"  style="fill: #6d92ab" d="m365.4 449h-3v-35.6h3z"/>
	<path id="Forma 202"  style="fill: #6d92ab" d="m375.8 448.7h-3v-34.7h3z"/>
	<path id="Forma 203"  style="fill: #6d92ab" d="m386.1 448.8h-3v-35.2h3z"/>
	<path id="Forma 204"  style="fill: #6d92ab" d="m387 448.6l-2.7-1.2 13-29 2.7 1.2z"/>
	<path id="Forma 205"  style="fill: #6d92ab" d="m387.9 449.5l-2-2.2 11.9-10.9 2 2.2z"/>
	<path id="Forma 206"  style="fill: #6d92ab" d="m320.3 440.7h-3v-12h3z"/>
	<path id="Forma 207"  style="fill: #6d92ab" d="m319.4 430.1l-2.2-2.1 29.6-29.2 2.2 2.1z"/>
	<path id="Forma 208"  style="fill: #6d92ab" d="m347.3 401.7l-0.6-2.9 36.1-6.7 0.6 3z"/>
	<path id="Forma 209"  style="fill: #6d92ab" d="m382.3 395.1l-0.2-3 86.3-3.9 0.1 3z"/>
	<path id="Forma 210"  style="fill: #6d92ab" d="m466 391.1l-0.1-3 196.5-8.9 0.2 3z"/>
	<path id="Forma 211"  style="fill: #6d92ab" d="m660.9 382.2v-3l220.7-2.3v3z"/>
	<path id="Forma 212"  style="fill: #6d92ab" d="m920.7 379.2l0.1-3 207.9 4.8v3z"/>
	<path id="Forma 213"  style="fill: #6d92ab" d="m1170.6 384.2l0.1-2.9 96.2 4.5-0.2 3z"/>
	<path id="Forma 214"  style="fill: #6d92ab" d="m1264.3 387.2l2.3-2 3.6 4.4-2.2 1.9z"/>
	<path id="Forma 215"  style="fill: #6d92ab" d="m1267.2 390.6l2.3-1.8 6.8 8.5-2.3 1.8z"/>
	<path id="Forma 216"  style="fill: #6d92ab" d="m1272.9 397.9l2.7-1.3 8.2 16.7-2.7 1.3z"/>
	<path id="Forma 217"  style="fill: #6d92ab" d="m1280.4 413.5l2.7-1.3 7 15.1-2.7 1.3z"/>
	<path id="Forma 218"  style="fill: #6d92ab" d="m1286.9 428.3l2.8-1.1 8.6 21.7-2.8 1.1z"/>
	<path id="Forma 219"  style="fill: #6d92ab" d="m1295.4 448.5l2.9-0.7 4.2 17.2-2.9 0.7z"/>
	<path id="Forma 220"  style="fill: #6d92ab" d="m1299.4 464.4l2.9-0.7 5 22.3-2.9 0.7z"/>
	<path id="Forma 221"  style="fill: #6d92ab" d="m1304.5 485.6l3-0.4 2.9 21.4-3 0.4z"/>
	<path id="Forma 222"  style="fill: #6d92ab" d="m1306.9 505.5l2.9-0.3 2.2 22.9-3 0.3z"/>
	<path id="Forma 223"  style="fill: #6d92ab" d="m1308.6 526.9h3l0.3 26.1-3 0.1z"/>
	<path id="Forma 224"  style="fill: #6d92ab" d="m1309.1 551l3 0.3-2.1 18.7-2.9-0.4z"/>
	<path id="Forma 225"  style="fill: #6d92ab" d="m1307 568.7l3 0.4-3.8 26.4-2.9-0.4z"/>
	<path id="Forma 226"  style="fill: #6d92ab" d="m1303.3 593.9l3 0.7-4.5 18.9-2.9-0.7z"/>
	<path id="Forma 227"  style="fill: #6d92ab" d="m1299 612.1l2.9 0.9-7 22.4-2.9-0.9z"/>
	<path id="Forma 228"  style="fill: #6d92ab" d="m1292.6 633.7l2.8 1.2-8.1 19.5-2.8-1.2z"/>
	<path id="Forma 229"  style="fill: #6d92ab" d="m1284.8 652.9l2.7 1.3-4.8 10.9-2.8-1.2z"/>
	<path id="Forma 230"  style="fill: #6d92ab" d="m1280.6 662.9l2.6 1.4-6 11.3-2.7-1.4z"/>
	<path id="Forma 231"  style="fill: #6d92ab" d="m1275.1 673.4l2.7 1.4-6.9 12.5-2.6-1.5z"/>
	<path id="Forma 232"  style="fill: #6d92ab" d="m1268.9 685l2.4 1.7-1.7 2.5-2.5-1.7z"/>
	<path id="Forma 233"  style="fill: #6d92ab" d="m1267.7 686.5l2.1 2.2-3 2.8-2-2.2z"/>
	<path id="Forma 234"  style="fill: #6d92ab" d="m1265.5 688.6l1.6 2.6-3.4 2.1-1.6-2.5z"/>
	<path id="Forma 235"  style="fill: #6d92ab" d="m1263.3 690.1l1.2 2.8-3.4 1.4-1.2-2.7z"/>
	<path id="Forma 236"  style="fill: #6d92ab" d="m1262.8 691.5l0.1 3-91.1 3.4-0.1-3z"/>
	<path id="Forma 237"  style="fill: #6d92ab" d="m1129.9 697l0.1 3-123.8 3.1-0.1-3z"/>
	<path id="Forma 238"  style="fill: #6d92ab" d="m964.8 700.6v3l-68.6 0.5v-3z"/>
	<path id="Forma 239"  style="fill: #6d92ab" d="m897.4 700.8v3l-96.5-0.4v-3z"/>
	<path id="Forma 240"  style="fill: #6d92ab" d="m802.9 700.6v3l-168.9-3.1v-3z"/>
	<path id="Forma 241"  style="fill: #6d92ab" d="m634.9 697.5l-0.1 3-148.6-7 0.1-2.9z"/>
	<path id="Forma 242"  style="fill: #6d92ab" d="m489.2 690.9l-0.2 3-80.3-5.8 0.2-3z"/>
	<path id="Forma 243"  style="fill: #6d92ab" d="m411.4 685.1l-0.4 3-50.3-6.7 0.4-2.9z"/>
	<path id="Forma 244"  style="fill: #6d92ab" d="m362.4 678.9l-0.9 2.8-6.5-2.2 1-2.8z"/>
	<path id="Forma 245"  style="fill: #6d92ab" d="m357.2 678.1h-3v-9.2h3z"/>
	<path id="Forma 246"  style="fill: #6d92ab" d="m355.1 671.2v-3h42.6v3z"/>
	<path id="Forma 247"  style="fill: #6d92ab" d="m399.9 670.8h-3v-39h3z"/>
	<path id="Forma 248"  style="fill: #6d92ab" d="m397.5 633.6v-3h8v3z"/>
	<path id="Forma 249"  style="fill: #6d92ab" d="m404.9 632.1h-3v-178.9h3z"/>
	<path id="Forma 250"  style="fill: #6d92ab" d="m411.1 628.6h-3v-176h3z"/>
	<path id="Forma 251"  style="fill: #6d92ab" d="m409.3 629.3v-3h39.8v3z"/>
	<path id="Forma 252"  style="fill: #6d92ab" d="m446.9 627.9l2.1-2.1 17.2 17.2-2.1 2.1z"/>
	<path id="Forma 253"  style="fill: #6d92ab" d="m462.8 642.7h3v39.4h-3z"/>
	<path id="Forma 254"  style="fill: #6d92ab" d="m463 682.7l0.1-3 80.4 4.3-0.2 3z"/>
	<path id="Forma 255"  style="fill: #6d92ab" d="m541.6 687l0.1-3 55.9 2.4-0.1 3z"/>
	<path id="Forma 256"  style="fill: #6d92ab" d="m595.5 689.2l0.1-3 63.9 1.8-0.1 3z"/>
	<path id="Forma 257"  style="fill: #6d92ab" d="m658.1 691l0.1-3 61.1 1.4-0.1 3z"/>
	<path id="Forma 258"  style="fill: #6d92ab" d="m719.2 692.4l0.1-3 59.8 1.1v3z"/>
	<path id="Forma 259"  style="fill: #6d92ab" d="m778.1 693.3v-3h178.5v3z"/>
	<path id="Forma 260"  style="fill: #6d92ab" d="m958.5 692.9h-3v-4.5h3z"/>
	<path id="Forma 261"  style="fill: #6d92ab" d="m955.5 689.9v-3h10.3v3z"/>
	<path id="Forma 262"  style="fill: #6d92ab" d="m964.2 687h3v16.7h-3z"/>
	<path id="Forma 263"  style="fill: #6d92ab" d="m1007.8 702.3h-3v-14.7h3z"/>
	<path id="Forma 264"  style="fill: #6d92ab" d="m1004.8 688.9v-3h11v3z"/>
	<path id="Forma 265"  style="fill: #6d92ab" d="m1013.8 686h3v5.9h-3z"/>
	<path id="Forma 266"  style="fill: #6d92ab" d="m1014.9 693.4v-3h71v3z"/>
	<path id="Forma 267"  style="fill: #6d92ab" d="m1087.2 692.3h-3v-5.2h3z"/>
	<path id="Forma 268"  style="fill: #6d92ab" d="m1084.1 688.4v-3h38.3v3z"/>
	<path id="Forma 269"  style="fill: #6d92ab" d="m1123.4 689.3l-2.1-2.1 3.9-3.9 2.1 2.1z"/>
	<path id="Forma 270"  style="fill: #6d92ab" d="m1125.8 685.8v-3h5.7v3z"/>
	<path id="Forma 271"  style="fill: #6d92ab" d="m1129.6 683.1h3v16.6h-3z"/>
	<path id="Forma 272"  style="fill: #6d92ab" d="m1173.1 697.6h-3v-13h3z"/>
	<path id="Forma 273"  style="fill: #6d92ab" d="m1171.8 686.3l-2.1-2.1 2.3-2.3 2.2 2.1z"/>
	<path id="Forma 274"  style="fill: #6d92ab" d="m1173.2 684.6l-0.9-2.9 2.2-0.7 0.9 2.9z"/>
	<path id="Forma 275"  style="fill: #6d92ab" d="m1174.3 684l0.2-3 2.6 0.2-0.1 3z"/>
	<path id="Forma 276"  style="fill: #6d92ab" d="m1175.5 681.4h3v8.5h-3z"/>
	<path id="Forma 277"  style="fill: #6d92ab" d="m1176.2 691l-0.2-3 65.5-3.4 0.2 3z"/>
	<path id="Forma 278"  style="fill: #6d92ab" d="m1241.4 688.1l-0.3-3 17.3-1.7 0.3 3z"/>
	<path id="Forma 279"  style="fill: #6d92ab" d="m1259 686l-2.5-1.7 5-7.7 2.5 1.7z"/>
	<path id="Forma 280"  style="fill: #6d92ab" d="m1263.6 679.5l-2.7-1.3 9.7-20.2 2.7 1.3z"/>
	<path id="Forma 281"  style="fill: #6d92ab" d="m1272.9 660.5l-2.7-1.2 8.3-19 2.8 1.2z"/>
	<path id="Forma 282"  style="fill: #6d92ab" d="m1280.8 642.6l-2.9-1 6.7-18.8 2.8 1z"/>
	<path id="Forma 283"  style="fill: #6d92ab" d="m1287.2 624.9l-2.8-0.9 3.8-12.6 2.9 0.9z"/>
	<path id="Forma 284"  style="fill: #6d92ab" d="m1291.1 613.1l-2.9-0.7 4.7-20.1 2.9 0.7z"/>
	<path id="Forma 285"  style="fill: #6d92ab" d="m1295.8 594.3l-3-0.6 3.6-20.1 3 0.6z"/>
	<path id="Forma 286"  style="fill: #6d92ab" d="m1299.5 574.9l-3-0.3 2-20.3 3 0.3z"/>
	<path id="Forma 287"  style="fill: #6d92ab" d="m1301.7 554.9h-3v-30.9h3z"/>
	<path id="Forma 288"  style="fill: #6d92ab" d="m1302 524.7l-3 0.2-1.4-17.8 2.9-0.2z"/>
	<path id="Forma 289"  style="fill: #6d92ab" d="m1300.6 507.7l-3 0.4-2-17.1 3-0.3z"/>
	<path id="Forma 290"  style="fill: #6d92ab" d="m1298.8 491.6l-3 0.6-3.5-17.5 2.9-0.6z"/>
	<path id="Forma 291"  style="fill: #6d92ab" d="m1295.4 474.8l-2.9 0.8-4.4-17.5 2.9-0.8z"/>
	<path id="Forma 292"  style="fill: #6d92ab" d="m1291.3 458l-2.9 0.9-6.4-19.5 2.9-1z"/>
	<path id="Forma 293"  style="fill: #6d92ab" d="m1285.2 439.3l-2.7 1.1-9.7-23.2 2.8-1.2z"/>
	<path id="Forma 294"  style="fill: #6d92ab" d="m1276.1 416.7l-2.7 1.4-10.3-19 2.6-1.4z"/>
	<path id="Forma 295"  style="fill: #6d92ab" d="m1266.2 398.1l-2 2.3-5.1-4.4 2-2.3z"/>
	<path id="Forma 296"  style="fill: #6d92ab" d="m1261.3 393.4l-0.1 3-85.9-4.5 0.1-3z"/>
	<path id="Forma 297"  style="fill: #6d92ab" d="m1169.1 381.6h3v16.2h-3z"/>
	<path id="Forma 298"  style="fill: #6d92ab" d="m1168.8 398.6v-3h9v3z"/>
	<path id="Forma 299"  style="fill: #6d92ab" d="m1178.8 397.5h-3v-8.1h3z"/>
	<path id="Forma 300"  style="fill: #6d92ab" d="m1282.8 439.4v3h-30.6v-3z"/>
	<path id="Forma 301"  style="fill: #6d92ab" d="m1187.4 436.8v-3h56v3z"/>
	<path id="Forma 302"  style="fill: #6d92ab" d="m1241.5 434.4h3v4.8h-3z"/>
	<path id="Forma 303"  style="fill: #6d92ab" d="m1242.6 440.4v-3h16v3z"/>
	<path id="Forma 304"  style="fill: #6d92ab" d="m1257.8 440.1l-1.1-2.8 22.3-9.1 1.1 2.7z"/>
	<path id="Forma 305"  style="fill: #6d92ab" d="m1246.6 438.9l-1.9-2.3 28.1-22.4 1.8 2.4z"/>
	<path id="Forma 306"  style="fill: #6d92ab" d="m1245.2 438l-2.8-1.2 15.4-36.2 2.8 1.2z"/>
	<path id="Forma 307"  style="fill: #6d92ab" d="m1190.3 399.1l0.1-3 43.4 1.8-0.1 3z"/>
	<path id="Forma 308"  style="fill: #6d92ab" d="m1232.1 401.1l0.2-3 26.3 1.6-0.2 3z"/>
	<path id="Forma 309"  style="fill: #6d92ab" d="m1258.4 402.7l0.3-3 8.4 1-0.3 2.9z"/>
	<path id="Forma 310"  style="fill: #6d92ab" d="m1243.2 435.2h-3v-34.9h3z"/>
	<path id="Forma 311"  style="fill: #6d92ab" d="m1232 435.7h-3v-36.3h3z"/>
	<path id="Forma 312"  style="fill: #6d92ab" d="m1222.6 435.6h-3v-36.4h3z"/>
	<path id="Forma 313"  style="fill: #6d92ab" d="m1212.7 435.3h-3v-37.2h3z"/>
	<path id="Forma 314"  style="fill: #6d92ab" d="m1202.4 435.6h-3v-37.4h3z"/>
	<path id="Forma 315"  style="fill: #6d92ab" d="m1191.9 435.9h-3v-38.2h3z"/>
	<path id="Forma 316"  style="fill: #6d92ab" d="m1191.6 395.8v3h-14.4v-3z"/>
	<path id="Forma 317"  style="fill: #6d92ab" d="m1188.3 432.8l-0.9 2.8-2.9-1 1-2.8z"/>
	<path id="Forma 318"  style="fill: #6d92ab" d="m1184.3 431.9l1.4 2.7-2.7 1.4-1.4-2.7z"/>
	<path id="Forma 319"  style="fill: #6d92ab" d="m1180.8 434.6h3v3.1h-3z"/>
	<path id="Forma 320"  style="fill: #6d92ab" d="m1180.8 437.9l3-0.3 0.3 3.4-2.9 0.2z"/>
	<path id="Forma 321"  style="fill: #6d92ab" d="m1181.3 442.2l2.6-1.6 0.9 1.6-2.5 1.6z"/>
	<path id="Forma 322"  style="fill: #6d92ab" d="m1182.3 444.3l1.5-2.6 2.7 1.6-1.5 2.6z"/>
	<path id="Forma 323"  style="fill: #6d92ab" d="m1185.3 446.4l0.9-2.9 4.8 1.6-0.9 2.9z"/>
	<path id="Forma 324"  style="fill: #6d92ab" d="m1190.8 448.1l-0.4-3 2.9-0.3 0.4 2.9z"/>
	<path id="Forma 325"  style="fill: #6d92ab" d="m1191.9 447.7v-3h12.9v3z"/>
	<path id="Forma 326"  style="fill: #6d92ab" d="m1203.1 444.3h3v54.3h-3z"/>
	<path id="Forma 327"  style="fill: #6d92ab" d="m1203 498.1l3-0.1 0.1 2.2-3 0.1z"/>
	<path id="Forma 328"  style="fill: #6d92ab" d="m1203.1 500.6l2.8-1.2 0.9 2.1-2.8 1.2z"/>
	<path id="Forma 329"  style="fill: #6d92ab" d="m1204.2 503l2.4-1.8 1.3 1.8-2.4 1.8z"/>
	<path id="Forma 330"  style="fill: #6d92ab" d="m1205.7 505l2-2.3 1.5 1.4-1.9 2.2z"/>
	<path id="Forma 331"  style="fill: #6d92ab" d="m1207.1 506.3l1.9-2.3 2.8 2.3-2 2.3z"/>
	<path id="Forma 332"  style="fill: #6d92ab" d="m1210.3 508.9l1-2.8 2.8 1-0.9 2.8z"/>
	<path id="Forma 333"  style="fill: #6d92ab" d="m1213.1 509.5l0.2-2.9 1.6 0.1-0.3 3z"/>
	<path id="Forma 334"  style="fill: #6d92ab" d="m1213.1 507.8h3v62.8h-3z"/>
	<path id="Forma 335"  style="fill: #6d92ab" d="m1215.2 568.5l0.4 3-5 0.7-0.4-3z"/>
	<path id="Forma 336"  style="fill: #6d92ab" d="m1209.4 569.6l2 2.2-2.5 2.2-2-2.2z"/>
	<path id="Forma 337"  style="fill: #6d92ab" d="m1207.2 571.6l2.5 1.6-1.4 2.1-2.5-1.6z"/>
	<path id="Forma 338"  style="fill: #6d92ab" d="m1206.5 572.5l2.5 1.7-2.7 4-2.5-1.7z"/>
	<path id="Forma 339"  style="fill: #6d92ab" d="m1204 576.3h3v112.8h-3z"/>
	<path id="Forma 340"  style="fill: #6d92ab" d="m1354.7 440.5l-2.9 1-4.7-13.4 2.8-1z"/>
	<path id="Forma 341"  style="fill: #6d92ab" d="m1349.9 427l-2.8 1.2-5.4-13 2.8-1.2z"/>
	<path id="Forma 342"  style="fill: #6d92ab" d="m1344.3 413.7l-2.8 1.2-4.2-10.2 2.8-1.1z"/>
	<path id="Forma 343"  style="fill: #6d92ab" d="m1340.1 404l-2.7 1.3-6-12.4 2.6-1.3z"/>
	<path id="Forma 344"  style="fill: #6d92ab" d="m1334 391.5l-2.6 1.4-8.5-15.5 2.6-1.4z"/>
	<path id="Forma 345"  style="fill: #6d92ab" d="m1325.4 375.8l-2.4 1.8-5.6-7.4 2.3-1.9z"/>
	<path id="Forma 346"  style="fill: #6d92ab" d="m1319.6 368.2l-2.1 2.1-7.4-7.4 2.1-2.1z"/>
	<path id="Forma 347"  style="fill: #6d92ab" d="m1311.9 360.5l-1.8 2.4-5.5-4.3 1.9-2.4z"/>
	<path id="Forma 348"  style="fill: #6d92ab" d="m1306.1 355.9l-1.3 2.7-9.1-4.6 1.3-2.7z"/>
	<path id="Forma 349"  style="fill: #6d92ab" d="m1296.8 351.1l-1.1 2.8-8.9-3.3 1.1-2.8z"/>
	<path id="Forma 350"  style="fill: #6d92ab" d="m1287.6 347.7l-0.5 3-13.8-2.3 0.5-2.9z"/>
	<path id="Forma 351"  style="fill: #6d92ab" d="m1274.9 345.2l-0.3 3-42.7-3.7 0.2-3z"/>
	<path id="Forma 352"  style="fill: #6d92ab" d="m1235.2 341.5l-0.2 3-52.3-3 0.1-3z"/>
	<path id="Forma 353"  style="fill: #6d92ab" d="m1184.7 338.5l-0.2 3-41-2.2 0.2-3z"/>
	<path id="Forma 354"  style="fill: #6d92ab" d="m1145.3 336.2v3l-47-0.9v-3z"/>
	<path id="Forma 355"  style="fill: #6d92ab" d="m1100 334.9l-0.1 3-196.7-1.9v-3z"/>
	<path id="Forma 356"  style="fill: #6d92ab" d="m824.3 333.1v3l-158.1 3.3-0.1-3z"/>
	<path id="Forma 357"  style="fill: #6d92ab" d="m668.6 335.9l0.2 3-89.8 3.9-0.1-3z"/>
	<path id="Forma 358"  style="fill: #6d92ab" d="m580.3 339.6l0.2 3-92.5 4.5-0.1-3z"/>
	<path id="Forma 359"  style="fill: #6d92ab" d="m489 344.1l0.2 3-78.8 6.6-0.3-3z"/>
	<path id="Forma 360"  style="fill: #6d92ab" d="m324.8 360.6l0.6 2.9-62.3 12.8-0.6-2.9z"/>
	<path id="Forma 361"  style="fill: #6d92ab" d="m263.2 373.4l0.8 2.9-45.3 12.5-0.8-2.9z"/>
	<path id="Forma 362"  style="fill: #6d92ab" d="m218.7 385.6l1.1 2.8-43.8 18.1-1.1-2.8z"/>
	<path id="Forma 363"  style="fill: #6d92ab" d="m176.5 403.2l1.5 2.6-26.4 15.2-1.5-2.6z"/>
	<path id="Forma 364"  style="fill: #6d92ab" d="m150.7 417.5l1.8 2.4-19.5 14.9-1.8-2.4z"/>
	<path id="Forma 365"  style="fill: #6d92ab" d="m132.3 431.6l1.9 2.3-26.2 22.4-2-2.3z"/>
	<path id="Forma 366"  style="fill: #6d92ab" d="m106.5 453.5l2.2 2.1-10.8 11.5-2.2-2.1z"/>
	<path id="Forma 367"  style="fill: #6d92ab" d="m95.9 464.6l2.4 1.9-10.5 13-2.3-1.8z"/>
	<path id="Forma 368"  style="fill: #6d92ab" d="m85.9 477l2.4 1.8-12.4 17.3-2.4-1.7z"/>
	<path id="Forma 369"  style="fill: #6d92ab" d="m73.8 493.8l2.6 1.5-10.3 18-2.6-1.5z"/>
	<path id="Forma 370"  style="fill: #6d92ab" d="m63.8 511l2.7 1.2-6.9 15.2-2.8-1.3z"/>
	<path id="Forma 371"  style="fill: #6d92ab" d="m57.4 525.1l2.8 1-7 18.1-2.8-1.1z"/>
	<path id="Forma 372"  style="fill: #6d92ab" d="m49.8 543.5l2.7-1.3 5.9 12.6-2.7 1.3z"/>
	<path id="Forma 373"  style="fill: #6d92ab" d="m54.8 554.8l2.7-1.3 10.4 21.3-2.7 1.3z"/>
	<path id="Forma 374"  style="fill: #6d92ab" d="m64.9 575.3l2.5-1.5 10.4 17.3-2.6 1.6z"/>
	<path id="Forma 375"  style="fill: #6d92ab" d="m75 592.3l2.4-1.8 12.5 17-2.4 1.8z"/>
	<path id="Forma 376"  style="fill: #6d92ab" d="m86.8 608.4l2.3-1.9 10.4 12.6-2.3 1.9z"/>
	<path id="Forma 377"  style="fill: #6d92ab" d="m96.1 620.6l2-2.2 20.9 19.3-2 2.2z"/>
	<path id="Forma 378"  style="fill: #6d92ab" d="m116.6 639.6l1.8-2.3 16.7 13.2-1.8 2.3z"/>
	<path id="Forma 379"  style="fill: #6d92ab" d="m132.9 652.5l1.8-2.5 14.3 10.2-1.7 2.5z"/>
	<path id="Forma 380"  style="fill: #6d92ab" d="m147 662.5l1.5-2.5 21.7 12.8-1.5 2.6z"/>
	<path id="Forma 381"  style="fill: #6d92ab" d="m167.8 675.3l1.3-2.7 16.8 8.1-1.3 2.7z"/>
	<path id="Forma 382"  style="fill: #6d92ab" d="m184.2 683.2l1.1-2.8 19.5 7.5-1.1 2.8z"/>
	<path id="Forma 383"  style="fill: #6d92ab" d="m203.8 690.7l1-2.8 21.2 7.2-1 2.8z"/>
	<path id="Forma 384"  style="fill: #6d92ab" d="m224.2 698l0.8-2.9 19.2 5.5-0.8 2.9z"/>
	<path id="Forma 385"  style="fill: #6d92ab" d="m243.2 703.4l0.8-2.9 22.9 6.3-0.8 2.9z"/>
	<path id="Forma 386"  style="fill: #6d92ab" d="m265.3 709.4l0.6-3 33.5 6.9-0.7 3z"/>
	<path id="Forma 387"  style="fill: #6d92ab" d="m298.4 716.4l0.5-3 28.9 4.1-0.4 3z"/>
	<path id="Forma 388"  style="fill: #6d92ab" d="m325.5 717.6l3 0.4-1.1 8.2-3-0.4z"/>
	<path id="Forma 389"  style="fill: #6d92ab" d="m326 361.9l-2.8 1.1-2.2-5.6 2.9-1.1z"/>
	<path id="Forma 390"  style="fill: #6d92ab" d="m412.7 351.9l-3 0.4-0.9-6.2 3-0.5z"/>
	<path id="Forma 391"  style="fill: #6d92ab" d="m413.6 735.9h-3l-0.1-7.2h3z"/>
	<path id="Forma 392"  style="fill: #6d92ab" d="m410.2 730l0.2-3 31.2 2.9-0.3 3z"/>
	<path id="Forma 393"  style="fill: #6d92ab" d="m440 732.5l0.2-3 34.8 2.3-0.2 3z"/>
	<path id="Forma 394"  style="fill: #6d92ab" d="m473.6 734.5l0.2-3 32.1 2-0.1 3z"/>
	<path id="Forma 395"  style="fill: #6d92ab" d="m505.3 736.4l0.1-3 28.7 1.5-0.2 3z"/>
	<path id="Forma 396"  style="fill: #6d92ab" d="m532.6 737.8l0.1-3 30.5 1.1-0.2 3z"/>
	<path id="Forma 397"  style="fill: #6d92ab" d="m562.3 738.9l0.1-3 35.6 1.2-0.1 3z"/>
	<path id="Forma 398"  style="fill: #6d92ab" d="m597 740.1l0.1-3 27.7 0.3v3z"/>
	<path id="Forma 399"  style="fill: #6d92ab" d="m626 741.2l-2.3-1.9 4.1-5 2.3 1.8z"/>
	<path id="Forma 400"  style="fill: #6d92ab" d="m628.2 737.3v-3l73.6 0.6-0.1 3z"/>
	<path id="Forma 401"  style="fill: #6d92ab" d="m700.7 737.9v-3l94.7 1-0.1 3z"/>
	<path id="Forma 402"  style="fill: #6d92ab" d="m794.2 738.9v-3l25.6 0.3v3z"/>
	<path id="Forma 403"  style="fill: #6d92ab" d="m817.9 738.9l1.6-2.6 7.8 4.9-1.6 2.5z"/>
	<path id="Forma 404"  style="fill: #6d92ab" d="m825 741.4h3l-0.2 7h-3z"/>
	<path id="Forma 405"  style="fill: #6d92ab" d="m908.5 749.1l-3 0.1-0.3-7 3-0.1z"/>
	<path id="Forma 406"  style="fill: #6d92ab" d="m905 743.5v-3l80.5 0.4v3z"/>
	<path id="Forma 407"  style="fill: #6d92ab" d="m984.6 743.7v-3l93.9-1.5v3z"/>
	<path id="Forma 408"  style="fill: #6d92ab" d="m1077.1 742.2l-0.1-3 59-1.5 0.1 3z"/>
	<path id="Forma 409"  style="fill: #6d92ab" d="m1135.2 740.8l-0.1-3 66.6-2.9 0.2 3z"/>
	<path id="Forma 410"  style="fill: #6d92ab" d="m1201.1 738.1l-0.2-3 53.4-3.3 0.2 3z"/>
	<path id="Forma 411"  style="fill: #6d92ab" d="m1252.8 735l-0.2-3 26.9-1.9 0.2 3z"/>
	<path id="Forma 412"  style="fill: #6d92ab" d="m1278.4 733.3l-0.7-2.9 9.9-2.6 0.7 2.9z"/>
	<path id="Forma 413"  style="fill: #6d92ab" d="m1288.2 731.3l-1.4-2.6 7.4-4.1 1.4 2.7z"/>
	<path id="Forma 414"  style="fill: #6d92ab" d="m1295.5 728.1l-1.6-2.6 5.3-3.1 1.6 2.6z"/>
	<path id="Forma 415"  style="fill: #6d92ab" d="m1300.7 725.1l-1.8-2.4 4-2.9 1.8 2.5z"/>
	<path id="Forma 416"  style="fill: #6d92ab" d="m1304.5 722.7l-1.9-2.3 5.4-4.5 1.9 2.3z"/>
	<path id="Forma 417"  style="fill: #6d92ab" d="m1308.9 718.8l-1.9-2.3 6.8-5.5 1.9 2.3z"/>
	<path id="Forma 418"  style="fill: #6d92ab" d="m1315.1 713.7l-2.4-1.9 5-6 2.3 1.9z"/>
	<path id="Forma 419"  style="fill: #6d92ab" d="m1319.7 708.2l-2.4-1.8 5.4-7.5 2.4 1.7z"/>
	<path id="Forma 420"  style="fill: #6d92ab" d="m1325.2 700.4l-2.6-1.4 5.3-10 2.7 1.5z"/>
	<path id="Forma 421"  style="fill: #6d92ab" d="m1330.6 690.5l-2.7-1.4 5.8-10.7 2.6 1.4z"/>
	<path id="Forma 422"  style="fill: #6d92ab" d="m1336.3 680l-2.7-1.2 6.4-14.3 2.7 1.3z"/>
	<path id="Forma 423"  style="fill: #6d92ab" d="m1342.7 666.1l-2.8-1.1 7-17.5 2.8 1.2z"/>
	<path id="Forma 424"  style="fill: #6d92ab" d="m1349.7 648.8l-2.9-0.8 4.9-16.2 2.8 0.9z"/>
	<path id="Forma 425"  style="fill: #6d92ab" d="m1354.5 633.1l-2.9-0.7 4-16.2 2.9 0.7z"/>
	<path id="Forma 426"  style="fill: #6d92ab" d="m1358.5 617l-2.9-0.7 3.7-15.5 2.9 0.7z"/>
	<path id="Forma 427"  style="fill: #6d92ab" d="m1362.6 602l-3-0.4 1.9-16.7 3 0.3z"/>
	<path id="Forma 428"  style="fill: #6d92ab" d="m1364.5 585.9l-3-0.3 2.2-22.2 3 0.3z"/>
	<path id="Forma 429"  style="fill: #6d92ab" d="m1366.6 564.2l-3-0.2 0.8-13.6 3 0.2z"/>
	<path id="Forma 430"  style="fill: #6d92ab" d="m1367.7 551.1h-3v-34.5h3z"/>
	<path id="Forma 431"  style="fill: #6d92ab" d="m1368.1 517.1l-2.9 0.4-1.9-14.8 3-0.3z"/>
	<path id="Forma 432"  style="fill: #6d92ab" d="m1366.7 503l-3 0.4-1.9-14.4 3-0.4z"/>
	<path id="Forma 433"  style="fill: #6d92ab" d="m1365.1 489.2l-3 0.5-2.4-16.1 3-0.5z"/>
	<path id="Forma 434"  style="fill: #6d92ab" d="m1362.6 473.7l-2.9 0.6-3.4-15.7 2.9-0.6z"/>
	<path id="Forma 435"  style="fill: #6d92ab" d="m1359.9 458.9l-2.9 0.8-5.6-20.2 2.9-0.8z"/>
	<path id="Forma 436"  style="fill: #6d92ab" d="m1127 381h3l0.2 14.4h-3z"/>
	<path id="Forma 437"  style="fill: #6d92ab" d="m1129 393.2l0.8 2.9-3.6 1-0.9-2.8z"/>
	<path id="Forma 438"  style="fill: #6d92ab" d="m1126.1 394.2l-0.3 3-2.4-0.3 0.3-3z"/>
	<path id="Forma 439"  style="fill: #6d92ab" d="m1125.1 395.3l-3 0.3-0.2-3.2 2.9-0.3z"/>
	<path id="Forma 440"  style="fill: #6d92ab" d="m1124.8 392.4h-3v-4.6h3z"/>
	<path id="Forma 441"  style="fill: #6d92ab" d="m1124.8 386.1l-0.1 3-89.3-0.9v-3z"/>
	<path id="Forma 442"  style="fill: #6d92ab" d="m1036.6 385.1v3l-112.1-1.1v-3z"/>
	<path id="Forma 443"  style="fill: #6d92ab" d="m923.1 384.1l3-0.1 0.2 4.8-3 0.1z"/>
	<path id="Forma 444"  style="fill: #6d92ab" d="m925.3 386.8l0.7 3-3.4 0.8-0.7-2.9z"/>
	<path id="Forma 445"  style="fill: #6d92ab" d="m922.7 387.6l-0.2 3-1.8-0.1 0.1-3z"/>
	<path id="Forma 446"  style="fill: #6d92ab" d="m922.4 388.2l-2.1 2.2-1.1-1.1 2.1-2.2z"/>
	<path id="Forma 447"  style="fill: #6d92ab" d="m921.8 388.5h-3v-12.4h3z"/>
	<path id="Forma 448"  style="fill: #6d92ab" d="m878.6 377.1h3v13.5h-3z"/>
	<path id="Forma 449"  style="fill: #6d92ab" d="m880.4 388.4v3h-44.5v-3z"/>
	<path id="Forma 450"  style="fill: #6d92ab" d="m881.8 388.5l-0.1 3-3.2-0.1 0.1-3z"/>
	<path id="Forma 451"  style="fill: #6d92ab" d="m466.1 439.9h-3v-41.9h3z"/>
	<path id="Forma 452"  style="fill: #6d92ab" d="m463.5 399.9l-0.2-3 25.5-1.2 0.1 3z"/>
	<path id="Forma 453"  style="fill: #6d92ab" d="m488 398.9l-0.3-2.9 28.8-2 0.2 2.9z"/>
	<path id="Forma 454"  style="fill: #6d92ab" d="m515.7 397.3l-0.2-3 24.3-1.6 0.2 3z"/>
	<path id="Forma 455"  style="fill: #6d92ab" d="m539 395.7l-0.2-3 30.3-1.1 0.1 3z"/>
	<path id="Forma 456"  style="fill: #6d92ab" d="m568.9 394.7l-0.2-3 24.1-1.3 0.1 3z"/>
	<path id="Forma 457"  style="fill: #6d92ab" d="m592.8 393.4v-3l19.3-0.5 0.1 3z"/>
	<path id="Forma 458"  style="fill: #6d92ab" d="m611.9 393.1l-0.1-3 11.1-0.2 0.1 3z"/>
	<path id="Forma 459"  style="fill: #6d92ab" d="m620.1 390.2h3v17.8h-3z"/>
	<path id="Forma 460"  style="fill: #6d92ab" d="m620.8 407.9v-3h44.9v3z"/>
	<path id="Forma 461"  style="fill: #6d92ab" d="m666.3 406.9h-3v-18.8h3z"/>
	<path id="Forma 462"  style="fill: #6d92ab" d="m664.3 390.8l-0.1-3 27.4-0.7 0.1 3z"/>
	<path id="Forma 463"  style="fill: #6d92ab" d="m690.6 390.1v-3l25.8-0.1v3z"/>
	<path id="Forma 464"  style="fill: #6d92ab" d="m715.5 390.2l-0.1-3 36.9-1v3z"/>
	<path id="Forma 465"  style="fill: #6d92ab" d="m751.2 389.3v-3l26.9-0.3 0.1 3z"/>
	<path id="Forma 466"  style="fill: #6d92ab" d="m777.1 389.1v-3h59.6v3z"/>
	<path id="Forma 467"  style="fill: #6d92ab" d="m833.7 386.9h3v75.9h-3z"/>
	<path id="Forma 468"  style="fill: #6d92ab" d="m835.1 462.8v-3h42.9v3z"/>
	<path id="Forma 469"  style="fill: #6d92ab" d="m855.7 461.1h3v94.8h-3z"/>
	<path id="Forma 470"  style="fill: #6d92ab" d="m834.1 550.4l2.2-2.1 5.4 5.5-2.2 2.1z"/>
	<path id="Forma 471"  style="fill: #6d92ab" d="m839.6 555.6v-3h19v3z"/>
	<path id="Forma 472"  style="fill: #6d92ab" d="m858.8 535.3l-2.1-2.1 21.9-21.9 2.1 2.1z"/>
	<path id="Forma 473"  style="fill: #6d92ab" d="m857.2 513.8v-3h45.7v3z"/>
	<path id="Forma 474"  style="fill: #6d92ab" d="m900.4 487h3v113h-3z"/>
	<path id="Forma 475"  style="fill: #6d92ab" d="m902.1 597.1v3h-58v-3z"/>
	<path id="Forma 476"  style="fill: #6d92ab" d="m878.3 599.9l-2.1-2.1 24.6-24.6 2.1 2.1z"/>
	<path id="Forma 477"  style="fill: #6d92ab" d="m1071.3 387.4h3v127.3h-3z"/>
	<path id="Forma 478"  style="fill: #6d92ab" d="m1079.5 513.2v3h-92.3v-3z"/>
	<path id="Forma 479"  style="fill: #6d92ab" d="m988.6 512.7l2.1 2.1-10.3 10.4-2.1-2.2z"/>
	<path id="Forma 480"  style="fill: #6d92ab" d="m944.1 498h3v26.3h-3z"/>
	<path id="Forma 481"  style="fill: #6d92ab" d="m944.5 525.4v-3h37.7v3z"/>
	<path id="Forma 482"  style="fill: #6d92ab" d="m979.5 523.3h3v90.9h-3z"/>
	<path id="Forma 483"  style="fill: #6d92ab" d="m964.5 601.3l2.1-2.1 34.5 34.6-2.1 2.1z"/>
	<path id="Forma 484"  style="fill: #6d92ab" d="m998.6 636v-3h14.9v3z"/>
	<path id="Forma 485"  style="fill: #6d92ab" d="m1059.7 635.4v-3h35.4v3z"/>
	<path id="Forma 486"  style="fill: #6d92ab" d="m1064 594.7v-3h16.4v3z"/>
	<path id="Forma 487"  style="fill: #6d92ab" d="m1081.2 593.5h-3v-80.4h3z"/>
	<path id="Forma 488"  style="fill: #6d92ab" d="m847 598.7h-3v-45.3h3z"/>
	<path id="Forma 489"  style="fill: #6d92ab" d="m858.2 598.3h-3v-43.5h3z"/>
	<path id="Forma 490"  style="fill: #6d92ab" d="m855.3 554.3l2.8-1.2 19.5 43.9-2.7 1.2z"/>
	<path id="Forma 491"  style="fill: #6d92ab" d="m856.1 553.9l2.2-2.1 32.3 33.4-2.1 2.1z"/>
	<path id="Forma 492"  style="fill: #6d92ab" d="m857.7 554.9l1.1-2.7 42.4 18.1-1.2 2.8z"/>
	<path id="Forma 493"  style="fill: #6d92ab" d="m858.3 553.5v-3h43.7v3z"/>
	<path id="Forma 494"  style="fill: #6d92ab" d="m857.5 535.9l1.2-2.8 43.2 17.8-1.2 2.8z"/>
	<path id="Forma 495"  style="fill: #6d92ab" d="m901.5 550.9l-2.1 2.2-30.8-29.8 2.1-2.1z"/>
	<path id="Forma 496"  style="fill: #6d92ab" d="m902.7 551l-2.7 1.3-18.4-39.1 2.7-1.3z"/>
	<path id="Forma 497"  style="fill: #6d92ab" d="m464.8 434.2v-3h56.1v3z"/>
	<path id="Forma 498"  style="fill: #6d92ab" d="m518.7 432h3v7.1h-3z"/>
	<path id="Forma 499"  style="fill: #6d92ab" d="m518.6 439.3l2.3-2 3.7 4.3-2.3 1.9z"/>
	<path id="Forma 500"  style="fill: #6d92ab" d="m521.6 442.7l1.7-2.5 3 2-1.7 2.5z"/>
	<path id="Forma 501"  style="fill: #6d92ab" d="m523.9 444.4v-3h79.6v3z"/>
	<path id="Forma 502"  style="fill: #6d92ab" d="m603.4 444.5l-1.5-2.6 3.1-1.8 1.5 2.6z"/>
	<path id="Forma 503"  style="fill: #6d92ab" d="m605.8 443.1l-2.3-2 2.2-2.5 2.3 2z"/>
	<path id="Forma 504"  style="fill: #6d92ab" d="m607.8 441l-2.8-1.2 1.2-2.8 2.7 1.1z"/>
	<path id="Forma 505"  style="fill: #6d92ab" d="m609.3 438.4h-3v-6.6h3z"/>
	<path id="Forma 506"  style="fill: #6d92ab" d="m607 433.9v-3h57.5v3z"/>
	<path id="Forma 507"  style="fill: #6d92ab" d="m662.6 432.4l2.1-2.1 14.6 14.6-2.1 2.1z"/>
	<path id="Forma 508"  style="fill: #6d92ab" d="m678.8 446.7l-2.5-1.7 5-7.4 2.4 1.7z"/>
	<path id="Forma 509"  style="fill: #6d92ab" d="m683.4 439.9l-2.3-1.9 4.9-5.7 2.3 2z"/>
	<path id="Forma 510"  style="fill: #6d92ab" d="m687.9 434.7l-2.2-2.1 7.1-7.2 2.1 2.1z"/>
	<path id="Forma 511"  style="fill: #6d92ab" d="m694.8 427.6l-1.9-2.3 9.6-8 1.9 2.3z"/>
	<path id="Forma 512"  style="fill: #6d92ab" d="m704 420.1l-1.6-2.5 11.2-7.3 1.6 2.5z"/>
	<path id="Forma 513"  style="fill: #6d92ab" d="m714.1 413.4l-1-2.9 11.4-4.1 1 2.8z"/>
	<path id="Forma 514"  style="fill: #6d92ab" d="m724.7 409.3l-0.6-2.9 13.5-3.1 0.7 2.9z"/>
	<path id="Forma 515"  style="fill: #6d92ab" d="m737.3 406.7l-0.3-3 15.5-1.6 0.3 3z"/>
	<path id="Forma 516"  style="fill: #6d92ab" d="m752 405.3l0.1-3 12.5 0.4-0.1 3z"/>
	<path id="Forma 517"  style="fill: #6d92ab" d="m764 405.4l0.8-2.9 12.1 3.2-0.7 2.9z"/>
	<path id="Forma 518"  style="fill: #6d92ab" d="m775.7 408.6l1.1-2.8 10.9 4.5-1.2 2.8z"/>
	<path id="Forma 519"  style="fill: #6d92ab" d="m785.9 412.7l1.6-2.5 7.4 4.7-1.6 2.5z"/>
	<path id="Forma 520"  style="fill: #6d92ab" d="m792.8 416.9l1.8-2.4 8.8 6.6-1.8 2.4z"/>
	<path id="Forma 521"  style="fill: #6d92ab" d="m801.2 423.1l2.1-2.2 6.9 6.6-2.1 2.1z"/>
	<path id="Forma 522"  style="fill: #6d92ab" d="m807.9 429.3l2.2-2 7.2 7.6-2.2 2.1z"/>
	<path id="Forma 523"  style="fill: #6d92ab" d="m814.7 436.5l2.4-1.7 7 10.1-2.5 1.7z"/>
	<path id="Forma 524"  style="fill: #6d92ab" d="m821.4 445.9l2.6-1.4 4.8 9-2.7 1.4z"/>
	<path id="Forma 525"  style="fill: #6d92ab" d="m825.9 454.2l2.8-1 3.6 10.6-2.8 1z"/>
	<path id="Forma 526"  style="fill: #6d92ab" d="m829.4 463.9l2.9-0.8 3.6 13-2.9 0.8z"/>
	<path id="Forma 527"  style="fill: #6d92ab" d="m833.6 458.1h3v18.4h-3z"/>
	<path id="Forma 528"  style="fill: #6d92ab" d="m833.9 469.6h3v80.3h-3z"/>
	<path id="Forma 529"  style="fill: #6d92ab" d="m465.4 647.5v-3h27.6v3z"/>
	<path id="Forma 530"  style="fill: #6d92ab" d="m491.5 644.2h3v24.4h-3z"/>
	<path id="Forma 531"  style="fill: #6d92ab" d="m491.3 669.5v-3h130.9v3z"/>
	<path id="Forma 532"  style="fill: #6d92ab" d="m625.1 687.9h-3v-24.4h3z"/>
	<path id="Forma 533"  style="fill: #6d92ab" d="m625.5 664.5l-2.5-1.6 3.3-5.1 2.5 1.7z"/>
	<path id="Forma 534"  style="fill: #6d92ab" d="m626.3 660v-3h38.1v3z"/>
	<path id="Forma 535"  style="fill: #6d92ab" d="m662.9 658.2l2.6-1.6 3.6 6.1-2.6 1.6z"/>
	<path id="Forma 536"  style="fill: #6d92ab" d="m667.1 662.6h3v25.9h-3z"/>
	<path id="Forma 537"  style="fill: #6d92ab" d="m633.1 658.8l-1.8-2.5 4.8-3.5 1.8 2.4z"/>
	<path id="Forma 538"  style="fill: #6d92ab" d="m637.9 655.2l-2.1-2.2 4.6-4.4 2.1 2.2z"/>
	<path id="Forma 539"  style="fill: #6d92ab" d="m642.7 650.6l-2.4-1.7 3.3-4.6 2.4 1.7z"/>
	<path id="Forma 540"  style="fill: #6d92ab" d="m646.1 646.2l-2.5-1.6 4.2-6.3 2.5 1.6z"/>
	<path id="Forma 541"  style="fill: #6d92ab" d="m650.5 640.2l-2-2.2 0.6-0.5 2 2.2z"/>
	<path id="Forma 542"  style="fill: #6d92ab" d="m650.7 640l-2.8-1.1 2.9-7.3 2.8 1.1z"/>
	<path id="Forma 543"  style="fill: #6d92ab" d="m653.3 633.8l-2.9-0.9 2.4-7.8 2.9 0.9z"/>
	<path id="Forma 544"  style="fill: #6d92ab" d="m644.8 579.8h-3v-4.3h3z"/>
	<path id="Forma 545"  style="fill: #6d92ab" d="m641.9 576.8v-3h14v3z"/>
	<path id="Forma 546"  style="fill: #6d92ab" d="m654.4 573.9h3v52.1h-3z"/>
	<path id="Forma 547"  style="fill: #6d92ab" d="m654.1 626l2.7-1.3 1.7 3.5-2.7 1.3z"/>
	<path id="Forma 548"  style="fill: #6d92ab" d="m655.6 629.1l2.5-1.7 2.8 4.2-2.5 1.7z"/>
	<path id="Forma 549"  style="fill: #6d92ab" d="m658 632.6l2.3-1.8 3.9 4.9-2.4 1.8z"/>
	<path id="Forma 550"  style="fill: #6d92ab" d="m661.3 636.7l2.3-2 3.8 4.3-2.3 2z"/>
	<path id="Forma 551"  style="fill: #6d92ab" d="m664.6 641.1l1.5-2.6 4.6 2.7-1.5 2.6z"/>
	<path id="Forma 552"  style="fill: #6d92ab" d="m668.9 643.6l0.5-3 6.6 1.3-0.5 2.9z"/>
	<path id="Forma 553"  style="fill: #6d92ab" d="m674.2 644.9v-3h41.6v3z"/>
	<path id="Forma 554"  style="fill: #6d92ab" d="m718.4 645.6h-3v-5h3z"/>
	<path id="Forma 555"  style="fill: #6d92ab" d="m717.7 642.2l-2.1-2.2 4.4-4.2 2.1 2.1z"/>
	<path id="Forma 556"  style="fill: #6d92ab" d="m719.8 638.9v-3h63v3z"/>
	<path id="Forma 557"  style="fill: #6d92ab" d="m780.4 638.2l1.9-2.4 5.6 4.6-1.9 2.3z"/>
	<path id="Forma 558"  style="fill: #6d92ab" d="m784.8 640.3h3v4.7h-3z"/>
	<path id="Forma 559"  style="fill: #6d92ab" d="m785.6 645.2v-3h61.2v3z"/>
	<path id="Forma 560"  style="fill: #6d92ab" d="m837.9 691.8h-3v-47.9h3z"/>
	<path id="Forma 561"  style="fill: #6d92ab" d="m837 646.8v-3h44.3v3z"/>
	<path id="Forma 562"  style="fill: #6d92ab" d="m918.2 645.9v-3h26.2v3z"/>
	<path id="Forma 563"  style="fill: #6d92ab" d="m942.2 645.8l2.2-2.1 12.8 12.9-2.1 2.1z"/>
	<path id="Forma 564"  style="fill: #6d92ab" d="m954.9 656.3h3v31.9h-3z"/>
	<path id="Forma 565"  style="fill: #6d92ab" d="m943.3 600.2v-3h37.1v3z"/>
	<path id="Forma 1"  style="fill: #6d92ab" d="m45 543.8l-2.9-1 9.2-24.3 2.8 1.1z"/>
	<path id="Forma 2"  style="fill: #6d92ab" d="m54.1 519.7l-2.7-1.3 8.6-17.2 2.7 1.3z"/>
	<path id="Forma 3"  style="fill: #6d92ab" d="m62.3 503.3l-2.6-1.6 14.6-22.7 2.5 1.6z"/>
	<path id="Forma 4"  style="fill: #6d92ab" d="m76 481.6l-2.4-1.8 11.9-15.5 2.4 1.9z"/>
	<path id="Forma 5"  style="fill: #6d92ab" d="m87.8 466.3l-2.2-2.1 13.9-15 2.2 2z"/>
	<path id="Forma 6"  style="fill: #6d92ab" d="m101.6 451.3l-2-2.2 11.4-10.8 2 2.2z"/>
	<path id="Forma 7"  style="fill: #6d92ab" d="m113 440.6l-1.9-2.4 17.4-14 1.9 2.3z"/>
	<path id="Forma 8"  style="fill: #6d92ab" d="m129.3 427.1l-1.7-2.4 20.3-13.8 1.7 2.5z"/>
	<path id="Forma 9"  style="fill: #6d92ab" d="m149.5 413.4l-1.5-2.6 22.6-13 1.5 2.6z"/>
	<path id="Forma 10"  style="fill: #6d92ab" d="m171.9 400.5l-1.2-2.7 25.3-11.1 1.2 2.8z"/>
	<path id="Forma 11"  style="fill: #6d92ab" d="m197.1 389.5l-1-2.8 26.1-9 1 2.8z"/>
	<path id="Forma 12"  style="fill: #6d92ab" d="m222.4 381.3l-0.9-2.9 30-9.3 0.9 2.9z"/>
	<path id="Forma 13"  style="fill: #6d92ab" d="m252.2 372l-0.7-2.9 29-6.7 0.7 2.9z"/>
	<path id="Forma 14"  style="fill: #6d92ab" d="m281.1 365.3l-0.5-2.9 31.9-5.5 0.5 2.9z"/>
	<path id="Forma 15"  style="fill: #6d92ab" d="m312 360.2l-0.4-2.9 44.2-7 0.4 3z"/>
	<path id="Forma 16"  style="fill: #6d92ab" d="m356.2 353.3l-0.4-3 60.5-7.1 0.3 3z"/>
	<path id="Forma 17"  style="fill: #6d92ab" d="m416.6 346.2l-0.2-3 64.1-5.1 0.2 3z"/>
	<path id="Forma 18"  style="fill: #6d92ab" d="m479.9 341l-0.1-3 121.6-5.7 0.1 3z"/>
	<path id="Forma 19"  style="fill: #6d92ab" d="m599.2 335.3v-3l221.9-4.7 0.1 3z"/>
	<path id="Forma 20"  style="fill: #6d92ab" d="m820 330.3v-3l205.5-0.1v3z"/>
	<path id="Forma 21"  style="fill: #6d92ab" d="m1023.9 330.6v-3l158.6 1.8v3z"/>
	<path id="Forma 22"  style="fill: #6d92ab" d="m1180.2 332.4l0.1-3 148.8 5.8-0.1 3z"/>
	<path id="Forma 23"  style="fill: #6d92ab" d="m1327.2 338.3l0.2-3 146 11.8-0.2 3z"/>
	<path id="Forma 24"  style="fill: #6d92ab" d="m1471.5 349.6l0.5-3 59.1 9.1-0.4 3z"/>
	<path id="Forma 25"  style="fill: #6d92ab" d="m1529.6 358.6l0.5-2.9 50.2 10.1-0.6 2.9z"/>
	<path id="Forma 26"  style="fill: #6d92ab" d="m1578.5 368.5l0.8-3 41 10.3-0.7 2.9z"/>
	<path id="Forma 27"  style="fill: #6d92ab" d="m1618.7 378.1l0.9-2.8 47.8 14.4-0.9 2.9z"/>
	<path id="Forma 28"  style="fill: #6d92ab" d="m1665.5 391.9l1.1-2.8 44.3 17.3-1.1 2.8z"/>
	<path id="Forma 29"  style="fill: #6d92ab" d="m1708.4 408.5l1.3-2.7 32.5 14.9-1.3 2.8z"/>
	<path id="Forma 30"  style="fill: #6d92ab" d="m1738.7 422.2l1.5-2.6 46.3 25.7-1.5 2.6z"/>
	<path id="Forma 31"  style="fill: #6d92ab" d="m1783.5 446.9l1.7-2.4 32.1 22.3-1.7 2.4z"/>
	<path id="Forma 32"  style="fill: #6d92ab" d="m1814.5 468.1l1.9-2.3 20.6 17.1-1.9 2.3z"/>
	<path id="Forma 33"  style="fill: #6d92ab" d="m1834.1 484.3l2-2.2 17.7 16.3-2 2.2z"/>
	<path id="Forma 34"  style="fill: #6d92ab" d="m1850.2 499l2.3-1.9 9.7 11.7-2.3 1.9z"/>
	<path id="Forma 35"  style="fill: #6d92ab" d="m1859 509.1l2.7-1.3 4.9 10.3-2.7 1.3z"/>
	<path id="Forma 36"  style="fill: #6d92ab" d="m1863.5 517.7l2.8-0.8 2.4 8.6-2.9 0.8z"/>
	<path id="Forma 37"  style="fill: #6d92ab" d="m1865.5 523.7l3-0.5 1 6.6-3 0.4z"/>
	<path id="Forma 38"  style="fill: #6d92ab" d="m1866.4 528.8h3v13.4h-3z"/>
	<path id="Forma 39"  style="fill: #6d92ab" d="m1866.9 540.8l2.9 0.9-1.8 6.1-2.9-0.9z"/>
	<path id="Forma 40"  style="fill: #6d92ab" d="m1865.7 546.1l2.8 1-3.4 9.4-2.8-1z"/>
	<path id="Forma 41"  style="fill: #6d92ab" d="m1862.8 554.1l2.5 1.6-8.1 12.2-2.5-1.7z"/>
	<path id="Forma 42"  style="fill: #6d92ab" d="m1855.5 565.2l2.2 2.1-13.5 13.8-2.1-2.1z"/>
	<path id="Forma 43"  style="fill: #6d92ab" d="m1842.8 578.5l2 2.3-10 8.8-2-2.3z"/>
	<path id="Forma 44"  style="fill: #6d92ab" d="m1833.5 586.6l1.9 2.4-17.6 14.4-1.9-2.4z"/>
	<path id="Forma 45"  style="fill: #6d92ab" d="m1817.6 600.3l1.8 2.4-19.4 13.6-1.7-2.5z"/>
	<path id="Forma 46"  style="fill: #6d92ab" d="m1799.3 613.1l1.6 2.6-17.3 11.2-1.7-2.5z"/>
	<path id="Forma 47"  style="fill: #6d92ab" d="m1782.7 624l1.6 2.5-16.7 10.4-1.6-2.5z"/>
	<path id="Forma 48"  style="fill: #6d92ab" d="m1767.6 633.7l1.4 2.7-16.7 8.9-1.4-2.7z"/>
	<path id="Forma 49"  style="fill: #6d92ab" d="m1751.3 642.4l1.3 2.7-20.8 10.6-1.4-2.7z"/>
	<path id="Forma 50"  style="fill: #6d92ab" d="m1731.3 653l1.2 2.7-24.8 11-1.2-2.7z"/>
	<path id="Forma 51"  style="fill: #6d92ab" d="m1707.2 663.6l1.1 2.8-28.4 11.2-1.1-2.8z"/>
	<path id="Forma 52"  style="fill: #6d92ab" d="m1680.2 674.5l1 2.9-24.1 8.3-1-2.8z"/>
	<path id="Forma 53"  style="fill: #6d92ab" d="m1657.3 682.6l0.9 2.9-19.6 5.8-0.8-2.8z"/>
	<path id="Forma 54"  style="fill: #6d92ab" d="m1639.9 688.3l0.8 2.9-20.2 5.5-0.8-2.9z"/>
	<path id="Forma 55"  style="fill: #6d92ab" d="m1621 693.4l0.8 2.9-26.5 6.9-0.7-2.9z"/>
	<path id="Forma 56"  style="fill: #6d92ab" d="m1595.7 700l0.8 2.9-29.1 7.4-0.8-2.9z"/>
	<path id="Forma 57"  style="fill: #6d92ab" d="m1568.3 707.3l0.6 3-20 3.5-0.5-2.9z"/>
	<path id="Forma 58"  style="fill: #6d92ab" d="m1549.5 710.9l0.6 3-19.7 3.6-0.5-3z"/>
	<path id="Forma 59"  style="fill: #6d92ab" d="m1530.7 714.4l0.5 3-18.2 2.9-0.5-2.9z"/>
	<path id="Forma 60"  style="fill: #6d92ab" d="m1513.6 717.3l0.4 3-19.7 3.1-0.5-3z"/>
	<path id="Forma 61"  style="fill: #6d92ab" d="m1494.5 720.2l0.5 3-23.3 3.5-0.4-3z"/>
	<path id="Forma 62"  style="fill: #6d92ab" d="m1472.3 723.5l0.3 3-21.7 2.7-0.4-3z"/>
	<path id="Forma 63"  style="fill: #6d92ab" d="m1451.9 726.1l0.3 3-63.5 6.3-0.3-3z"/>
	<path id="Forma 64"  style="fill: #6d92ab" d="m1389.9 732.3l0.2 3-46.7 3.5-0.3-3z"/>
	<path id="Forma 65"  style="fill: #6d92ab" d="m1344 735.8l0.2 3-46.3 3.1-0.2-3z"/>
	<path id="Forma 66"  style="fill: #6d92ab" d="m1298.7 739l0.1 3-101.4 4.3-0.2-3z"/>
	<path id="Forma 67"  style="fill: #6d92ab" d="m1197.8 743.4l0.1 3-126.3 2.8-0.1-3z"/>
	<path id="Forma 68"  style="fill: #6d92ab" d="m1072.5 746v3l-170.2 1.5v-3z"/>
	<path id="Forma 69"  style="fill: #6d92ab" d="m903.4 747.5v3l-135.8-0.2v-3z"/>
	<path id="Forma 70"  style="fill: #6d92ab" d="m769.4 747.2l-0.1 3-146.5-1.6 0.1-3z"/>
	<path id="Forma 71"  style="fill: #6d92ab" d="m627 745.6l-0.1 2.9-91-2.8 0.1-3z"/>
	<path id="Forma 72"  style="fill: #6d92ab" d="m537.2 742.7l-0.2 3-112.3-6.5 0.1-2.9z"/>
	<path id="Forma 73"  style="fill: #6d92ab" d="m426.7 736.3l-0.3 2.9-52.4-4.9 0.3-3z"/>
	<path id="Forma 74"  style="fill: #6d92ab" d="m376.7 731.3l-0.4 3-61-8.2 0.4-3z"/>
	<path id="Forma 75"  style="fill: #6d92ab" d="m316.8 723.1l-0.5 3-66.4-13.3 0.6-2.9z"/>
	<path id="Forma 76"  style="fill: #6d92ab" d="m251.5 709.9l-0.9 2.9-53.5-16.8 0.9-2.9z"/>
	<path id="Forma 77"  style="fill: #6d92ab" d="m199.6 693.4l-1.1 2.8-29-12.1 1.1-2.7z"/>
	<path id="Forma 78"  style="fill: #6d92ab" d="m171.4 681.7l-1.4 2.6-17.1-9.3 1.4-2.6z"/>
	<path id="Forma 79"  style="fill: #6d92ab" d="m154.5 672.5l-1.7 2.5-23.5-15.8 1.6-2.5z"/>
	<path id="Forma 80"  style="fill: #6d92ab" d="m131.7 657.2l-1.8 2.4-17.3-13.6 1.9-2.3z"/>
	<path id="Forma 81"  style="fill: #6d92ab" d="m115 644.4l-2.1 2.2-13.6-12.5 2-2.2z"/>
	<path id="Forma 82"  style="fill: #6d92ab" d="m102.2 632.5l-2.2 2-10.5-11.5 2.2-2z"/>
	<path id="Forma 83"  style="fill: #6d92ab" d="m91.7 621l-2.3 2-10.4-12 2.3-2z"/>
	<path id="Forma 84"  style="fill: #6d92ab" d="m82 609.6l-2.3 1.8-11-14.2 2.4-1.8z"/>
	<path id="Forma 85"  style="fill: #6d92ab" d="m71.7 595.9l-2.5 1.6-10.6-16.8 2.6-1.6z"/>
	<path id="Forma 86"  style="fill: #6d92ab" d="m61.5 579.9l-2.6 1.4-5.1-9.8 2.7-1.3z"/>
	<path id="Forma 87"  style="fill: #6d92ab" d="m57.1 570.8l-2.8 1.2-12.4-29 2.7-1.2z"/>
	<path id="Forma 88"  style="fill: #6d92ab" d="m1311.7 740.5l-1.1-2.8 10.9-4.2 1.1 2.8z"/>
	<path id="Forma 89"  style="fill: #6d92ab" d="m1321.8 736.8l-1.2-2.8 13.8-6 1.2 2.7z"/>
	<path id="Forma 90"  style="fill: #6d92ab" d="m1334.5 731.8l-1.7-2.4 9-6.3 1.7 2.5z"/>
	<path id="Forma 91"  style="fill: #6d92ab" d="m1343 726.2l-2-2.2 6.3-5.6 2 2.3z"/>
	<path id="Forma 92"  style="fill: #6d92ab" d="m1348.9 721.2l-2.2-2 8.9-10.2 2.3 2z"/>
	<path id="Forma 93"  style="fill: #6d92ab" d="m1357.5 711.7l-2.5-1.7 10.1-14.8 2.4 1.7z"/>
	<path id="Forma 94"  style="fill: #6d92ab" d="m1366.9 697.8l-2.7-1.3 16.7-34.9 2.7 1.3z"/>
	<path id="Forma 95"  style="fill: #6d92ab" d="m1382.9 664.1l-2.8-0.9 9.9-32 2.9 0.9z"/>
	<path id="Forma 96"  style="fill: #6d92ab" d="m1392.5 633.2l-2.9-0.7 6.9-28.3 2.9 0.7z"/>
	<path id="Forma 97"  style="fill: #6d92ab" d="m1398.9 606.3l-2.9-0.4 3.6-28.4 3 0.4z"/>
	<path id="Forma 98"  style="fill: #6d92ab" d="m1402.3 579l-3-0.2 2.2-23.7 3 0.3z"/>
	<path id="Forma 99"  style="fill: #6d92ab" d="m1404.3 556.5l-3-0.1 1-19.5 3 0.1z"/>
	<path id="Forma 100"  style="fill: #6d92ab" d="m1405.3 537.9l-3 0.1-0.5-18.3 3-0.1z"/>
	<path id="Forma 101"  style="fill: #6d92ab" d="m1405 520l-3 0.1-1.4-20.8 3-0.2z"/>
	<path id="Forma 102"  style="fill: #6d92ab" d="m1403.7 499.5l-3 0.3-2.2-20.8 3-0.3z"/>
	<path id="Forma 103"  style="fill: #6d92ab" d="m1401.6 479.7l-2.9 0.5-4.2-22.2 3-0.5z"/>
	<path id="Forma 104"  style="fill: #6d92ab" d="m1397.3 458.4l-2.9 0.6-4.3-21.4 2.9-0.6z"/>
	<path id="Forma 105"  style="fill: #6d92ab" d="m1393.4 438.1l-2.9 1-5.4-16.1 2.9-0.9z"/>
	<path id="Forma 106"  style="fill: #6d92ab" d="m1388.1 422.7l-2.9 1-6.7-18.8 2.8-1z"/>
	<path id="Forma 107"  style="fill: #6d92ab" d="m1381.4 404.5l-2.7 1.3-8.1-15.4 2.7-1.4z"/>
	<path id="Forma 108"  style="fill: #6d92ab" d="m1374 389.7l-2.6 1.5-8.7-15.9 2.6-1.4z"/>
	<path id="Forma 109"  style="fill: #6d92ab" d="m1365.5 374.3l-2.4 1.8-9.6-13 2.4-1.8z"/>
	<path id="Forma 110"  style="fill: #6d92ab" d="m1356.3 361.9l-2.1 2.1-8.8-8.8 2.1-2.1z"/>
	<path id="Forma 111"  style="fill: #6d92ab" d="m1347.9 353.6l-1.9 2.3-7-5.8 1.9-2.3z"/>
	<path id="Forma 112"  style="fill: #6d92ab" d="m1340.6 347.7l-1.4 2.6-6.1-3.2 1.4-2.6z"/>
	<path id="Forma 113"  style="fill: #6d92ab" d="m1334.4 344.4l-1.2 2.8-7.7-3.5 1.2-2.7z"/>
	<path id="Forma 114"  style="fill: #6d92ab" d="m1326.7 341l-1.2 2.7-6-2.7 1.2-2.7z"/>
	<path id="Forma 115"  style="fill: #6d92ab" d="m1320.7 338.2l-0.7 2.9-12.9-2.9 0.7-2.9z"/>
	<path id="Forma 116"  style="fill: #6d92ab" d="m1339.3 669.6l0.8-2.9 32.7 9.5-0.8 2.9z"/>
	<path id="Forma 117"  style="fill: #6d92ab" d="m1372.6 677.9l-2.8-1 12.3-33.6 2.9 1.1z"/>
	<path id="Forma 118"  style="fill: #6d92ab" d="m1383.9 643.2l-0.7 2.9-32.2-8.7 0.8-2.8z"/>
	<path id="Forma 119"  style="fill: #6d92ab" d="m1341.3 407.8l-0.8-2.9 31.9-8.7 0.8 2.9z"/>
	<path id="Forma 120"  style="fill: #6d92ab" d="m1352.5 442l-0.9-2.9 33.3-10.1 0.8 2.8z"/>
	<path id="Forma 121"  style="fill: #6d92ab" d="m1386.7 430.8l-2.8 1.1-14.1-34.4 2.7-1.2z"/>
	<path id="Forma 122"  style="fill: #6d92ab" d="m1346.1 725.2l-0.4-3 65.7-7.8 0.4 3z"/>
	<path id="Forma 123"  style="fill: #6d92ab" d="m1411 717.8l-0.6-3 45.4-8.2 0.6 2.9z"/>
	<path id="Forma 124"  style="fill: #6d92ab" d="m1455.7 710l-0.7-2.9 33.2-7.8 0.7 3z"/>
	<path id="Forma 125"  style="fill: #6d92ab" d="m1487.2 702.5l-0.7-2.9 39.9-9.5 0.7 2.9z"/>
	<path id="Forma 126"  style="fill: #6d92ab" d="m1526.8 692.8l-0.9-2.8 27.1-8.3 0.9 2.8z"/>
	<path id="Forma 127"  style="fill: #6d92ab" d="m1553.9 684.5l-0.9-2.8 28.3-8.8 0.9 2.9z"/>
	<path id="Forma 128"  style="fill: #6d92ab" d="m1582 676.1l-1-2.9 32.4-11.9 1 2.8z"/>
	<path id="Forma 129"  style="fill: #6d92ab" d="m1613.7 664.6l-1.1-2.8 23.4-9.6 1.2 2.8z"/>
	<path id="Forma 130"  style="fill: #6d92ab" d="m1635.9 655.3l-1.2-2.7 28.5-12.4 1.2 2.7z"/>
	<path id="Forma 131"  style="fill: #6d92ab" d="m1663.9 643.2l-1.4-2.7 28.4-14.1 1.3 2.7z"/>
	<path id="Forma 132"  style="fill: #6d92ab" d="m1692 629.1l-1.5-2.6 38.8-23.4 1.5 2.5z"/>
	<path id="Forma 133"  style="fill: #6d92ab" d="m1730.9 605.8l-1.6-2.6 31.6-20.5 1.7 2.6z"/>
	<path id="Forma 134"  style="fill: #6d92ab" d="m1762.6 585.4l-1.9-2.3 30.1-24 1.9 2.4z"/>
	<path id="Forma 135"  style="fill: #6d92ab" d="m1792.7 562l-1.9-2.3 16.4-13.3 1.9 2.3z"/>
	<path id="Forma 136"  style="fill: #6d92ab" d="m1809.4 548.4l-2.5-1.7 2.7-3.7 2.4 1.7z"/>
	<path id="Forma 137"  style="fill: #6d92ab" d="m1812.2 544.5l-2.7-1.3 1.2-2.6 2.7 1.3z"/>
	<path id="Forma 138"  style="fill: #6d92ab" d="m1813.5 541.3l-3-0.2 0.2-2.4 3 0.2z"/>
	<path id="Forma 139"  style="fill: #6d92ab" d="m1813.7 538.9l-3-0.1 0.5-8.1 2.9 0.2z"/>
	<path id="Forma 140"  style="fill: #6d92ab" d="m1814.2 530.6l-2.8 1.1-1.8-4.8 2.9-1.1z"/>
	<path id="Forma 141"  style="fill: #6d92ab" d="m1812.4 525.7l-2.7 1.3-1.9-4 2.7-1.3z"/>
	<path id="Forma 142"  style="fill: #6d92ab" d="m1810.3 521.3l-2 2.2-3.3-2.9 2-2.3z"/>
	<path id="Forma 143"  style="fill: #6d92ab" d="m1807.8 518.3l-1.9 2.4-21.5-16.5 1.9-2.4z"/>
	<path id="Forma 144"  style="fill: #6d92ab" d="m1787.1 502.2l-1.8 2.4-31.8-23 1.8-2.4z"/>
	<path id="Forma 145"  style="fill: #6d92ab" d="m1755.7 479.5l-1.5 2.5-42.1-26.1 1.6-2.6z"/>
	<path id="Forma 146"  style="fill: #6d92ab" d="m1714 453.3l-1.4 2.6-32.2-17.4 1.4-2.6z"/>
	<path id="Forma 147"  style="fill: #6d92ab" d="m1681.9 436l-1.3 2.7-30.7-14.2 1.3-2.7z"/>
	<path id="Forma 148"  style="fill: #6d92ab" d="m1651.7 421.9l-1.1 2.8-27.5-10.9 1.1-2.8z"/>
	<path id="Forma 149"  style="fill: #6d92ab" d="m1625.3 411l-1 2.9-16.7-5.9 1-2.8z"/>
	<path id="Forma 150"  style="fill: #6d92ab" d="m1608.6 405.2l-1.1 2.8-23.9-8.6 1.1-2.8z"/>
	<path id="Forma 151"  style="fill: #6d92ab" d="m1584.4 396.6l-0.8 2.9-30.4-9.2 0.9-2.8z"/>
	<path id="Forma 152"  style="fill: #6d92ab" d="m1554 387.5l-0.7 2.9-27.2-7.3 0.7-2.9z"/>
	<path id="Forma 153"  style="fill: #6d92ab" d="m1526.8 380.2l-0.7 3-32.3-7.8 0.7-2.9z"/>
	<path id="Forma 154"  style="fill: #6d92ab" d="m1494.5 372.5l-0.6 2.9-26.2-5.1 0.6-3z"/>
	<path id="Forma 155"  style="fill: #6d92ab" d="m1470.3 367.6l-0.5 2.9-20.8-3.5 0.5-3z"/>
	<path id="Forma 156"  style="fill: #6d92ab" d="m1450.2 363.9l-0.5 3-25.2-4 0.4-2.9z"/>
	<path id="Forma 157"  style="fill: #6d92ab" d="m1424.9 360l-0.4 2.9-20.7-3.2 0.4-2.9z"/>
	<path id="Forma 158"  style="fill: #6d92ab" d="m1405.8 356.7l-0.4 3-32.8-4 0.4-3z"/>
	<path id="Forma 159"  style="fill: #6d92ab" d="m1374.8 353.2l-0.3 3-24.5-2.4 0.3-3z"/>
	<path id="Forma 160"  style="fill: #6d92ab" d="m1350.3 350.8l-0.2 3-5.6-0.4 0.2-3z"/>
	<path id="Forma 161"  style="fill: #6d92ab" d="m1691.1 514.1l-2.4-1.8 0.7-1.1 2.4 1.8z"/>
	<path id="Forma 162"  style="fill: #6d92ab" d="m1689.9 514.2v-3l43.2 0.2-0.1 3z"/>
	<path id="Forma 163"  style="fill: #6d92ab" d="m1732.3 514.2l1.5-2.6 3.3 1.8-1.4 2.6z"/>
	<path id="Forma 164"  style="fill: #6d92ab" d="m1735.1 515h3v42.2h-3z"/>
	<path id="Forma 165"  style="fill: #6d92ab" d="m1735.6 555.7l2.3 1.9-2.2 2.7-2.3-1.9z"/>
	<path id="Forma 166"  style="fill: #6d92ab" d="m1734.9 557.8v3h-45.7v-3z"/>
	<path id="Forma 167"  style="fill: #6d92ab" d="m1690.8 564.8h-3v-56.5h3z"/>
	<path id="Forma 168"  style="fill: #6d92ab" d="m1690.9 508.3l-2.4 1.8-4.2-5.5 2.4-1.8z"/>
	<path id="Forma 169"  style="fill: #6d92ab" d="m1687 502.8l-2 2.3-4.2-3.7 2-2.3z"/>
	<path id="Forma 170"  style="fill: #6d92ab" d="m1613 501.8v-3h70.1v3z"/>
	<path id="Forma 171"  style="fill: #6d92ab" d="m1613.1 498.7l1.2 2.7-3.1 1.3-1.1-2.8z"/>
	<path id="Forma 172"  style="fill: #6d92ab" d="m1610.5 499.6l1.5 2.6-5 2.7-1.4-2.6z"/>
	<path id="Forma 173"  style="fill: #6d92ab" d="m1606.8 502l1.9 2.3-5.6 4.5-1.9-2.4z"/>
	<path id="Forma 174"  style="fill: #6d92ab" d="m1601.4 506.3l2.1 2.1-12.7 13.2-2.2-2.1z"/>
	<path id="Forma 175"  style="fill: #6d92ab" d="m1588.6 519.6l2.7 1.2-1.9 4.1-2.7-1.2z"/>
	<path id="Forma 176"  style="fill: #6d92ab" d="m1586.8 523.5h3v2h-3z"/>
	<path id="Forma 177"  style="fill: #6d92ab" d="m1586.7 525.1h3v25.9h-3z"/>
	<path id="Forma 178"  style="fill: #6d92ab" d="m1586.6 551.2l2.9-0.8 0.4 1.7-2.9 0.7z"/>
	<path id="Forma 179"  style="fill: #6d92ab" d="m1587.1 553.1l2.4-1.7 2 2.7-2.5 1.7z"/>
	<path id="Forma 180"  style="fill: #6d92ab" d="m1588.7 555.7l2.1-2.1 17.6 17.5-2.1 2.1z"/>
	<path id="Forma 181"  style="fill: #6d92ab" d="m1606.6 573.1l0.9-2.8 2.9 0.9-0.9 2.8z"/>
	<path id="Forma 182"  style="fill: #6d92ab" d="m1688.5 563.2l2.2 2-8.3 8.7-2.2-2.1z"/>
	<path id="Forma 183"  style="fill: #6d92ab" d="m1608.6 574.5v-3h73.9v3z"/>
</svg>