<svg version="1.2" xmlns="http://www.w3.org/2000/svg" viewBox="-180 305 2200 500">
	<path id="Forma 440"  style="fill: #6d92ab" d="m603.1 576.5l2.9-0.8 5 18.4-2.9 0.8z"/>
	<path id="Forma 441"  style="fill: #6d92ab" d="m607.8 594.1l2.9-0.7 5.5 21.4-2.9 0.7z"/>
	<path id="Forma 442"  style="fill: #6d92ab" d="m612.8 614.8l2.8-1.1 6.4 17.7-2.8 1z"/>
	<path id="Forma 443"  style="fill: #6d92ab" d="m619.1 632.1l2.7-1.2 7.5 17.2-2.7 1.2z"/>
	<path id="Forma 444"  style="fill: #6d92ab" d="m626.6 649.1l2.7-1.4 6.6 12.6-2.6 1.4z"/>
	<path id="Forma 445"  style="fill: #6d92ab" d="m633 661.3l2.5-1.5 7.7 13-2.6 1.5z"/>
	<path id="Forma 446"  style="fill: #6d92ab" d="m640.4 673.9l2.5-1.6 5.1 7.6-2.5 1.7z"/>
	<path id="Forma 447"  style="fill: #6d92ab" d="m645 681.2l2.1-2.1 3.8 3.6-2.1 2.2z"/>
	<path id="Forma 448"  style="fill: #6d92ab" d="m647.9 684.4l1.9-2.3 4.3 3.7-1.9 2.3z"/>
	<path id="Forma 449"  style="fill: #6d92ab" d="m651.4 687.8l1.6-2.5 5.8 3.7-1.6 2.6z"/>
	<path id="Forma 450"  style="fill: #6d92ab" d="m656.1 690.9l1.5-2.6 6.5 3.6-1.5 2.6z"/>
	<path id="Forma 451"  style="fill: #6d92ab" d="m661.8 694.3l1-2.8 8.5 2.8-1 2.9z"/>
	<path id="Forma 452"  style="fill: #6d92ab" d="m669.4 697l0.5-2.9 6.9 1.2-0.5 2.9z"/>
	<path id="Forma 453"  style="fill: #6d92ab" d="m675.4 698.1l0.2-3 8.2 0.7-0.3 3z"/>
	<path id="Forma 454"  style="fill: #6d92ab" d="m682.3 698.8l0.2-3 3.2 0.2-0.1 3z"/>
	<path id="Forma 455"  style="fill: #6d92ab" d="m684.5 696.2l2.8 1.2-3.5 8.6-2.8-1.1z"/>
	<path id="Forma 456"  style="fill: #6d92ab" d="m681.5 704l2.6 1.5-4.9 8.5-2.6-1.5z"/>
	<path id="Forma 457"  style="fill: #6d92ab" d="m677.6 711.5l2.2 2.1-5.4 5.7-2.2-2z"/>
	<path id="Forma 458"  style="fill: #6d92ab" d="m673 716.8l1.8 2.4-4.2 3.3-1.9-2.4z"/>
	<path id="Forma 459"  style="fill: #6d92ab" d="m669.6 719.7l1.4 2.7-4 2-1.4-2.7z"/>
	<path id="Forma 460"  style="fill: #6d92ab" d="m666.9 721.2l0.9 2.9-5.6 1.9-1-2.9z"/>
	<path id="Forma 461"  style="fill: #6d92ab" d="m662.3 723v3h-1.3v-3z"/>
	<path id="Forma 462"  style="fill: #6d92ab" d="m661.9 723.5l-0.1 3-184.4-5.3 0.1-3z"/>
	<path id="Forma 463"  style="fill: #6d92ab" d="m479.1 718.9l-2 2.3-2.7-2.3 1.9-2.3z"/>
	<path id="Forma 464"  style="fill: #6d92ab" d="m477.1 717.1l-2.5 1.8-2.3-3.2 2.4-1.8z"/>
	<path id="Forma 465"  style="fill: #6d92ab" d="m475.1 715.3h-3v-66h3z"/>
	<path id="Forma 466"  style="fill: #6d92ab" d="m474.7 649.1l-2.2 2.1-17.6-18.8 2.2-2z"/>
	<path id="Forma 467"  style="fill: #6d92ab" d="m240.4 608.9l2.8-1 7.6 19.6-2.8 1z"/>
	<path id="Forma 468"  style="fill: #6d92ab" d="m225.3 627.9h3v11.3h-3z"/>
	<path id="Forma 469"  style="fill: #6d92ab" d="m225.8 629.8l-0.1-3 161.3-3.6v3z"/>
	<path id="Forma 470"  style="fill: #6d92ab" d="m226.2 639.6v-3l160 0.3v3z"/>
	<path id="Forma 471"  style="fill: #6d92ab" d="m386.9 626.5l-2.1-2.1 4.4-4.3 2.1 2.2z"/>
	<path id="Forma 472"  style="fill: #6d92ab" d="m391.1 622.4l-1.7-2.4 3.4-2.3 1.6 2.5z"/>
	<path id="Forma 473"  style="fill: #6d92ab" d="m394 620.5l-0.7-3 3-0.7 0.7 2.9z"/>
	<path id="Forma 474"  style="fill: #6d92ab" d="m398.8 619.8l-0.2-3 0.6-0.1 0.2 3z"/>
	<path id="Forma 475"  style="fill: #6d92ab" d="m396.4 619.8l0.1-3 2.6 0.1-0.1 3z"/>
	<path id="Forma 476"  style="fill: #6d92ab" d="m398.4 619.8l0.4-3 3.1 0.4-0.4 3z"/>
	<path id="Forma 477"  style="fill: #6d92ab" d="m400.5 620.2l1-2.9 2.4 0.8-0.9 2.9z"/>
	<path id="Forma 478"  style="fill: #6d92ab" d="m402.1 620.5l1.6-2.5 3.1 2-1.6 2.5z"/>
	<path id="Forma 479"  style="fill: #6d92ab" d="m404.6 621.7l1.9-2.2 2.5 2.2-2 2.2z"/>
	<path id="Forma 480"  style="fill: #6d92ab" d="m406.1 623.2l1.9-2.4 3.6 3-1.9 2.3z"/>
	<path id="Forma 481"  style="fill: #6d92ab" d="m408.8 625.1l2.4-1.8 2.2 2.9-2.5 1.8z"/>
	<path id="Forma 482"  style="fill: #6d92ab" d="m410.5 626.7l2.8-1.1 1.4 3.5-2.8 1z"/>
	<path id="Forma 483"  style="fill: #6d92ab" d="m411.8 628.9l3 0.1-0.1 3.4-3-0.1z"/>
	<path id="Forma 484"  style="fill: #6d92ab" d="m411.8 631.1l3 0.4-0.4 3.1-2.9-0.4z"/>
	<path id="Forma 485"  style="fill: #6d92ab" d="m411.8 633.6l3 0.2-0.2 3.2-3-0.1z"/>
	<path id="Forma 486"  style="fill: #6d92ab" d="m412.2 635.1l2.4 1.7-2.3 3.5-2.5-1.7z"/>
	<path id="Forma 487"  style="fill: #6d92ab" d="m410.8 636.9l2.2 2-2.4 2.7-2.2-2z"/>
	<path id="Forma 488"  style="fill: #6d92ab" d="m409.3 639l2.2 2.1-3.2 3.1-2.1-2.1z"/>
	<path id="Forma 489"  style="fill: #6d92ab" d="m408.4 640.7l1.4 2.7-5.7 2.8-1.4-2.6z"/>
	<path id="Forma 490"  style="fill: #6d92ab" d="m404.1 643.2l0.9 2.8-5.1 1.6-0.9-2.8z"/>
	<path id="Forma 491"  style="fill: #6d92ab" d="m400.6 644.3l0.1 3-5.1 0.2-0.1-3z"/>
	<path id="Forma 492"  style="fill: #6d92ab" d="m396.7 645l-0.7 2.9-4.6-1 0.7-3z"/>
	<path id="Forma 493"  style="fill: #6d92ab" d="m393.5 644.6l-1.6 2.6-3.9-2.5 1.6-2.5z"/>
	<path id="Forma 494"  style="fill: #6d92ab" d="m392.1 643.7l-2.2 2-2.9-3.2 2.2-2z"/>
	<path id="Forma 495"  style="fill: #6d92ab" d="m389.8 641.5l-2.1 2.1-2.9-2.8 2.1-2.2z"/>
	<path id="Forma 496"  style="fill: #6d92ab" d="m388.5 640.6l-2.6 1.5-1.7-2.9 2.6-1.5z"/>
	<path id="Forma 497"  style="fill: #6d92ab" d="m414 633.1v-3h44v3z"/>
	<path id="Forma 498"  style="fill: #6d92ab" d="m383.1 638.8l2.8 0.8-17.3 60.5-2.9-0.8z"/>
	<path id="Forma 499"  style="fill: #6d92ab" d="m367.3 697.6l-0.4 3-24.6-2.9 0.3-3z"/>
	<path id="Forma 500"  style="fill: #6d92ab" d="m343 694.6l-0.6 3-12.7-2.3 0.5-2.9z"/>
	<path id="Forma 501"  style="fill: #6d92ab" d="m330.8 692.5l-0.5 3-8.2-1.5 0.6-2.9z"/>
	<path id="Forma 502"  style="fill: #6d92ab" d="m322.6 691.1l-0.6 2.9-8.6-2 0.7-2.9z"/>
	<path id="Forma 503"  style="fill: #6d92ab" d="m314.2 689.1l-0.7 2.9-23.1-5.2 0.7-2.9z"/>
	<path id="Forma 504"  style="fill: #6d92ab" d="m244.9 608.9v-3h5v3z"/>
	<path id="Forma 505"  style="fill: #6d92ab" d="m247.7 607.6l2.8-0.9 2.2 7.1-2.8 0.9z"/>
	<path id="Forma 506"  style="fill: #6d92ab" d="m249.5 612.6l2.9-0.8 1.8 7-2.9 0.7z"/>
	<path id="Forma 507"  style="fill: #6d92ab" d="m251.1 618.8l2.8-1.1 3.6 9.1-2.8 1.1z"/>
	<path id="Forma 508"  style="fill: #6d92ab" d="m258 639.6l2.7-1.3 5.2 11.1-2.7 1.3z"/>
	<path id="Forma 509"  style="fill: #6d92ab" d="m262.8 649.9l2.7-1.4 4.5 8.6-2.7 1.4z"/>
	<path id="Forma 510"  style="fill: #6d92ab" d="m267.3 658l2.7-1.4 4.9 9.5-2.6 1.3z"/>
	<path id="Forma 511"  style="fill: #6d92ab" d="m271.9 666.2l2.6-1.4 3.8 7-2.6 1.4z"/>
	<path id="Forma 512"  style="fill: #6d92ab" d="m275.3 672.8l2.3-1.9 4 4.8-2.4 1.9z"/>
	<path id="Forma 513"  style="fill: #6d92ab" d="m278.5 677l2-2.3 4.1 3.6-2 2.3z"/>
	<path id="Forma 514"  style="fill: #6d92ab" d="m282 680.3l1.8-2.4 4.4 3.4-1.8 2.3z"/>
	<path id="Forma 515"  style="fill: #6d92ab" d="m285.8 683.4l1.5-2.5 6.1 3.7-1.6 2.5z"/>
	<path id="Forma 516"  style="fill: #6d92ab" d="m251.8 640l2.7-1.3 5.3 11.1-2.7 1.3z"/>
	<path id="Forma 517"  style="fill: #6d92ab" d="m257 650.1l2.7-1.4 6.7 13-2.6 1.4z"/>
	<path id="Forma 518"  style="fill: #6d92ab" d="m263.5 662.8l2.7-1.3 4.3 8.9-2.7 1.3z"/>
	<path id="Forma 519"  style="fill: #6d92ab" d="m267.4 671.5l2.5-1.6 5.9 9.2-2.5 1.6z"/>
	<path id="Forma 520"  style="fill: #6d92ab" d="m273.5 680.6l1.9-2.3 7.3 6-1.9 2.3z"/>
	<path id="Forma 521"  style="fill: #6d92ab" d="m281 686.7l1.6-2.5 6.4 3.9-1.6 2.6z"/>
	<path id="Forma 522"  style="fill: #6d92ab" d="m287.6 690.8l0.9-2.9 12.3 3.8-0.9 2.9z"/>
	<path id="Forma 523"  style="fill: #6d92ab" d="m299.8 694.9l0.6-3 13.8 2.7-0.5 3z"/>
	<path id="Forma 524"  style="fill: #6d92ab" d="m313.1 698l0.5-3 21.8 3.1-0.4 2.9z"/>
	<path id="Forma 525"  style="fill: #6d92ab" d="m334.9 701.3l0.4-3 27.2 4-0.4 3z"/>
	<path id="Forma 526"  style="fill: #6d92ab" d="m362.1 705.3l0.4-3 31.9 4.1-0.4 3z"/>
	<path id="Forma 527"  style="fill: #6d92ab" d="m472.8 713.2l0.1 3-12.5 0.2-0.1-3z"/>
	<path id="Forma 528"  style="fill: #6d92ab" d="m392.8 709.6l0.5-3 14.8 2.3-0.5 3z"/>
	<path id="Forma 529"  style="fill: #6d92ab" d="m407.3 711.9l0.3-3 20.9 2.1-0.3 3z"/>
	<path id="Forma 530"  style="fill: #6d92ab" d="m426.4 713.9l0.3-3 35.4 2.7-0.2 3z"/>
	<path id="Forma 531"  style="fill: #6d92ab" d="m791.7 576.7l2.8-1 3 8.6-2.8 0.9z"/>
	<path id="Forma 532"  style="fill: #6d92ab" d="m794.7 585.3l2.7-1.1 4 9.3-2.8 1.1z"/>
	<path id="Forma 533"  style="fill: #6d92ab" d="m798.4 594.2l2.6-1.5 4.4 8.1-2.6 1.4z"/>
	<path id="Forma 534"  style="fill: #6d92ab" d="m802.5 601.4l2.5-1.7 6 8.8-2.5 1.7z"/>
	<path id="Forma 535"  style="fill: #6d92ab" d="m808.1 609.6l2.3-1.9 5.9 6.8-2.3 1.9z"/>
	<path id="Forma 536"  style="fill: #6d92ab" d="m813.5 615.8l2.2-2.1 5.1 5.4-2.2 2.1z"/>
	<path id="Forma 537"  style="fill: #6d92ab" d="m818.1 620.5l2.1-2.1 5.6 5.7-2.2 2.1z"/>
	<path id="Forma 538"  style="fill: #6d92ab" d="m822.8 625.6l1.9-2.3 8.7 6.8-1.9 2.3z"/>
	<path id="Forma 539"  style="fill: #6d92ab" d="m830.9 632l1.6-2.5 9.8 6-1.6 2.6z"/>
	<path id="Forma 540"  style="fill: #6d92ab" d="m840.3 637.8l1.4-2.6 10.9 6-1.4 2.6z"/>
	<path id="Forma 541"  style="fill: #6d92ab" d="m850.9 643.6l1-2.8 10.8 4-1 2.9z"/>
	<path id="Forma 542"  style="fill: #6d92ab" d="m861.1 647.6l0.7-2.9 10.5 2.3-0.7 2.9z"/>
	<path id="Forma 543"  style="fill: #6d92ab" d="m870.6 650l0.4-3 13.9 1.9-0.4 3z"/>
	<path id="Forma 544"  style="fill: #6d92ab" d="m883.7 652.1v-3l41.7-0.7 0.1 3z"/>
	<path id="Forma 545"  style="fill: #6d92ab" d="m925.4 652.1l-1.2-2.7 4.8-2 1.2 2.7z"/>
	<path id="Forma 546"  style="fill: #6d92ab" d="m930.1 650.3l-2.1-2.2 3.4-3.2 2 2.2z"/>
	<path id="Forma 547"  style="fill: #6d92ab" d="m934.4 647.2h-3v-24.5h3z"/>
	<path id="Forma 548"  style="fill: #6d92ab" d="m934.4 624.7h-3v-11.8h3z"/>
	<path id="Forma 549"  style="fill: #6d92ab" d="m932.4 615.1l-0.4-3 11.3-1.2 0.3 3z"/>
	<path id="Forma 550"  style="fill: #6d92ab" d="m943 614.1l-0.6-2.9 8.4-1.7 0.6 2.9z"/>
	<path id="Forma 551"  style="fill: #6d92ab" d="m950.8 612.8l-1.1-2.8 6.2-2.4 1.1 2.7z"/>
	<path id="Forma 552"  style="fill: #6d92ab" d="m956.6 610.6l-1.3-2.7 6.3-2.8 1.2 2.7z"/>
	<path id="Forma 553"  style="fill: #6d92ab" d="m962 608.2l-1.4-2.7 6.1-3.1 1.4 2.7z"/>
	<path id="Forma 554"  style="fill: #6d92ab" d="m967.2 605.8l-1.5-2.5 6.2-3.8 1.5 2.5z"/>
	<path id="Forma 555"  style="fill: #6d92ab" d="m972.9 602.5l-2-2.3 5.3-4.7 2 2.3z"/>
	<path id="Forma 556"  style="fill: #6d92ab" d="m977.3 598.6l-2.2-2.1 4.9-4.9 2.1 2.1z"/>
	<path id="Forma 557"  style="fill: #6d92ab" d="m981.8 594.2l-2.2-2 4.7-5.3 2.2 2z"/>
	<path id="Forma 558"  style="fill: #6d92ab" d="m986.5 589l-2.4-1.8 4.1-5.6 2.5 1.8z"/>
	<path id="Forma 559"  style="fill: #6d92ab" d="m990.2 583.9l-2.4-1.8 4-5.3 2.4 1.8z"/>
	<path id="Forma 560"  style="fill: #6d92ab" d="m993.6 579.7l-2.5-1.6 5.4-8.5 2.5 1.6z"/>
	<path id="Forma 561"  style="fill: #6d92ab" d="m999.1 571.4l-2.8-1 2.8-8 2.9 1z"/>
	<path id="Forma 562"  style="fill: #6d92ab" d="m1001.8 564.2l-2.9-0.6 1.6-7.4 2.9 0.6z"/>
	<path id="Forma 563"  style="fill: #6d92ab" d="m1003.4 556.7l-2.9-0.3 0.7-6.6 3 0.4z"/>
	<path id="Forma 564"  style="fill: #6d92ab" d="m1004.2 549.9l-3-0.2 0.4-6.2 3 0.2z"/>
	<path id="Forma 565"  style="fill: #6d92ab" d="m1005 544.7h-3v-5.2l3-0.1z"/>
	<path id="Forma 566"  style="fill: #6d92ab" d="m1005.1 539.5l-3 0.3-0.6-5.9 3-0.3z"/>
	<path id="Forma 567"  style="fill: #6d92ab" d="m1004.4 533.6l-2.9 0.8-1.3-4.6 2.9-0.9z"/>
	<path id="Forma 568"  style="fill: #6d92ab" d="m1003.6 529.9l-2.9 0.6-1.5-6.2 2.9-0.7z"/>
	<path id="Forma 569"  style="fill: #6d92ab" d="m1002.4 524.3l-2.9 0.8-1.7-6.1 2.9-0.8z"/>
	<path id="Forma 570"  style="fill: #6d92ab" d="m1000.8 518.7l-2.7 1.2-2.4-5.5 2.7-1.2z"/>
	<path id="Forma 571"  style="fill: #6d92ab" d="m999 514.1l-2.7 1.4-3.3-6.1 2.6-1.5z"/>
	<path id="Forma 572"  style="fill: #6d92ab" d="m995.9 508l-2.6 1.6-4.3-7 2.5-1.6z"/>
	<path id="Forma 573"  style="fill: #6d92ab" d="m992.1 501.3l-2.4 1.9-6.2-7.8 2.3-1.8z"/>
	<path id="Forma 574"  style="fill: #6d92ab" d="m986.9 494.6l-2.2 2.1-6.2-6.8 2.2-2z"/>
	<path id="Forma 575"  style="fill: #6d92ab" d="m981.5 488.4l-2 2.3-6-5.5 2-2.2z"/>
	<path id="Forma 576"  style="fill: #6d92ab" d="m976 483.2l-1.6 2.5-8-5.3 1.7-2.5z"/>
	<path id="Forma 577"  style="fill: #6d92ab" d="m969.2 478.5l-1.6 2.5-7.1-4.5 1.6-2.5z"/>
	<path id="Forma 578"  style="fill: #6d92ab" d="m962.8 474.3l-1.1 2.7-7.5-3.1 1.2-2.8z"/>
	<path id="Forma 579"  style="fill: #6d92ab" d="m956.8 471.8l-0.9 2.9-7.5-2.5 0.9-2.9z"/>
	<path id="Forma 580"  style="fill: #6d92ab" d="m950 469.7l-0.7 2.9-5.6-1.5 0.8-2.9z"/>
	<path id="Forma 581"  style="fill: #6d92ab" d="m945.8 468.9l-0.6 2.9-4.6-0.9 0.6-3z"/>
	<path id="Forma 582"  style="fill: #6d92ab" d="m942.3 468.1v3h-6.7v-3z"/>
	<path id="Forma 583"  style="fill: #6d92ab" d="m937.1 468v3h-6.8v-3z"/>
	<path id="Forma 584"  style="fill: #6d92ab" d="m933.1 469.8h-3v-31.3h3z"/>
	<path id="Forma 585"  style="fill: #6d92ab" d="m933 438.4l-2.2 2-5-5.7 2.3-2z"/>
	<path id="Forma 586"  style="fill: #6d92ab" d="m927.7 432.2v3h-41.7v-3z"/>
	<path id="Forma 587"  style="fill: #6d92ab" d="m886.8 431.9l0.5 2.9-8.9 1.3-0.4-3z"/>
	<path id="Forma 588"  style="fill: #6d92ab" d="m880 433l0.5 2.9-16.3 2.7-0.5-2.9z"/>
	<path id="Forma 589"  style="fill: #6d92ab" d="m864.3 435.3l0.9 2.9-11.4 3.5-0.9-2.9z"/>
	<path id="Forma 590"  style="fill: #6d92ab" d="m853.1 438.5l1.3 2.7-14.8 7.4-1.3-2.7z"/>
	<path id="Forma 591"  style="fill: #6d92ab" d="m839 445.5l1.7 2.4-12.5 8.8-1.7-2.4z"/>
	<path id="Forma 592"  style="fill: #6d92ab" d="m827 454.2l2 2.2-10.2 9.3-2-2.2z"/>
	<path id="Forma 593"  style="fill: #6d92ab" d="m817.4 463.1l2.2 2.1-7.4 7.4-2.1-2.1z"/>
	<path id="Forma 594"  style="fill: #6d92ab" d="m811.1 469.7l2.4 1.9-6.8 8.6-2.3-1.9z"/>
	<path id="Forma 595"  style="fill: #6d92ab" d="m805.3 477.5l2.5 1.7-4.8 7.3-2.5-1.7z"/>
	<path id="Forma 596"  style="fill: #6d92ab" d="m800.5 484.2l2.7 1.3-4.8 9.8-2.7-1.3z"/>
	<path id="Forma 597"  style="fill: #6d92ab" d="m796.8 493l2.7 1.3-3.9 8.3-2.8-1.3z"/>
	<path id="Forma 598"  style="fill: #6d92ab" d="m793.2 500l2.8 1-2.3 6.6-2.8-1z"/>
	<path id="Forma 599"  style="fill: #6d92ab" d="m790.4 507l2.5-1.6 2.9 4.4-2.5 1.7z"/>
	<path id="Forma 600"  style="fill: #6d92ab" d="m790 512.4v-3h39.4v3z"/>
	<path id="Forma 601"  style="fill: #6d92ab" d="m827.4 510.6l2.6-1.5 2 3.3-2.6 1.5z"/>
	<path id="Forma 602"  style="fill: #6d92ab" d="m829.3 511l2.7 1.4-1.8 3.4-2.6-1.4z"/>
	<path id="Forma 603"  style="fill: #6d92ab" d="m828.7 513.4l1.7 2.5-2.6 1.8-1.8-2.4z"/>
	<path id="Forma 604"  style="fill: #6d92ab" d="m827.9 514.3v3h-38.2v-3z"/>
	<path id="Forma 605"  style="fill: #6d92ab" d="m791.8 515.7l-2.7 1.3-1.1-2.2 2.7-1.3z"/>
	<path id="Forma 606"  style="fill: #6d92ab" d="m791 514l-3 0.3-0.1-1.2 3-0.2z"/>
	<path id="Forma 607"  style="fill: #6d92ab" d="m789.8 509.2l2.2 2-1.7 1.8-2.2-2.1z"/>
	<path id="Forma 608"  style="fill: #6d92ab" d="m788 511.4l3-0.2 0.1 2.7-3 0.2z"/>
	<path id="Forma 609"  style="fill: #6d92ab" d="m788.4 512.2v3h-3.5v-3z"/>
	<path id="Forma 610"  style="fill: #6d92ab" d="m784.5 512.4l2.2 2.1-2.9 2.9-2.2-2.1z"/>
	<path id="Forma 611"  style="fill: #6d92ab" d="m781.8 515l2.7 1.4-2.1 4.1-2.7-1.4z"/>
	<path id="Forma 612"  style="fill: #6d92ab" d="m779.8 519.3l3 0.1-0.2 3.9-3-0.1z"/>
	<path id="Forma 613"  style="fill: #6d92ab" d="m779.3 522.2h3v34h-3z"/>
	<path id="Forma 614"  style="fill: #6d92ab" d="m779.2 555.2l2.9-0.6 1.3 5.5-3 0.7z"/>
	<path id="Forma 615"  style="fill: #6d92ab" d="m780 559.9l2.9-0.6 0.9 4.6-2.9 0.5z"/>
	<path id="Forma 616"  style="fill: #6d92ab" d="m780.9 564.3l2.7-1.2 1.5 3.7-2.7 1.2z"/>
	<path id="Forma 617"  style="fill: #6d92ab" d="m782.5 568l2.2-2.1 1.9 2-2.2 2.1z"/>
	<path id="Forma 618"  style="fill: #6d92ab" d="m784.3 570l1.5-2.6 3.1 1.9-1.5 2.5z"/>
	<path id="Forma 619"  style="fill: #6d92ab" d="m787.4 572.1l0.5-2.9 3.2 0.5-0.5 3z"/>
	<path id="Forma 620"  style="fill: #6d92ab" d="m795.3 577.8l-3 0.1-0.1-4.3 3-0.1z"/>
	<path id="Forma 621"  style="fill: #6d92ab" d="m790.2 572.8l1.5-2.6 3.2 1.8-1.4 2.6z"/>
	<path id="Forma 622"  style="fill: #6d92ab" d="m793.6 574.6l0.1-3 5.4 0.2-0.1 3z"/>
	<path id="Forma 623"  style="fill: #6d92ab" d="m798 574.7v-3h32.2v3z"/>
	<path id="Forma 624"  style="fill: #6d92ab" d="m830.2 574.8l-2.6-1.4 1.5-2.8 2.6 1.5z"/>
	<path id="Forma 625"  style="fill: #6d92ab" d="m831.9 572.3l-3-0.3 0.2-2.3 3 0.3z"/>
	<path id="Forma 626"  style="fill: #6d92ab" d="m832.1 569.7l-2.9 1-0.7-2.1 2.9-1z"/>
	<path id="Forma 627"  style="fill: #6d92ab" d="m830.8 567.1l-1.8 2.5-1.2-0.9 1.7-2.4z"/>
	<path id="Forma 628"  style="fill: #6d92ab" d="m792.2 571.3l-2.9-0.6 0.6-3.2 3 0.6z"/>
	<path id="Forma 629"  style="fill: #6d92ab" d="m791.7 569.3l-1.1-2.8 2.6-1 1.1 2.8z"/>
	<path id="Forma 630"  style="fill: #6d92ab" d="m792.7 569v-3h37v3z"/>
	<path id="Forma 631"  style="fill: #6d92ab" d="m828 515.2l2.6 1.4-3 5.6-2.6-1.4z"/>
	<path id="Forma 632"  style="fill: #6d92ab" d="m825.4 520.1l2.8 1-2.1 6.1-2.8-0.9z"/>
	<path id="Forma 633"  style="fill: #6d92ab" d="m823.8 525.9l2.9 0.5-0.9 6-3-0.5z"/>
	<path id="Forma 634"  style="fill: #6d92ab" d="m822.8 531.1h3v6.2h-3z"/>
	<path id="Forma 635"  style="fill: #6d92ab" d="m822.7 536.1l3-0.1 0.2 6.5-3 0.1z"/>
	<path id="Forma 636"  style="fill: #6d92ab" d="m822.8 541.9h3l0.2 8.5-3 0.1z"/>
	<path id="Forma 637"  style="fill: #6d92ab" d="m822.8 550.1l3-0.6 1 5.7-2.9 0.5z"/>
	<path id="Forma 638"  style="fill: #6d92ab" d="m823.9 555.7l3-0.5 0.8 4.8-2.9 0.5z"/>
	<path id="Forma 639"  style="fill: #6d92ab" d="m824.8 560.7l2.8-1.2 1.8 4.2-2.7 1.2z"/>
	<path id="Forma 640"  style="fill: #6d92ab" d="m826.5 564.4l2.6-1.4 1.6 2.9-2.7 1.5z"/>
	<path id="Forma 641"  style="fill: #6d92ab" d="m792.6 516l2.9 0.9-1.7 5.1-2.8-0.9z"/>
	<path id="Forma 642"  style="fill: #6d92ab" d="m790.9 521l3 0.4-0.8 4.9-2.9-0.4z"/>
	<path id="Forma 643"  style="fill: #6d92ab" d="m790.1 525.5l3 0.1-0.3 7.1-3-0.2z"/>
	<path id="Forma 644"  style="fill: #6d92ab" d="m790 532.2h3v19h-3z"/>
	<path id="Forma 645"  style="fill: #6d92ab" d="m790.3 550.8l2.9-0.3 0.7 7.8-3 0.3z"/>
	<path id="Forma 646"  style="fill: #6d92ab" d="m790.9 558.3l3-0.5 1.1 6.6-3 0.5z"/>
	<path id="Forma 647"  style="fill: #6d92ab" d="m791.9 564.6l2.9-0.6 0.4 1.8-3 0.6z"/>
	<path id="Forma 648"  style="fill: #6d92ab" d="m806 515.5l2.6 1.5-3.6 6-2.5-1.6z"/>
	<path id="Forma 649"  style="fill: #6d92ab" d="m802.7 520.9l2.9 0.6-1.8 9.2-3-0.6z"/>
	<path id="Forma 650"  style="fill: #6d92ab" d="m800.8 529.9h3l-0.1 23.2h-3z"/>
	<path id="Forma 651"  style="fill: #6d92ab" d="m801.1 552.6l2.9-0.7 1.3 4.8-2.9 0.8z"/>
	<path id="Forma 652"  style="fill: #6d92ab" d="m802.1 556.6l2.8-0.9 1.4 4.9-2.9 0.8z"/>
	<path id="Forma 653"  style="fill: #6d92ab" d="m803.1 560.1l2.9-0.8 1.3 5.1-2.9 0.7z"/>
	<path id="Forma 654"  style="fill: #6d92ab" d="m803.9 564l2.8-1 1.3 3.7-2.9 1z"/>
	<path id="Forma 655"  style="fill: #6d92ab" d="m821.5 566.4l-2.7 1.1-4.6-10.5 2.7-1.2z"/>
	<path id="Forma 656"  style="fill: #6d92ab" d="m817.6 556.3l-2.9 0.9-1.8-6.2 2.8-0.8z"/>
	<path id="Forma 657"  style="fill: #6d92ab" d="m816.2 551.3h-3v-20.2h3z"/>
	<path id="Forma 658"  style="fill: #6d92ab" d="m816.4 532.1l-2.9-0.5 0.7-4.3 3 0.5z"/>
	<path id="Forma 659"  style="fill: #6d92ab" d="m816.8 528.1l-2.9-0.6 0.9-4.7 3 0.6z"/>
	<path id="Forma 660"  style="fill: #6d92ab" d="m817.8 524.1l-3-0.7 1.3-4.9 2.9 0.7z"/>
	<path id="Forma 661"  style="fill: #6d92ab" d="m818.4 520.9l-2.2-2 3.5-4.1 2.3 2z"/>
	<path id="Forma 662"  style="fill: #6d92ab" d="m931.3 468.1v3l-20.2 0.1-0.1-3z"/>
	<path id="Forma 663"  style="fill: #6d92ab" d="m911.5 468.1l0.1 3-13.5 0.3v-3z"/>
	<path id="Forma 664"  style="fill: #6d92ab" d="m900.2 468.4l0.1 3-13.3 0.5-0.1-3z"/>
	<path id="Forma 665"  style="fill: #6d92ab" d="m887.7 468.7l0.5 3-7.3 1.2-0.5-2.9z"/>
	<path id="Forma 666"  style="fill: #6d92ab" d="m881.1 469.7l0.9 2.9-11 3.3-0.9-2.9z"/>
	<path id="Forma 667"  style="fill: #6d92ab" d="m870.5 473l1.2 2.7-5.2 2.4-1.3-2.7z"/>
	<path id="Forma 668"  style="fill: #6d92ab" d="m866.2 475.2l1.5 2.6-6.7 3.8-1.4-2.6z"/>
	<path id="Forma 669"  style="fill: #6d92ab" d="m861.5 478.1l1.7 2.5-6.6 4.5-1.7-2.5z"/>
	<path id="Forma 670"  style="fill: #6d92ab" d="m856.4 481.4l1.7 2.5-7.7 5.4-1.8-2.4z"/>
	<path id="Forma 671"  style="fill: #6d92ab" d="m849.6 486.2l1.9 2.3-4.9 4.3-2-2.2z"/>
	<path id="Forma 672"  style="fill: #6d92ab" d="m845.1 490l2.4 1.7-4 5.5-2.4-1.8z"/>
	<path id="Forma 673"  style="fill: #6d92ab" d="m841.1 494.9l2.5 1.7-4.3 6.1-2.4-1.7z"/>
	<path id="Forma 674"  style="fill: #6d92ab" d="m837.7 499.8l2.5 1.6-4.6 7-2.5-1.6z"/>
	<path id="Forma 675"  style="fill: #6d92ab" d="m833.3 506.4l2.6 1.6-4.4 7.4-2.6-1.6z"/>
	<path id="Forma 676"  style="fill: #6d92ab" d="m829.9 513.5l2.5 1.6-2.7 4.1-2.5-1.6z"/>
	<path id="Forma 677"  style="fill: #6d92ab" d="m933.6 611.2v3h-49.6v-3z"/>
	<path id="Forma 678"  style="fill: #6d92ab" d="m886.4 611.4l-0.7 2.9-8.3-1.9 0.7-2.9z"/>
	<path id="Forma 679"  style="fill: #6d92ab" d="m878.7 609.7l-1 2.8-11.1-3.9 1-2.8z"/>
	<path id="Forma 680"  style="fill: #6d92ab" d="m868.4 605.9l-1.4 2.6-10.2-5.2 1.4-2.6z"/>
	<path id="Forma 681"  style="fill: #6d92ab" d="m859.1 601.6l-1.7 2.4-6.9-4.9 1.8-2.5z"/>
	<path id="Forma 682"  style="fill: #6d92ab" d="m854.1 598l-1.9 2.3-6.9-5.9 2-2.3z"/>
	<path id="Forma 683"  style="fill: #6d92ab" d="m848.2 593.3l-2.2 2-6.4-6.8 2.2-2.1z"/>
	<path id="Forma 684"  style="fill: #6d92ab" d="m842.3 587.3l-2.4 1.7-5.2-7.1 2.4-1.7z"/>
	<path id="Forma 685"  style="fill: #6d92ab" d="m838.1 581.6l-2.5 1.6-6.3-10 2.5-1.6z"/>
	<path id="Forma 1"  style="fill: #6d92ab" d="m65.2 546.7l-2.8-1 11.2-30.6 2.8 1z"/>
	<path id="Forma 2"  style="fill: #6d92ab" d="m76 517.1l-2.7-1.4 9.6-18.1 2.6 1.4z"/>
	<path id="Forma 3"  style="fill: #6d92ab" d="m85.4 499.2l-2.5-1.7 10.9-16.1 2.5 1.7z"/>
	<path id="Forma 4"  style="fill: #6d92ab" d="m96.3 483.1l-2.4-1.8 12.4-16.1 2.4 1.8z"/>
	<path id="Forma 5"  style="fill: #6d92ab" d="m108.1 467.6l-2.2-2.1 20.1-20.6 2.1 2.1z"/>
	<path id="Forma 6"  style="fill: #6d92ab" d="m128 447.1l-1.9-2.4 15.7-12.9 2 2.3z"/>
	<path id="Forma 7"  style="fill: #6d92ab" d="m143.7 434.1l-1.8-2.4 16.1-11.3 1.8 2.4z"/>
	<path id="Forma 8"  style="fill: #6d92ab" d="m159.7 422.9l-1.6-2.6 18.5-11.7 1.6 2.5z"/>
	<path id="Forma 9"  style="fill: #6d92ab" d="m177.5 411.3l-1.5-2.6 19.7-10.6 1.4 2.7z"/>
	<path id="Forma 10"  style="fill: #6d92ab" d="m196.9 400.8l-1.1-2.7 22-9 1.1 2.8z"/>
	<path id="Forma 11"  style="fill: #6d92ab" d="m218.3 391.8l-0.9-2.8 23-7.5 0.9 2.9z"/>
	<path id="Forma 12"  style="fill: #6d92ab" d="m240.6 384.5l-0.9-2.8 14.7-4.6 0.9 2.8z"/>
	<path id="Forma 13"  style="fill: #6d92ab" d="m255.2 379.9l-0.8-2.9 17.6-4.7 0.8 2.9z"/>
	<path id="Forma 14"  style="fill: #6d92ab" d="m272.7 375.3l-0.6-3 18.2-3.7 0.6 2.9z"/>
	<path id="Forma 15"  style="fill: #6d92ab" d="m290.9 371.5l-0.6-3 33.9-6.5 0.6 3z"/>
	<path id="Forma 16"  style="fill: #6d92ab" d="m324.2 365l-0.4-2.9 26.1-4.3 0.5 3z"/>
	<path id="Forma 17"  style="fill: #6d92ab" d="m350.4 360.8l-0.4-3 34.3-4.7 0.4 3z"/>
	<path id="Forma 18"  style="fill: #6d92ab" d="m384.2 356.4l-0.3-3 34.3-3.8 0.3 3z"/>
	<path id="Forma 19"  style="fill: #6d92ab" d="m418.5 352.6l-0.3-3 27-2.3 0.3 3z"/>
	<path id="Forma 20"  style="fill: #6d92ab" d="m445.4 350.3l-0.2-3 26.9-1.9 0.2 3z"/>
	<path id="Forma 21"  style="fill: #6d92ab" d="m472.3 348.4l-0.2-3 36.6-2.6 0.2 3z"/>
	<path id="Forma 22"  style="fill: #6d92ab" d="m507.7 345.9l-0.2-3 38.8-2.7 0.2 3z"/>
	<path id="Forma 23"  style="fill: #6d92ab" d="m545.4 343.2l-0.1-3 42.7-2.2 0.1 3z"/>
	<path id="Forma 24"  style="fill: #6d92ab" d="m587.8 341.1l-0.1-3 31.1-1.1 0.1 3z"/>
	<path id="Forma 25"  style="fill: #6d92ab" d="m618 340.2l-0.1-3 63-2.3 0.1 3z"/>
	<path id="Forma 26"  style="fill: #6d92ab" d="m680.1 337.8l-0.1-3 67.3-1.4 0.1 3z"/>
	<path id="Forma 27"  style="fill: #6d92ab" d="m746.5 336.4v-3l127.1-1.8 0.1 3z"/>
	<path id="Forma 28"  style="fill: #6d92ab" d="m873 334.8v-3h197.7v3z"/>
	<path id="Forma 29"  style="fill: #6d92ab" d="m1069.7 334.7l0.1-3 70.7 1.6-0.1 3z"/>
	<path id="Forma 30"  style="fill: #6d92ab" d="m1139.1 336.1v-3l79.4 2.4-0.1 3z"/>
	<path id="Forma 31"  style="fill: #6d92ab" d="m1217.6 338.4l0.1-3 67.6 3.3-0.1 3z"/>
	<path id="Forma 32"  style="fill: #6d92ab" d="m1284.5 341.8l0.2-3 89.5 4.4-0.1 3z"/>
	<path id="Forma 33"  style="fill: #6d92ab" d="m1373.2 346.2l0.3-3 63.1 5.5-0.2 2.9z"/>
	<path id="Forma 34"  style="fill: #6d92ab" d="m1436.2 351.6l0.3-3 58.4 6.2-0.4 3z"/>
	<path id="Forma 35"  style="fill: #6d92ab" d="m1493.4 357.8l0.6-2.9 52.5 8.9-0.5 3z"/>
	<path id="Forma 36"  style="fill: #6d92ab" d="m1546 366.8l0.6-2.9 43.2 8.7-0.6 2.9z"/>
	<path id="Forma 37"  style="fill: #6d92ab" d="m1589.1 375.5l0.8-2.9 35 9.6-0.8 2.9z"/>
	<path id="Forma 38"  style="fill: #6d92ab" d="m1623.6 385.1l0.9-2.8 29.6 9.4-0.9 2.8z"/>
	<path id="Forma 39"  style="fill: #6d92ab" d="m1653.2 394.5l1-2.8 32.8 11.1-0.9 2.9z"/>
	<path id="Forma 40"  style="fill: #6d92ab" d="m1686 405.6l1.1-2.7 37.7 16.1-1.2 2.7z"/>
	<path id="Forma 41"  style="fill: #6d92ab" d="m1722.9 421.6l1.4-2.7 35 17.7-1.3 2.7z"/>
	<path id="Forma 42"  style="fill: #6d92ab" d="m1757.5 439l1.6-2.6 32.9 20.3-1.6 2.6z"/>
	<path id="Forma 43"  style="fill: #6d92ab" d="m1790.3 459.2l1.8-2.4 29.6 21-1.8 2.4z"/>
	<path id="Forma 44"  style="fill: #6d92ab" d="m1819.4 479.7l2-2.2 17.7 15.9-2 2.3z"/>
	<path id="Forma 45"  style="fill: #6d92ab" d="m1836.4 494.9l2.1-2.1 11.8 11.3-2.1 2.2z"/>
	<path id="Forma 46"  style="fill: #6d92ab" d="m1847.6 505.6l2.4-1.7 9.9 14.4-2.4 1.7z"/>
	<path id="Forma 47"  style="fill: #6d92ab" d="m1856.8 519l2.9-0.7 3.1 12.7-2.9 0.7z"/>
	<path id="Forma 48"  style="fill: #6d92ab" d="m1859.9 531.2l3-0.1 0.3 14.8-3 0.1z"/>
	<path id="Forma 49"  style="fill: #6d92ab" d="m1860.4 545.2l2.6 1.4-9.4 17.7-2.7-1.5z"/>
	<path id="Forma 50"  style="fill: #6d92ab" d="m1851.6 561.9l2.1 2.1-20.9 21.2-2.2-2.1z"/>
	<path id="Forma 51"  style="fill: #6d92ab" d="m1830.8 583l1.8 2.4-39.6 30.7-1.8-2.3z"/>
	<path id="Forma 52"  style="fill: #6d92ab" d="m1791.8 613.2l1.6 2.6-46.6 28.7-1.6-2.6z"/>
	<path id="Forma 53"  style="fill: #6d92ab" d="m1745.4 641.8l1.2 2.8-48.3 22.9-1.3-2.8z"/>
	<path id="Forma 54"  style="fill: #6d92ab" d="m1697.1 664.7l1 2.8-41.4 15.5-1-2.8z"/>
	<path id="Forma 55"  style="fill: #6d92ab" d="m1656.1 680.1l0.9 2.9-40.6 11.8-0.9-2.9z"/>
	<path id="Forma 56"  style="fill: #6d92ab" d="m1615.6 691.9l0.7 2.9-39.2 10.5-0.8-2.9z"/>
	<path id="Forma 57"  style="fill: #6d92ab" d="m1576.4 702.4l0.6 2.9-35.3 7.8-0.6-2.9z"/>
	<path id="Forma 58"  style="fill: #6d92ab" d="m1541.7 710l0.6 2.9-44.4 8-0.5-3z"/>
	<path id="Forma 59"  style="fill: #6d92ab" d="m1497.4 717.9l0.4 3-48.4 6.5-0.4-3z"/>
	<path id="Forma 60"  style="fill: #6d92ab" d="m1449 724.4l0.3 3-49.2 4.8-0.3-3z"/>
	<path id="Forma 61"  style="fill: #6d92ab" d="m1400.1 729.3l0.2 3-63.4 4.2-0.2-3z"/>
	<path id="Forma 62"  style="fill: #6d92ab" d="m1336.7 733.5l0.2 3-57.3 3.7-0.1-3z"/>
	<path id="Forma 63"  style="fill: #6d92ab" d="m1280.1 737.1l0.2 3-56 3-0.2-3z"/>
	<path id="Forma 64"  style="fill: #6d92ab" d="m1224.7 740.1l0.1 3-65.9 2.6-0.1-3z"/>
	<path id="Forma 65"  style="fill: #6d92ab" d="m1159.4 742.5l0.1 3-85.2 2.2-0.1-3z"/>
	<path id="Forma 66"  style="fill: #6d92ab" d="m1074.8 744.7v3l-82.6 0.6v-3z"/>
	<path id="Forma 67"  style="fill: #6d92ab" d="m992.8 745.3v3l-103.6 0.8v-3z"/>
	<path id="Forma 68"  style="fill: #6d92ab" d="m889.6 746.2v3l-95.2 0.3v-3z"/>
	<path id="Forma 69"  style="fill: #6d92ab" d="m794.8 746.8v3l-109-1.4v-3z"/>
	<path id="Forma 70"  style="fill: #6d92ab" d="m686.3 745.3l-0.1 3-91.6-2.6 0.1-3z"/>
	<path id="Forma 71"  style="fill: #6d92ab" d="m595.5 743l-0.2 3-110.7-5 0.1-3z"/>
	<path id="Forma 72"  style="fill: #6d92ab" d="m485.3 738.1l-0.2 2.9-74.9-5.1 0.2-3z"/>
	<path id="Forma 73"  style="fill: #6d92ab" d="m410.8 733l-0.4 3-43.1-5.1 0.3-3z"/>
	<path id="Forma 74"  style="fill: #6d92ab" d="m368.2 728.1l-0.5 2.9-85.5-14 0.5-3z"/>
	<path id="Forma 75"  style="fill: #6d92ab" d="m283.2 714.2l-0.8 2.9-53.3-14.2 0.8-2.9z"/>
	<path id="Forma 76"  style="fill: #6d92ab" d="m230 700.1l-1 2.8-41.3-16.1 1.1-2.8z"/>
	<path id="Forma 77"  style="fill: #6d92ab" d="m189 684.1l-1.5 2.6-33.4-20.6 1.6-2.5z"/>
	<path id="Forma 78"  style="fill: #6d92ab" d="m156.4 664l-1.9 2.3-32-25.5 1.9-2.4z"/>
	<path id="Forma 79"  style="fill: #6d92ab" d="m124.9 638.7l-2.2 2-13.9-14.7 2.1-2z"/>
	<path id="Forma 80"  style="fill: #6d92ab" d="m111 624.1l-2.3 1.9-9.7-11.8 2.4-1.9z"/>
	<path id="Forma 81"  style="fill: #6d92ab" d="m101.4 612.4l-2.4 1.8-10.5-13.9 2.4-1.9z"/>
	<path id="Forma 82"  style="fill: #6d92ab" d="m91 599l-2.6 1.5-11.1-19.3 2.6-1.5z"/>
	<path id="Forma 83"  style="fill: #6d92ab" d="m79.9 579.8l-2.7 1.3-8.7-18.3 2.7-1.3z"/>
	<path id="Forma 84"  style="fill: #6d92ab" d="m71.3 561.6l-2.9 1-6-17.2 2.8-1z"/>
	<path id="Forma 85"  style="fill: #6d92ab" d="m115.7 526.7h3v37.5h-3z"/>
	<path id="Forma 86"  style="fill: #6d92ab" d="m118.5 527.5l-2.9-0.5 2.4-15.3 3 0.5z"/>
	<path id="Forma 87"  style="fill: #6d92ab" d="m120.5 512.7l-2.8-1.1 9.8-25.5 2.8 1.1z"/>
	<path id="Forma 88"  style="fill: #6d92ab" d="m130 487.7l-2.7-1.3 8.2-16.4 2.7 1.3z"/>
	<path id="Forma 89"  style="fill: #6d92ab" d="m138.1 471.5l-2.5-1.7 13.9-19.4 2.5 1.7z"/>
	<path id="Forma 90"  style="fill: #6d92ab" d="m151.9 452.3l-2.2-2 9.6-10.7 2.2 2z"/>
	<path id="Forma 91"  style="fill: #6d92ab" d="m161 441.8l-2-2.2 11-10 2 2.2z"/>
	<path id="Forma 92"  style="fill: #6d92ab" d="m171.9 431.9l-1.9-2.3 13.7-11.2 1.9 2.3z"/>
	<path id="Forma 93"  style="fill: #6d92ab" d="m185.4 420.9l-1.5-2.6 17-10.2 1.5 2.5z"/>
	<path id="Forma 94"  style="fill: #6d92ab" d="m202.3 410.7l-1.3-2.7 21.7-10.6 1.3 2.6z"/>
	<path id="Forma 95"  style="fill: #6d92ab" d="m223.3 400.2l-1-2.8 18.1-6.3 1 2.8z"/>
	<path id="Forma 96"  style="fill: #6d92ab" d="m241.4 393.9l-1-2.8 24.3-7.9 0.9 2.8z"/>
	<path id="Forma 97"  style="fill: #6d92ab" d="m264.9 386.2l-0.7-2.9 26.6-6.1 0.7 2.9z"/>
	<path id="Forma 98"  style="fill: #6d92ab" d="m291.5 380.1l-0.7-2.9 30.3-6.7 0.6 2.9z"/>
	<path id="Forma 99"  style="fill: #6d92ab" d="m321.6 373.4l-0.4-2.9 36.2-5.7 0.5 2.9z"/>
	<path id="Forma 100"  style="fill: #6d92ab" d="m357.5 367.7l-0.4-3 46.9-6.3 0.4 3z"/>
	<path id="Forma 101"  style="fill: #6d92ab" d="m404.3 361.4l-0.3-3 40.4-4.3 0.3 3z"/>
	<path id="Forma 102"  style="fill: #6d92ab" d="m444.2 357.2l-0.2-3 59.5-4.3 0.2 3z"/>
	<path id="Forma 103"  style="fill: #6d92ab" d="m503.7 352.9l-0.2-3 58.4-3 0.1 3z"/>
	<path id="Forma 104"  style="fill: #6d92ab" d="m561.4 349.7l-0.1-3 82.9-3.2 0.2 3z"/>
	<path id="Forma 105"  style="fill: #6d92ab" d="m643.8 346.2l-0.1-3 95.4-2.9 0.1 3z"/>
	<path id="Forma 106"  style="fill: #6d92ab" d="m738.2 343v-3l210.3-1.6v3z"/>
	<path id="Forma 107"  style="fill: #6d92ab" d="m947.2 341.5l0.1-3 41.1 0.4v3z"/>
	<path id="Forma 108"  style="fill: #6d92ab" d="m986.8 341.8l0.8-2.9 6.2 1.7-0.7 2.9z"/>
	<path id="Forma 109"  style="fill: #6d92ab" d="m992.9 343.3l1.1-2.7 11 4.6-1.2 2.8z"/>
	<path id="Forma 110"  style="fill: #6d92ab" d="m1003.7 347.9l1.5-2.6 11.4 7-1.5 2.6z"/>
	<path id="Forma 111"  style="fill: #6d92ab" d="m1014.9 354.7l1.9-2.2 10.6 9.1-2 2.3z"/>
	<path id="Forma 112"  style="fill: #6d92ab" d="m1025.3 363.7l2.3-1.9 7 8.4-2.3 2z"/>
	<path id="Forma 113"  style="fill: #6d92ab" d="m1032.1 371.8l2.4-1.8 5.7 7.7-2.4 1.8z"/>
	<path id="Forma 114"  style="fill: #6d92ab" d="m1037.7 379.3l2.6-1.4 3.3 6.3-2.7 1.4z"/>
	<path id="Forma 115"  style="fill: #6d92ab" d="m115.7 563.4l2.8-0.9 1.8 5.6-2.8 0.9z"/>
	<path id="Forma 116"  style="fill: #6d92ab" d="m117.1 567.6l2.9-0.6 2.9 14.3-2.9 0.6z"/>
	<path id="Forma 117"  style="fill: #6d92ab" d="m120 581.4l2.9-0.8 4.2 15.4-2.9 0.8z"/>
	<path id="Forma 118"  style="fill: #6d92ab" d="m124 596.4l2.7-1.3 5.6 11.2-2.7 1.3z"/>
	<path id="Forma 119"  style="fill: #6d92ab" d="m129.3 607.4l2.6-1.5 10 18-2.6 1.4z"/>
	<path id="Forma 120"  style="fill: #6d92ab" d="m138.7 625.4l2.3-1.9 16.1 20.4-2.4 1.8z"/>
	<path id="Forma 121"  style="fill: #6d92ab" d="m154.9 645.9l2-2.2 16.3 15.7-2.1 2.2z"/>
	<path id="Forma 122"  style="fill: #6d92ab" d="m170.8 661.2l1.9-2.3 8.8 7.4-1.9 2.3z"/>
	<path id="Forma 123"  style="fill: #6d92ab" d="m179.7 668.7l1.7-2.5 14.7 9.8-1.7 2.5z"/>
	<path id="Forma 124"  style="fill: #6d92ab" d="m194.6 678.6l1.4-2.7 17.7 9.1-1.3 2.7z"/>
	<path id="Forma 125"  style="fill: #6d92ab" d="m212.2 687.6l1.2-2.8 15.1 6.3-1.1 2.8z"/>
	<path id="Forma 126"  style="fill: #6d92ab" d="m227.3 693.9l0.9-2.8 25.7 8.2-0.9 2.9z"/>
	<path id="Forma 127"  style="fill: #6d92ab" d="m252.8 702l0.8-2.8 23.9 6.7-0.8 2.9z"/>
	<path id="Forma 128"  style="fill: #6d92ab" d="m276.7 708.8l0.6-2.9 37.3 7-0.6 2.9z"/>
	<path id="Forma 129"  style="fill: #6d92ab" d="m313.1 715.6l0.6-2.9 32.7 5.8-0.5 3z"/>
	<path id="Forma 130"  style="fill: #6d92ab" d="m345.9 721.3l0.4-2.9 41 5.7-0.4 3z"/>
	<path id="Forma 131"  style="fill: #6d92ab" d="m386.3 726.8l0.3-3 51.8 5.5-0.3 3z"/>
	<path id="Forma 132"  style="fill: #6d92ab" d="m438.2 732.3l0.2-3 34.9 2.5-0.2 3z"/>
	<path id="Forma 133"  style="fill: #6d92ab" d="m472.6 734.7l0.2-3 62.9 3.1-0.1 3z"/>
	<path id="Forma 134"  style="fill: #6d92ab" d="m535 737.9v-3l85.1 2.5-0.1 3z"/>
	<path id="Forma 135"  style="fill: #6d92ab" d="m619.3 740.6v-3l72.8 1.4v3z"/>
	<path id="Forma 136"  style="fill: #6d92ab" d="m691.4 741.9v-3h297.1v3z"/>
	<path id="Forma 137"  style="fill: #6d92ab" d="m988 742.1l-0.8-2.9 7.2-1.9 0.8 2.9z"/>
	<path id="Forma 138"  style="fill: #6d92ab" d="m994.7 740.5l-1.1-2.9 10.1-3.7 1 2.8z"/>
	<path id="Forma 139"  style="fill: #6d92ab" d="m1004.9 736.6l-1.4-2.6 7.6-4.2 1.4 2.6z"/>
	<path id="Forma 140"  style="fill: #6d92ab" d="m1012.3 732.4l-1.6-2.5 7.1-4.6 1.6 2.5z"/>
	<path id="Forma 141"  style="fill: #6d92ab" d="m1019.3 728l-2-2.3 6.3-5.4 1.9 2.3z"/>
	<path id="Forma 142"  style="fill: #6d92ab" d="m1025.3 722.9l-2.1-2.2 5.5-5.5 2.1 2.1z"/>
	<path id="Forma 143"  style="fill: #6d92ab" d="m1030.9 717.2l-2.3-1.9 3.7-4.4 2.3 2z"/>
	<path id="Forma 144"  style="fill: #6d92ab" d="m1034.6 712.9l-2.3-2 3.7-4.3 2.3 1.9z"/>
	<path id="Forma 145"  style="fill: #6d92ab" d="m1038.4 708.4l-2.5-1.7 3.1-4.6 2.5 1.7z"/>
	<path id="Forma 146"  style="fill: #6d92ab" d="m1041.4 703.8l-2.4-1.8 3.4-4.5 2.4 1.8z"/>
	<path id="Forma 147"  style="fill: #6d92ab" d="m1044.9 699.5h-3v-4.4h3z"/>
	<path id="Forma 148"  style="fill: #6d92ab" d="m240.5 480.6v3h-44.2v-3z"/>
	<path id="Forma 149"  style="fill: #6d92ab" d="m198.7 482.5l-2.9-0.8 3.7-13.1 2.8 0.8z"/>
	<path id="Forma 150"  style="fill: #6d92ab" d="m202 469.7l-2.7-1.2 7.1-16.9 2.7 1.1z"/>
	<path id="Forma 151"  style="fill: #6d92ab" d="m209.1 452.8l-2.7-1.3 8.9-18.7 2.7 1.3z"/>
	<path id="Forma 152"  style="fill: #6d92ab" d="m217.4 434.4l-2.5-1.6 6.5-11 2.6 1.6z"/>
	<path id="Forma 153"  style="fill: #6d92ab" d="m223.3 424.5l-2.4-1.9 9-11.9 2.4 1.8z"/>
	<path id="Forma 154"  style="fill: #6d92ab" d="m231.5 413.4l-1.6-2.5 11.5-7.3 1.6 2.6z"/>
	<path id="Forma 155"  style="fill: #6d92ab" d="m241.5 406.8l-0.9-2.8 24.6-8.2 0.9 2.8z"/>
	<path id="Forma 156"  style="fill: #6d92ab" d="m266 398.6l-0.7-2.9 28.4-7 0.7 3z"/>
	<path id="Forma 157"  style="fill: #6d92ab" d="m294.3 391.5l-0.6-2.9 25-5.2 0.7 3z"/>
	<path id="Forma 158"  style="fill: #6d92ab" d="m318.5 386.5l-0.5-2.9 36.2-6.1 0.5 3z"/>
	<path id="Forma 159"  style="fill: #6d92ab" d="m354.7 380.5l-0.5-3 44.8-7 0.4 2.9z"/>
	<path id="Forma 160"  style="fill: #6d92ab" d="m399 373.5l-0.3-2.9 57.5-6.2 0.3 2.9z"/>
	<path id="Forma 161"  style="fill: #6d92ab" d="m454.8 367.2l-0.2-3 39.4-3.3 0.2 3z"/>
	<path id="Forma 162"  style="fill: #6d92ab" d="m494.1 364l-0.2-3 47.1-3 0.2 3z"/>
	<path id="Forma 163"  style="fill: #6d92ab" d="m540.3 360.9l-0.2-3 51.3-2.8 0.2 3z"/>
	<path id="Forma 164"  style="fill: #6d92ab" d="m590.5 358.5l-0.2-3 37.8-1.9 0.1 3z"/>
	<path id="Forma 165"  style="fill: #6d92ab" d="m627.2 356.8v-3l34.7-0.7 0.1 3z"/>
	<path id="Forma 166"  style="fill: #6d92ab" d="m660.9 355.9l0.9-2.9 4.8 1.5-0.8 2.9z"/>
	<path id="Forma 167"  style="fill: #6d92ab" d="m665.1 357l1.7-2.5 3.9 2.7-1.7 2.5z"/>
	<path id="Forma 168"  style="fill: #6d92ab" d="m668.2 359.1l2.1-2.1 4.7 4.7-2.1 2.1z"/>
	<path id="Forma 169"  style="fill: #6d92ab" d="m672.4 362.6l2.6-1.6 9.9 15.9-2.5 1.6z"/>
	<path id="Forma 170"  style="fill: #6d92ab" d="m682 377.4l2.6-1.4 5.9 10.5-2.6 1.5z"/>
	<path id="Forma 171"  style="fill: #6d92ab" d="m688.6 388.7v-3l396.5-1.7v3z"/>
	<path id="Forma 172"  style="fill: #6d92ab" d="m1084.1 386.4l0.2-3 81 3.1-0.1 3z"/>
	<path id="Forma 173"  style="fill: #6d92ab" d="m1165.2 389.5l0.1-3 55.5 1.6-0.1 3z"/>
	<path id="Forma 174"  style="fill: #6d92ab" d="m1218.6 390l1.4-2.6 7.7 4.3-1.5 2.6z"/>
	<path id="Forma 175"  style="fill: #6d92ab" d="m1225.2 393.7l1.7-2.5 6.9 4.8-1.7 2.5z"/>
	<path id="Forma 176"  style="fill: #6d92ab" d="m1230.9 396.9l2.6-1.6 3.8 6.1-2.5 1.6z"/>
	<path id="Forma 177"  style="fill: #6d92ab" d="m1234.3 402.3l2.6-1.3 9.7 18.6-2.6 1.4z"/>
	<path id="Forma 178"  style="fill: #6d92ab" d="m1243.3 420l2.8-1.3 9.7 22.1-2.7 1.2z"/>
	<path id="Forma 179"  style="fill: #6d92ab" d="m1252.3 441.1l2.8-0.9 8.2 26.1-2.8 0.9z"/>
	<path id="Forma 180"  style="fill: #6d92ab" d="m1260.4 466.4l2.9-0.6 6.7 31.6-2.9 0.6z"/>
	<path id="Forma 181"  style="fill: #6d92ab" d="m1267.1 496.2l2.9-0.3 2.4 24.8-2.9 0.3z"/>
	<path id="Forma 182"  style="fill: #6d92ab" d="m1269.4 520.9l3-0.1 1 18.6-2.9 0.2z"/>
	<path id="Forma 183"  style="fill: #6d92ab" d="m1270.5 538.7l3 0.1-0.7 23.8-3-0.1z"/>
	<path id="Forma 184"  style="fill: #6d92ab" d="m1270 561.3l2.9 0.4-3.2 27.2-3-0.4z"/>
	<path id="Forma 185"  style="fill: #6d92ab" d="m1266.8 587.7l3 0.7-7.5 32.1-2.9-0.7z"/>
	<path id="Forma 186"  style="fill: #6d92ab" d="m1259.7 618.8l2.8 1-12.5 37-2.9-1z"/>
	<path id="Forma 187"  style="fill: #6d92ab" d="m1247.7 655l2.7 1.4-12 22.7-2.6-1.4z"/>
	<path id="Forma 188"  style="fill: #6d92ab" d="m1236.5 676.9l2.2 2.1-3.4 3.6-2.2-2z"/>
	<path id="Forma 189"  style="fill: #6d92ab" d="m1233.5 680l2 2.3-3.6 3-1.9-2.2z"/>
	<path id="Forma 190"  style="fill: #6d92ab" d="m1230.2 682.9l1.6 2.6-3.2 1.9-1.6-2.5z"/>
	<path id="Forma 191"  style="fill: #6d92ab" d="m1227.2 684.7l1.5 2.6-3.6 1.9-1.4-2.6z"/>
	<path id="Forma 192"  style="fill: #6d92ab" d="m1223.9 686.5l1 2.8-3.8 1.4-1-2.9z"/>
	<path id="Forma 193"  style="fill: #6d92ab" d="m1220.7 687.9l0.6 2.9-3.3 0.7-0.6-2.9z"/>
	<path id="Forma 194"  style="fill: #6d92ab" d="m1218.3 688.7v3l-4.3 0.1-0.1-3z"/>
	<path id="Forma 195"  style="fill: #6d92ab" d="m1214.5 688.5l0.1 3-24.4 0.8-0.1-3z"/>
	<path id="Forma 196"  style="fill: #6d92ab" d="m1190.4 689.5l0.1 3-33 1.1-0.1-3z"/>
	<path id="Forma 197"  style="fill: #6d92ab" d="m1158.1 690.7l0.1 3-19.6 0.9-0.1-3z"/>
	<path id="Forma 198"  style="fill: #6d92ab" d="m1139.3 691.6l0.1 3-33.3 1.2-0.1-3z"/>
	<path id="Forma 199"  style="fill: #6d92ab" d="m1108 692.9v3l-66.2 0.8-0.1-3z"/>
	<path id="Forma 200"  style="fill: #6d92ab" d="m247.5 606.3v3l-20.4-0.5 0.1-3z"/>
	<path id="Forma 201"  style="fill: #6d92ab" d="m227.1 605.8l0.1 3-23.8 0.2v-3z"/>
	<path id="Forma 202"  style="fill: #6d92ab" d="m202.2 606.4l2.4 1.7-3.2 4.4-2.4-1.8z"/>
	<path id="Forma 203"  style="fill: #6d92ab" d="m198.5 611.3l2.8-1 3.3 9.5-2.8 1z"/>
	<path id="Forma 204"  style="fill: #6d92ab" d="m201.6 620.2l2.7-1.2 4.4 11-2.8 1.1z"/>
	<path id="Forma 205"  style="fill: #6d92ab" d="m205.7 630.4l2.8-1.1 4.7 12.8-2.9 1z"/>
	<path id="Forma 206"  style="fill: #6d92ab" d="m210.2 642.8l2.7-1.3 6.7 14.4-2.7 1.2z"/>
	<path id="Forma 207"  style="fill: #6d92ab" d="m216.7 656.7l2.6-1.5 6.3 11.4-2.7 1.4z"/>
	<path id="Forma 208"  style="fill: #6d92ab" d="m222.5 667.5l2.6-1.6 6 9.4-2.5 1.7z"/>
	<path id="Forma 209"  style="fill: #6d92ab" d="m228.2 676.6l2.1-2.2 7.2 7.1-2.1 2.1z"/>
	<path id="Forma 210"  style="fill: #6d92ab" d="m235.2 683.6l1.6-2.5 8.3 5-1.6 2.6z"/>
	<path id="Forma 211"  style="fill: #6d92ab" d="m243.1 688.6l1.1-2.8 10.4 4.3-1.2 2.8z"/>
	<path id="Forma 212"  style="fill: #6d92ab" d="m253.2 692.8l0.7-2.9 14.6 3.9-0.8 2.9z"/>
	<path id="Forma 213"  style="fill: #6d92ab" d="m266.9 696.6l0.7-3 19.4 4.8-0.7 2.9z"/>
	<path id="Forma 214"  style="fill: #6d92ab" d="m285.9 701.1l0.6-3 26.3 5.5-0.6 2.9z"/>
	<path id="Forma 215"  style="fill: #6d92ab" d="m311 706.5l0.5-3 35.5 6.1-0.5 3z"/>
	<path id="Forma 216"  style="fill: #6d92ab" d="m346.4 712.4l0.4-3 38.5 5.3-0.5 3z"/>
	<path id="Forma 217"  style="fill: #6d92ab" d="m384.5 717.7l0.3-3 31.9 3.4-0.3 3z"/>
	<path id="Forma 218"  style="fill: #6d92ab" d="m416.2 721.1l0.2-3 49.5 4.2-0.3 3z"/>
	<path id="Forma 219"  style="fill: #6d92ab" d="m464.9 725.4l0.1-3 39.9 1.7-0.1 3z"/>
	<path id="Forma 220"  style="fill: #6d92ab" d="m504.6 727.1l0.1-3 42.9 2.1-0.1 3z"/>
	<path id="Forma 221"  style="fill: #6d92ab" d="m546.4 729.1l0.1-3 49.6 2-0.1 3z"/>
	<path id="Forma 222"  style="fill: #6d92ab" d="m595.3 731l0.1-3 42.8 1.4-0.1 3z"/>
	<path id="Forma 223"  style="fill: #6d92ab" d="m637.5 732.4v-3l29.6-0.1 0.1 3z"/>
	<path id="Forma 224"  style="fill: #6d92ab" d="m667.3 732.2l-1.6-2.5 4.4-2.8 1.6 2.5z"/>
	<path id="Forma 225"  style="fill: #6d92ab" d="m671.4 729.8l-1.7-2.5 5.4-3.8 1.7 2.5z"/>
	<path id="Forma 226"  style="fill: #6d92ab" d="m676.8 725.9l-2.3-1.9 4.8-6.1 2.3 1.9z"/>
	<path id="Forma 227"  style="fill: #6d92ab" d="m681.5 720.1l-2.6-1.6 4.9-7.7 2.5 1.6z"/>
	<path id="Forma 228"  style="fill: #6d92ab" d="m685.8 713.1l-2.6-1.4 5.7-10.4 2.7 1.4z"/>
	<path id="Forma 229"  style="fill: #6d92ab" d="m691.3 703.3l-2.6-1.4 3.3-5.8 2.6 1.5z"/>
	<path id="Forma 230"  style="fill: #6d92ab" d="m250.1 695.2l0.6-2.9 17 3.1-0.6 3z"/>
	<path id="Forma 231"  style="fill: #6d92ab" d="m265.9 698.2l0.4-3 8.4 1-0.4 3z"/>
	<path id="Forma 232"  style="fill: #6d92ab" d="m252 692.8l-1.1 2.8-9.1-3.5 1.1-2.8z"/>
	<path id="Forma 233"  style="fill: #6d92ab" d="m243.4 689.5l-1.2 2.8-11.1-4.7 1.1-2.7z"/>
	<path id="Forma 234"  style="fill: #6d92ab" d="m232.5 685.1l-1.4 2.6-18.5-9.5 1.3-2.7z"/>
	<path id="Forma 235"  style="fill: #6d92ab" d="m214.7 676l-1.7 2.5-13.2-8.8 1.6-2.5z"/>
	<path id="Forma 236"  style="fill: #6d92ab" d="m201.9 667.5l-1.8 2.4-10.2-7.4 1.8-2.4z"/>
	<path id="Forma 237"  style="fill: #6d92ab" d="m192.3 660.5l-2 2.3-10.2-9.1 2-2.2z"/>
	<path id="Forma 238"  style="fill: #6d92ab" d="m182.6 652l-2.2 2-7.8-8.7 2.2-2z"/>
	<path id="Forma 239"  style="fill: #6d92ab" d="m175.2 644l-2.4 1.8-6.2-8.5 2.4-1.8z"/>
	<path id="Forma 240"  style="fill: #6d92ab" d="m169.3 635.9l-2.5 1.7-5.6-7.9 2.5-1.8z"/>
	<path id="Forma 241"  style="fill: #6d92ab" d="m164.1 628.4l-2.5 1.6-4.6-7.5 2.5-1.5z"/>
	<path id="Forma 242"  style="fill: #6d92ab" d="m159.8 621.4l-2.6 1.6-4-6.6 2.5-1.6z"/>
	<path id="Forma 243"  style="fill: #6d92ab" d="m156.4 615.3l-2.7 1.3-3.1-6.4 2.7-1.3z"/>
	<path id="Forma 244"  style="fill: #6d92ab" d="m153.6 609.6l-2.8 1.1-2.3-5.7 2.8-1.2z"/>
	<path id="Forma 245"  style="fill: #6d92ab" d="m151.4 604.1l-2.8 1.2-2.9-7.2 2.8-1.2z"/>
	<path id="Forma 246"  style="fill: #6d92ab" d="m148.7 597.4l-2.9 0.9-3-10.1 2.9-0.8z"/>
	<path id="Forma 247"  style="fill: #6d92ab" d="m145.9 588.1l-3 0.7-2.2-9.5 2.9-0.7z"/>
	<path id="Forma 248"  style="fill: #6d92ab" d="m143.9 579.6l-2.9 0.6-1.8-8.5 3-0.6z"/>
	<path id="Forma 249"  style="fill: #6d92ab" d="m142.4 571.8l-3 0.4-1.2-10.1 3-0.4z"/>
	<path id="Forma 250"  style="fill: #6d92ab" d="m141.1 562.7h-3v-35.6h3z"/>
	<path id="Forma 251"  style="fill: #6d92ab" d="m141 527.8l-2.9-0.4 1.6-12 3 0.4z"/>
	<path id="Forma 252"  style="fill: #6d92ab" d="m142.7 516.7l-3-0.7 2.7-11.5 2.9 0.6z"/>
	<path id="Forma 253"  style="fill: #6d92ab" d="m145.2 506.1l-2.9-1 5.1-15.4 2.9 1z"/>
	<path id="Forma 254"  style="fill: #6d92ab" d="m149.9 491.5l-2.7-1.2 5.8-12.9 2.7 1.2z"/>
	<path id="Forma 255"  style="fill: #6d92ab" d="m155.4 479.3l-2.6-1.5 6.6-11.5 2.6 1.5z"/>
	<path id="Forma 256"  style="fill: #6d92ab" d="m161.7 468.6l-2.5-1.7 6.5-9.9 2.5 1.7z"/>
	<path id="Forma 257"  style="fill: #6d92ab" d="m167.9 459.1l-2.4-1.8 7.3-10.2 2.5 1.8z"/>
	<path id="Forma 258"  style="fill: #6d92ab" d="m175.2 449l-2.3-2 7.1-7.8 2.2 2.1z"/>
	<path id="Forma 259"  style="fill: #6d92ab" d="m181.4 441.8l-2-2.2 8.1-7.6 2.1 2.2z"/>
	<path id="Forma 260"  style="fill: #6d92ab" d="m188.6 435l-1.8-2.4 8.9-6.8 1.8 2.4z"/>
	<path id="Forma 261"  style="fill: #6d92ab" d="m196.7 428.6l-1.8-2.4 10.2-7.5 1.8 2.4z"/>
	<path id="Forma 262"  style="fill: #6d92ab" d="m206.2 421.4l-1.5-2.6 12.7-7.4 1.5 2.6z"/>
	<path id="Forma 263"  style="fill: #6d92ab" d="m218.2 414.2l-1.4-2.6 13.3-6.8 1.4 2.6z"/>
	<path id="Forma 264"  style="fill: #6d92ab" d="m230.9 407.6l-1.1-2.7 12.4-5.1 1.2 2.7z"/>
	<path id="Forma 265"  style="fill: #6d92ab" d="m242.9 402.7l-1.1-2.8 11.7-4.4 1.1 2.8z"/>
	<path id="Forma 266"  style="fill: #6d92ab" d="m253.5 398.6l-1-2.8 15-5 0.9 2.9z"/>
	<path id="Forma 267"  style="fill: #6d92ab" d="m267.5 393.8l0.1-3 9.6 0.3-0.1 3z"/>
	<path id="Forma 268"  style="fill: #6d92ab" d="m276.4 394l0.2-3 6.2 0.5-0.2 2.9z"/>
	<path id="Forma 269"  style="fill: #6d92ab" d="m958.3 741.2l-0.9-2.9 12.3-3.9 0.9 2.9z"/>
	<path id="Forma 270"  style="fill: #6d92ab" d="m969.5 737.6l-1.1-2.8 10.4-4 1.1 2.8z"/>
	<path id="Forma 271"  style="fill: #6d92ab" d="m979.5 733.8l-1.4-2.6 9.3-4.9 1.4 2.7z"/>
	<path id="Forma 272"  style="fill: #6d92ab" d="m988.5 729.2l-1.8-2.5 9.4-6.8 1.7 2.4z"/>
	<path id="Forma 273"  style="fill: #6d92ab" d="m997.7 722.2l-2.1-2.2 8.6-8.3 2.1 2.2z"/>
	<path id="Forma 274"  style="fill: #6d92ab" d="m1005.9 714.2l-2.2-2 6.7-7.3 2.2 2.1z"/>
	<path id="Forma 275"  style="fill: #6d92ab" d="m1012.2 707.5l-2.6-1.6 6.1-9.8 2.5 1.6z"/>
	<path id="Forma 276"  style="fill: #6d92ab" d="m1018.1 697.9l-2.7-1.4 1.2-2.2 2.7 1.3z"/>
	<path id="Forma 277"  style="fill: #6d92ab" d="m1017.1 696.6v-3h28.4v3z"/>
	<path id="Forma 278"  style="fill: #6d92ab" d="m974.6 346.5l-1.4 2.7-14.2-7.7 1.5-2.7z"/>
	<path id="Forma 279"  style="fill: #6d92ab" d="m972.2 348.6l1.3-2.7 10.9 5.7-1.4 2.6z"/>
	<path id="Forma 280"  style="fill: #6d92ab" d="m982.1 353.8l1.5-2.6 8.8 5.1-1.5 2.6z"/>
	<path id="Forma 281"  style="fill: #6d92ab" d="m990.2 357.8l2.2-2 4.2 4.6-2.2 2z"/>
	<path id="Forma 282"  style="fill: #6d92ab" d="m994.2 362l2-2.2 6.4 5.7-2 2.3z"/>
	<path id="Forma 283"  style="fill: #6d92ab" d="m1000 367l2.3-1.9 4.6 5.6-2.3 1.9z"/>
	<path id="Forma 284"  style="fill: #6d92ab" d="m1004.3 372l2.3-1.9 4.5 5.7-2.3 1.9z"/>
	<path id="Forma 285"  style="fill: #6d92ab" d="m1008.3 376.8l2.4-1.8 3.7 5-2.4 1.8z"/>
	<path id="Forma 290"  style="fill: #6d92ab" d="m380 414.7v-3h39.2v3z"/>
	<path id="Forma 291"  style="fill: #6d92ab" d="m416.9 413.9l2.1-2.2 23 22.6-2.1 2.2z"/>
	<path id="Forma 292"  style="fill: #6d92ab" d="m438.9 434.4h3v16.2h-3z"/>
	<path id="Forma 293"  style="fill: #6d92ab" d="m399 455v-3h38.1v3z"/>
	<path id="Forma 294"  style="fill: #6d92ab" d="m436.1 450h3v10.4h-3z"/>
	<path id="Forma 295"  style="fill: #6d92ab" d="m437.1 461.3v-3h20.7v3z"/>
	<path id="Forma 296"  style="fill: #6d92ab" d="m457.5 461.1l-2.1-2.2 19.4-19.3 2.1 2.1z"/>
	<path id="Forma 297"  style="fill: #6d92ab" d="m241 481.9l-2.8-1 13.1-39.6 2.8 0.9z"/>
	<path id="Forma 298"  style="fill: #6d92ab" d="m254 442.4l-2.7-1.3 10.1-21.5 2.7 1.2z"/>
	<path id="Forma 299"  style="fill: #6d92ab" d="m264 421.1l-2.4-1.8 7.7-10.3 2.4 1.8z"/>
	<path id="Forma 300"  style="fill: #6d92ab" d="m271.5 411l-2-2.2 9.7-8.4 2 2.3z"/>
	<path id="Forma 301"  style="fill: #6d92ab" d="m280.7 403l-1-2.8 10.5-3.8 1 2.8z"/>
	<path id="Forma 302"  style="fill: #6d92ab" d="m291.2 399.1l-0.6-2.9 45.1-9.6 0.7 3z"/>
	<path id="Forma 303"  style="fill: #6d92ab" d="m336.3 389.6l-0.5-3 24.1-4.5 0.6 2.9z"/>
	<path id="Forma 304"  style="fill: #6d92ab" d="m358.8 385l0.4-2.9 5.8 0.8-0.4 2.9z"/>
	<path id="Forma 305"  style="fill: #6d92ab" d="m363.2 385.4l0.8-2.9 5.4 1.6-0.9 2.9z"/>
	<path id="Forma 306"  style="fill: #6d92ab" d="m367.5 385.9l2.1-2 2.8 2.9-2.1 2z"/>
	<path id="Forma 307"  style="fill: #6d92ab" d="m370 387.7l2.9-0.9 1.9 6.6-2.9 0.9z"/>
	<path id="Forma 308"  style="fill: #6d92ab" d="m371.9 394.2l2.9-0.8 8 30.1-2.9 0.8z"/>
	<path id="Forma 309"  style="fill: #6d92ab" d="m380 423l2.9-0.8 7.9 27.1-2.9 0.8z"/>
	<path id="Forma 310"  style="fill: #6d92ab" d="m388.1 450.1l2.4-1.8 2 2.6-2.4 1.8z"/>
	<path id="Forma 311"  style="fill: #6d92ab" d="m391.2 453.1l-0.1-3 7.8-0.1v3z"/>
	<path id="Forma 312"  style="fill: #6d92ab" d="m396.9 451.2h3v4.6h-3z"/>
	<path id="Forma 313"  style="fill: #6d92ab" d="m398.7 454.3l-0.1 3-8.9-0.3 0.1-3z"/>
	<path id="Forma 314"  style="fill: #6d92ab" d="m390.5 454.1l-1.5 2.6-3.9-2.4 1.6-2.5z"/>
	<path id="Forma 315"  style="fill: #6d92ab" d="m387.1 452.1l-2.4 1.9-3-3.9 2.3-1.9z"/>
	<path id="Forma 317"  style="fill: #6d92ab" d="m384.7 449.1l-2.8 1-1.7-4.5 2.8-1.1z"/>
	<path id="Forma 318"  style="fill: #6d92ab" d="m383.3 445.3l-2.9 0.8-3-11.6 2.9-0.8z"/>
	<path id="Forma 319"  style="fill: #6d92ab" d="m380.4 434.5l-2.9 0.8-3.3-13 2.9-0.8z"/>
	<path id="Forma 320"  style="fill: #6d92ab" d="m376.9 422.1l-2.9 0.8-4-15.1 2.9-0.8z"/>
	<path id="Forma 321"  style="fill: #6d92ab" d="m372.8 407.6l-2.9 0.7-2.9-11.6 3-0.7z"/>
	<path id="Forma 322"  style="fill: #6d92ab" d="m239.6 484v-3h8.4v3z"/>
	<path id="Forma 323"  style="fill: #6d92ab" d="m248.4 482.5l-3-0.8 2.3-8.9 2.9 0.7z"/>
	<path id="Forma 324"  style="fill: #6d92ab" d="m250.4 474.2l-2.9-0.9 3.9-12.8 2.9 0.9z"/>
	<path id="Forma 325"  style="fill: #6d92ab" d="m254.1 462.1l-2.8-1 4.9-13.8 2.8 1z"/>
	<path id="Forma 326"  style="fill: #6d92ab" d="m258.7 449.1l-2.8-1.1 4.4-10.8 2.7 1.1z"/>
	<path id="Forma 327"  style="fill: #6d92ab" d="m262.7 439.1l-2.7-1.3 5.4-10.6 2.6 1.3z"/>
	<path id="Forma 328"  style="fill: #6d92ab" d="m267.6 429.3l-2.5-1.6 6.9-10.5 2.5 1.6z"/>
	<path id="Forma 329"  style="fill: #6d92ab" d="m274 419.6l-2.3-1.9 6.4-8.1 2.3 1.8z"/>
	<path id="Forma 330"  style="fill: #6d92ab" d="m370.2 396.9l-2.8 0.9-1.9-6 2.9-0.9z"/>
	<path id="Forma 331"  style="fill: #6d92ab" d="m368.7 390.7l-2.3 2-2.6-3 2.3-1.9z"/>
	<path id="Forma 332"  style="fill: #6d92ab" d="m365.7 387.4l-0.3 3-2.8-0.3 0.3-3z"/>
	<path id="Forma 333"  style="fill: #6d92ab" d="m363.2 387.1l0.5 3-6.1 1-0.5-3z"/>
	<path id="Forma 334"  style="fill: #6d92ab" d="m357.8 388l0.6 2.9-11.5 2-0.6-2.9z"/>
	<path id="Forma 335"  style="fill: #6d92ab" d="m347.3 389.7l0.6 3-27.8 5.3-0.6-3z"/>
	<path id="Forma 336"  style="fill: #6d92ab" d="m320.4 394.8l0.7 2.9-16.6 3.6-0.7-2.9z"/>
	<path id="Forma 337"  style="fill: #6d92ab" d="m304.5 398.1l0.8 2.9-10.8 2.8-0.7-2.9z"/>
	<path id="Forma 338"  style="fill: #6d92ab" d="m294.5 400.8l0.9 2.8-6.9 2.2-0.9-2.9z"/>
	<path id="Forma 339"  style="fill: #6d92ab" d="m287.9 402.9l1.5 2.7-5.5 2.9-1.5-2.6z"/>
	<path id="Forma 340"  style="fill: #6d92ab" d="m282.4 405.7l2 2.2-5.6 5.4-2.1-2.2z"/>
	<path id="Forma 341"  style="fill: #6d92ab" d="m399.9 454.1l-1.1-2.8 40.9-16.5 1.1 2.8z"/>
	<path id="Forma 342"  style="fill: #6d92ab" d="m400.1 452.6l-2.1-2.1 28.7-28.6 2.1 2.1z"/>
	<path id="Forma 343"  style="fill: #6d92ab" d="m396.7 451.5l-2.7-1.4 18.6-37.8 2.7 1.3z"/>
	<path id="Forma 344"  style="fill: #6d92ab" d="m397.3 450.3h-3v-37.3h3z"/>
	<path id="Forma 345"  style="fill: #6d92ab" d="m388.4 439.9h-3v-26.5h3z"/>
	<path id="Forma 346"  style="fill: #6d92ab" d="m477 441.4h-3v-73.1h3z"/>
	<path id="Forma 347"  style="fill: #6d92ab" d="m474.9 370l-0.2-3 17.7-1.1 0.1 3z"/>
	<path id="Forma 348"  style="fill: #6d92ab" d="m492.5 368.9l-0.2-3 24.8-1.7 0.2 3z"/>
	<path id="Forma 349"  style="fill: #6d92ab" d="m517.3 367.2l-0.2-3 35.1-2 0.1 3z"/>
	<path id="Forma 350"  style="fill: #6d92ab" d="m551.8 365.5l-0.2-3 27.6-1.9 0.2 3z"/>
	<path id="Forma 351"  style="fill: #6d92ab" d="m578.3 363.5l-0.2-3 28.2-1.6 0.2 3z"/>
	<path id="Forma 352"  style="fill: #6d92ab" d="m606.5 361.9l-0.1-3 34.2-1 0.1 3z"/>
	<path id="Forma 353"  style="fill: #6d92ab" d="m640.7 360.9v-3l20.7-0.2 0.1 3z"/>
	<path id="Forma 354"  style="fill: #6d92ab" d="m660.7 360.6l0.8-2.9 4.6 1.3-0.9 2.9z"/>
	<path id="Forma 355"  style="fill: #6d92ab" d="m664.2 361.4l1.9-2.3 4.6 3.8-2 2.3z"/>
	<path id="Forma 356"  style="fill: #6d92ab" d="m668.1 364.5l2.3-1.9 4.2 5.3-2.3 1.8z"/>
	<path id="Forma 357"  style="fill: #6d92ab" d="m671.7 368.9l2.5-1.5 4.9 8.1-2.6 1.6z"/>
	<path id="Forma 358"  style="fill: #6d92ab" d="m676.2 376.5l2.6-1.6 3.1 5.1-2.6 1.6z"/>
	<path id="Forma 359"  style="fill: #6d92ab" d="m679.4 379.5h3v8.5h-3z"/>
	<path id="Forma 360"  style="fill: #6d92ab" d="m681.8 385.6v3h-11.6v-3z"/>
	<path id="Forma 361"  style="fill: #6d92ab" d="m671.9 385.5l0.7 3-9.7 2.1-0.6-2.9z"/>
	<path id="Forma 362"  style="fill: #6d92ab" d="m663 387.7l0.9 2.8-9.3 3.3-1-2.9z"/>
	<path id="Forma 363"  style="fill: #6d92ab" d="m655 390.6l1.6 2.6-7.2 4.4-1.6-2.6z"/>
	<path id="Forma 364"  style="fill: #6d92ab" d="m649.4 394.1l1.9 2.3-8.4 6.8-1.9-2.3z"/>
	<path id="Forma 365"  style="fill: #6d92ab" d="m641.7 399.9l2.4 1.7-4.9 6.7-2.4-1.7z"/>
	<path id="Forma 366"  style="fill: #6d92ab" d="m637.2 406.1l2.6 1.5-6.4 11-2.6-1.5z"/>
	<path id="Forma 367"  style="fill: #6d92ab" d="m630.9 416.5l2.8 1.3-5.5 11.4-2.7-1.3z"/>
	<path id="Forma 368"  style="fill: #6d92ab" d="m625.8 427.2l2.8 1.3-6.5 14.3-2.8-1.2z"/>
	<path id="Forma 369"  style="fill: #6d92ab" d="m619.5 440.8l2.8 1.1-4.8 12.9-2.8-1z"/>
	<path id="Forma 370"  style="fill: #6d92ab" d="m615.2 453.1l2.8 1.1-4.7 12.3-2.8-1z"/>
	<path id="Forma 371"  style="fill: #6d92ab" d="m610.8 464.8l2.9 0.7-3.3 12.7-2.9-0.7z"/>
	<path id="Forma 372"  style="fill: #6d92ab" d="m607.7 476.6l2.9 0.6-2.6 12.3-2.9-0.7z"/>
	<path id="Forma 373"  style="fill: #6d92ab" d="m605.5 487.7l3 0.6-2.5 14.6-3-0.5z"/>
	<path id="Forma 374"  style="fill: #6d92ab" d="m603.1 501.7l3 0.3-1.4 13.5-3-0.3z"/>
	<path id="Forma 375"  style="fill: #6d92ab" d="m601.6 515.2l2.3-2 5.2 5.9-2.3 2z"/>
	<path id="Forma 376"  style="fill: #6d92ab" d="m606.7 520.4v-3h24.5v3z"/>
	<path id="Forma 377"  style="fill: #6d92ab" d="m632.1 519.1h-3v-5.5h3z"/>
	<path id="Forma 378"  style="fill: #6d92ab" d="m631.5 512.2l-0.7 2.9-4.9-1.2 0.7-2.9z"/>
	<path id="Forma 379"  style="fill: #6d92ab" d="m628.5 513.1l-2.9-0.4 1.2-9.3 2.9 0.4z"/>
	<path id="Forma 380"  style="fill: #6d92ab" d="m629.9 504.9l-3-0.4 2.1-17.7 3 0.3z"/>
	<path id="Forma 381"  style="fill: #6d92ab" d="m631.9 487.9l-2.9-0.7 3.8-16 2.9 0.6z"/>
	<path id="Forma 382"  style="fill: #6d92ab" d="m635.5 472.8l-2.9-0.9 4.5-14.5 2.9 0.9z"/>
	<path id="Forma 383"  style="fill: #6d92ab" d="m640 459.3l-2.8-1 5.6-15.5 2.8 1z"/>
	<path id="Forma 384"  style="fill: #6d92ab" d="m645.2 444.5l-2.7-1.3 6.4-12.9 2.7 1.3z"/>
	<path id="Forma 385"  style="fill: #6d92ab" d="m651.1 432.2l-2.6-1.4 7.8-14.2 2.6 1.4z"/>
	<path id="Forma 386"  style="fill: #6d92ab" d="m658.6 419l-2.5-1.7 6.2-8.8 2.4 1.7z"/>
	<path id="Forma 387"  style="fill: #6d92ab" d="m664.5 410.4l-2-2.2 8.6-7.5 2 2.3z"/>
	<path id="Forma 388"  style="fill: #6d92ab" d="m672.3 403.5l-1.4-2.7 8.4-4.4 1.4 2.7z"/>
	<path id="Forma 389"  style="fill: #6d92ab" d="m679.9 399.6l-0.7-2.9 9.6-2.4 0.7 2.9z"/>
	<path id="Forma 390"  style="fill: #6d92ab" d="m688.6 397.4l-0.3-3 3.9-0.4 0.3 2.9z"/>
	<path id="Forma 391"  style="fill: #6d92ab" d="m691.6 396.7v-3h63.3v3z"/>
	<path id="Forma 392"  style="fill: #6d92ab" d="m752.6 396.5v-3h346.9v3z"/>
	<path id="Forma 393"  style="fill: #6d92ab" d="m1097.7 396.1l1-2.8 2.8 1-1 2.8z"/>
	<path id="Forma 394"  style="fill: #6d92ab" d="m1099.8 396.9l1-2.9 5.1 1.9-1.1 2.8z"/>
	<path id="Forma 395"  style="fill: #6d92ab" d="m1104 398.3l1.4-2.7 3.6 1.9-1.4 2.7z"/>
	<path id="Forma 396"  style="fill: #6d92ab" d="m1106.8 399.4l2-2.2 3.6 3.2-1.9 2.3z"/>
	<path id="Forma 397"  style="fill: #6d92ab" d="m1109.7 402.2l2.1-2.1 5.3 5.2-2.2 2.2z"/>
	<path id="Forma 398"  style="fill: #6d92ab" d="m1114.2 406.2l2.6-1.4 7.2 13.7-2.6 1.4z"/>
	<path id="Forma 399"  style="fill: #6d92ab" d="m1121 419.1l2.8-1.2 6.7 16.2-2.8 1.1z"/>
	<path id="Forma 400"  style="fill: #6d92ab" d="m1127 434l2.8-1.1 8.7 23.2-2.8 1.1z"/>
	<path id="Forma 401"  style="fill: #6d92ab" d="m1135.4 456.4l2.9-0.7 5 18.6-2.9 0.8z"/>
	<path id="Forma 402"  style="fill: #6d92ab" d="m1140.3 474.6l3-0.6 3.1 16-3 0.5z"/>
	<path id="Forma 403"  style="fill: #6d92ab" d="m1143.4 489.9l3-0.5 2.4 16.5-3 0.4z"/>
	<path id="Forma 404"  style="fill: #6d92ab" d="m1145.9 505.8l3-0.4 2.5 18.6-2.9 0.5z"/>
	<path id="Forma 405"  style="fill: #6d92ab" d="m1148.5 523.7l3-0.2 0.6 11-3 0.2z"/>
	<path id="Forma 406"  style="fill: #6d92ab" d="m1149.2 533.7h3v20.9h-3z"/>
	<path id="Forma 407"  style="fill: #6d92ab" d="m1149.1 554.1l2.9 0.3-2.1 17.5-2.9-0.4z"/>
	<path id="Forma 408"  style="fill: #6d92ab" d="m1147.1 571.3l3 0.4-1.8 15.5-3-0.3z"/>
	<path id="Forma 409"  style="fill: #6d92ab" d="m1145.3 586.5l2.9 0.6-3.2 15.6-2.9-0.6z"/>
	<path id="Forma 410"  style="fill: #6d92ab" d="m1142.4 601.6l2.9 0.8-4.4 15.8-2.9-0.8z"/>
	<path id="Forma 411"  style="fill: #6d92ab" d="m1138.1 617.1l2.9 0.9-4.3 13.6-2.8-0.8z"/>
	<path id="Forma 412"  style="fill: #6d92ab" d="m1134 630l2.8 1.1-4.7 12.2-2.8-1.1z"/>
	<path id="Forma 413"  style="fill: #6d92ab" d="m1129.6 641.5l2.8 1.2-5.6 13.8-2.8-1.1z"/>
	<path id="Forma 414"  style="fill: #6d92ab" d="m1124.3 654.9l2.7 1.2-4.3 9.9-2.7-1.2z"/>
	<path id="Forma 415"  style="fill: #6d92ab" d="m1120.3 664l2.6 1.5-5.1 8.8-2.6-1.5z"/>
	<path id="Forma 416"  style="fill: #6d92ab" d="m1116.1 671.8l2.1 2.2-7 6.4-2.1-2.2z"/>
	<path id="Forma 417"  style="fill: #6d92ab" d="m1110.5 677.4l1.4 2.7-7 3.6-1.4-2.6z"/>
	<path id="Forma 418"  style="fill: #6d92ab" d="m1104.7 680.8l0.9 2.8-8.2 2.4-0.8-2.9z"/>
	<path id="Forma 419"  style="fill: #6d92ab" d="m736 691.9v-3l362.9-6.4 0.1 3z"/>
	<path id="Forma 420"  style="fill: #6d92ab" d="m737.5 689v3l-43.3-0.1v-3z"/>
	<path id="Forma 421"  style="fill: #6d92ab" d="m695.5 688.8l-0.8 2.9-6.6-1.7 0.8-2.9z"/>
	<path id="Forma 422"  style="fill: #6d92ab" d="m689.7 687.5l-1.1 2.8-7.3-2.8 1.1-2.8z"/>
	<path id="Forma 423"  style="fill: #6d92ab" d="m683.1 685.3l-1.7 2.4-5.9-4.3 1.7-2.4z"/>
	<path id="Forma 424"  style="fill: #6d92ab" d="m677.7 681.6l-1.9 2.2-5.4-4.7 2-2.3z"/>
	<path id="Forma 425"  style="fill: #6d92ab" d="m673 677.6l-2.2 2-5.7-6.2 2.2-2.1z"/>
	<path id="Forma 426"  style="fill: #6d92ab" d="m667.8 671.9l-2.6 1.5-7.9-13.3 2.5-1.6z"/>
	<path id="Forma 427"  style="fill: #6d92ab" d="m660.3 659.2l-2.7 1.4-8.9-17.4 2.6-1.4z"/>
	<path id="Forma 428"  style="fill: #6d92ab" d="m651.7 642.4l-2.7 1.3-6.3-13.2 2.7-1.3z"/>
	<path id="Forma 429"  style="fill: #6d92ab" d="m645.6 629.9l-2.8 0.9-4.2-12.9 2.9-0.9z"/>
	<path id="Forma 430"  style="fill: #6d92ab" d="m641.6 617.7l-2.8 1-5.4-15.7 2.8-0.9z"/>
	<path id="Forma 431"  style="fill: #6d92ab" d="m636.5 602.6l-3 0.7-3.6-16.5 3-0.7z"/>
	<path id="Forma 432"  style="fill: #6d92ab" d="m632.9 586.8l-2.9 0.6-3-12.9 2.9-0.7z"/>
	<path id="Forma 433"  style="fill: #6d92ab" d="m630.4 574.7l-3 0.3-0.7-5.8 3-0.4z"/>
	<path id="Forma 434"  style="fill: #6d92ab" d="m628.1 571.3l-1.1-2.8 4.6-1.8 1.1 2.8z"/>
	<path id="Forma 435"  style="fill: #6d92ab" d="m633.4 569.1h-3l0.1-5.1h3z"/>
	<path id="Forma 436"  style="fill: #6d92ab" d="m633 563.7v3h-25.3v-3z"/>
	<path id="Forma 437"  style="fill: #6d92ab" d="m607.8 563.4l2.3 1.9-4.2 4.9-2.3-2z"/>
	<path id="Forma 438"  style="fill: #6d92ab" d="m603.3 567.7h3v9.4h-3z"/>
	<path id="Forma 439"  style="fill: #6d92ab" d="m692.6 699.1l-0.1-3 329.9-2.5v3z"/>
</svg>